<svg xmlns="http://www.w3.org/2000/svg" xmlns:xlink="http://www.w3.org/1999/xlink" version="1.1" x="0px" y="0px" viewBox="0 0 100 125" enable-background="new 0 0 100 100" xml:space="preserve"><g><g><g><g><path d="M64,12.7c0.2,0.1,0.5,0,0.5,0.2c-0.1,0-0.3,0-0.2,0.2c0.8,0.1,0.3-0.9,0.9-0.2c0.1-0.4-0.4-0.6,0-0.7      c0.5,0.1,0.6,0.5,1.2,0.5C66.1,11.8,64.3,11.9,64,12.7 M61.6,18.3c0.3-0.5,0.8-0.6,1.2-0.9c-0.3,0-0.9-0.8-0.9-0.2      C62.7,17.5,60.8,18.1,61.6,18.3 M64.7,16.7c-0.8,1.2,1-0.4,0.2,1.2c0.4,0,0.5-0.2,0.2-0.5c0.2-0.1,0.5,0,0.5-0.2      c-0.7,0.2-0.8-1.4-1.2-0.7C64.6,16.5,64.7,16.5,64.7,16.7 M55.7,33c-0.3,0.1-0.4,0.3-0.5,0.5c0.3,0,0.9,0.8,0.9,0.2      c-0.7-0.1,0.4-0.4,0.5-0.5c0.1,0.2,0,0.5,0.2,0.5V33c-0.8,0.7-1-0.8-1.4-0.2C55.6,32.8,55.7,32.8,55.7,33 M58.7,25      c0.4,0.7,1.1,0.1,1.4,0.5c0.1,0.7-1.1,0.2-1.2,0.7c0.3,0.2,0.8,0.4,0.7,0.9c-0.4-0.2-0.8,0.7-0.9,0c0.1,0,0.3-0.2,0-0.2      c-0.5,0.5,0.3,0.9,0.5,1.4c0.7,0.1,1.6-0.9,1.2-1.2c0,0.3-0.7,0.3-0.7,0c0.5-0.2,0.2-1.2,0.7-1.4c0,0.2,0.2,0.3,0.2,0.5      c-0.3,0.1-0.6,0.4-0.2,0.5c0.1-0.3,0.4-0.4,0.5-0.7c-1.3-0.5,0.1-1.1-0.5-1.7c-0.1,0.4-1-0.3-1.2,0.5c0.3,0.1,0.6,0.4,0.2,0.5      C59.2,25.2,59,24.2,58.7,25 M55.9,31.9c-0.2-0.2-0.5-0.5-0.7-0.7c0,0.4-0.1,0.9,0.2,0.9c0.4,0.1,1.1,0.1,1.7-0.7      c-0.6-0.4,0-1.5,0.7-2.1c-0.2,0.5,1.2,0.5,0.5,0.2C58.1,29.4,58,29.3,58,29c0.3,0,0.4,0.3,0.5,0c-0.7-0.3,0.4-0.3,0.5,0v-0.7      c-1,0.1-1.1,1.1-2.1,1.2C56.7,30.4,56.6,31.4,55.9,31.9 M58.5,33.5c-0.1,0-0.3,0-0.2,0.2c0.3,0.1,0.5,0.3,0.5,0.7      c-0.1,0-0.3,0.2,0,0.2c0.1-0.3,0.3-0.1,0.5,0c-0.2-0.6,0.5-0.5,0.5-0.9C58.6,34.5,58.6,33.1,58.5,33.5 M60.9,28.8      c0.4,0.4-2.2,1.3-1.7,0.5c-0.1,0.2-0.2,0.3-0.5,0.2c-0.1,0.4,0.7,1,0,1.2c0.2-0.6-1.1-0.8-0.9-0.5c0.7,0.1,0.5,0.9,0.9,1.2      c0.1-0.6,0.4-1,0.7-1.4c0.4,0.4,0.6,1.1,1.7,0.9c0.1-1.3-1,0.1-1.2-0.9c1.3,0,0.3-0.1,0-0.5c1.2-0.1,0.9-0.2,1.7,0.2      C61.5,29.4,61.3,28,60.9,28.8 M65.9,87.6c0.6-0.7-0.3,0.7,0.2,0.5c0-0.1,0-0.3,0.2-0.2c0.1,0.2,0,0.5,0.2,0.5      c-0.2-0.7,0.2-0.9,0.2-1.4c-0.3,0-0.2-0.4-0.5-0.5C67.1,87.6,65.2,86.6,65.9,87.6 M54.2,85c-0.5,0.1-0.5-0.3-0.7-0.5      c0.1,0.6-1.8,0.6-0.9,1.2C52.9,84.8,53.9,85.4,54.2,85 M46.9,85.4c-0.5,0.1-0.5-1.7-1.2-0.7c0.3,0.1,0.1,0.3,0,0.5      C46,85.3,46.9,85.9,46.9,85.4 M47.8,82.4c0.8-1.3-0.2,1.1,0.9,1.2c0-0.4,0.2-0.6,0.5-0.7c0,0.1,0,0.3,0.2,0.2      c-0.7-0.7-0.7-1-1.4-1.4C48.2,82,47.1,82.2,47.8,82.4 M50,81.9c-0.4-0.3-0.5-0.9-0.9-1.2c0,0.3-1.5,0.4-0.7,0.7      C48.8,80.5,49.7,82.2,50,81.9 M80.8,80.7C80.8,80.4,80.5,80.6,80.8,80.7c0.3,0.7,1.3-1.2,0-0.9C80.6,80.2,81.5,80.5,80.8,80.7       M50.7,80.2c-0.2,0.6,1.1,0.8,0.9,0.5c-0.5-0.1,0.3-0.7,0.5-0.9c0.3,0,0.9-0.1,0.5-0.2C51.3,79.1,51.6,81,50.7,80.2 M84.4,79.5      c0.3,0,0.2,0.4,0.5,0.5c0-0.3,0.3-0.4,0.5-0.5c-0.1,0.8-0.7,1.9,0,1.7c-0.3-0.3-0.1-0.7,0.2-0.9c0,0.1,0.2,0.3,0.2,0      c0-0.5-1.1-2-0.9-1.2C85.7,79.4,84.1,79.1,84.4,79.5 M48.8,78.8c0.1,0.5-0.3,0.5-0.5,0.7c0.4,0,0.8,0.2,0.9,0.5      c-0.7-0.3-0.8,0.9-0.5,0.2c0.9-0.3,0.4,0.9,1.2,0.7C49.2,80.2,49.6,79.6,48.8,78.8 M57.3,76c-0.3,0-0.2-0.4-0.5-0.5      c-0.2,0.7-0.8-0.1-1.2,0v0.9C56.3,75.9,56.9,76.3,57.3,76 M51.2,75c-0.1,0.7,0.5,0.9,0,1.4C52.1,76.5,52.1,75.1,51.2,75       M49.7,78.3c0.4,0.3,0.8,0.6,1.2,0.9c-0.4,0-0.2,0.7,0,0.2c0.2-0.3,1.6-1.3,0.9-0.9C51.6,78.9,50.7,77.9,49.7,78.3 M50.2,77.1      c0.3,0,0.7,0,0.7,0.2c-0.5,0-0.8,0.2-0.7,0.7c0.4,0,0.5-0.2,0.2-0.5c0.6-0.3,1.2,0.5,1.2,0c-0.5,0.3,0.4-1.5-0.2-0.7      c-0.1,0.2,0,0.5-0.2,0.5c0.2-0.8-0.4-1,0-1.4c-0.4,0.1-0.6-0.4-0.7,0C51.3,76.4,50,76.6,50.2,77.1 M57.6,72.9      c-0.4,0-0.6,0.2-0.7,0.5c0.6,0.4,0.8,0.2,0.2-0.2c0.7-0.2,0.9-0.4,1.2-0.5c-0.2-0.2-1.9-0.6-1.2-0.2      C57.1,72.7,57.5,72.6,57.6,72.9 M53.1,71.9c-0.3-0.1-1.5,0-0.7,0.2c0.5,0.3,0.9-0.6,0.9,0c0.2,0.5-0.6,1.1-0.7,0.5      c0.1,0,0.3-0.2,0-0.2c-0.4,0.4,0.1,1.1,0.5,1.4c1.4-1,0-2.2-0.2-3.1C52.4,71.2,52.9,71.4,53.1,71.9 M74.9,71.9      c0.3,0,0.2,0.4,0.5,0.5c0.1-0.2,0-0.5,0.2-0.5c0,0.1,0,0.3,0.2,0.2c0-0.3,0-0.7,0.2-0.7c0.3,0,0.6-0.1,0.2-0.2      c-1,0.6-0.7-0.5-0.9-0.7C74.8,71.1,75.7,71.6,74.9,71.9 M65.6,70.3c0.3,0,0.5,0.1,0.7,0.2c-0.2-0.6-0.7-1.1-1.2-1.4      c-0.1,0.4-0.4-0.1-0.5,0.2C65.1,70,65.7,69.1,65.6,70.3 M71.3,70c-0.1-0.3-0.5-0.3-0.7-0.5c0,0.9,1.3,0.5,1.7,0.9      c0-1.4,1,0.7,1.2-0.2c-0.3,0-0.6-0.1-0.5-0.5c-0.6-0.3-1,0.7-1.2,0c0.4,0,0.6-0.2,0.7-0.5C72,69.4,72,69,71.8,68.8      C72.1,69.6,71.7,69.5,71.3,70 M61.6,70.3c-0.7,0.3,0.4,0.3,0.2-0.2c-0.8-0.4-1.6-0.8-2.1-1.4c-0.2,0.9-0.9,1.3-1.4,1.9      c0.9,0.2,0.1,0.7,0.2,1.4c1.1-0.4,0.3,0.9,0.7,0.2c-0.7-0.6,1.1-1.5,0.7-1.2c-0.5-0.3-1.2,0.2-1.4-0.7      C59,70.5,60.4,68.6,61.6,70.3 M54.5,70.3c-0.1,0.3-0.5,0.3-0.7,0.5c0-0.3-0.1-0.6-0.2-0.2c0.2,0.3,0.3,0.6,0.2,1.2      c0.7,0.3,0.6-0.4,0.9-0.5c0,0.4,0.7,0.2,0.2,0c-0.5-0.5-0.5,0.1-0.9,0.2v-0.7c0.6-0.1,0.9,0,1.2,0.2c-0.4-0.7-0.8-1.4-1.2-2.1      c-0.1,0.3-0.3,0.5-0.7,0.5c0-0.4,0.9-1,0.2-1.2v0.5c-0.3,0-0.7,0-0.7,0.2c1,0,0,0.2,0,0.5c0.3,0,0.6,0.1,0.5,0.5      c-0.9-0.1-0.6-0.4-0.5,0.5c-0.2,0-0.3,0.2-0.5,0.2c-0.3-0.7-0.7-1.3-0.5-0.2c-0.2,0.1-0.5,0-0.5,0.2c0.8-0.2,0.3,0.8,0.9,0.7      c0.3-0.8,1.7-2.4,1.7-1.4c0-0.1,0-0.3,0.2-0.2C54,70.6,54.1,69.9,54.5,70.3 M77.9,68.1c0,0.1,0,0.3-0.2,0.2      c-0.1-0.3-0.5-0.3-0.7-0.5c0.2,1.2,0.1,1-0.5,1.7c0.4,0.1-0.1,0.4,0.2,0.5c-0.2-0.5,1.2,0.3,0.5-0.2c-0.3-0.1-0.4-0.3-0.5-0.5      c0.9,0.3,0.6-0.7,1.2-0.7c0,0.1,0.2,0.3,0.2,0c-0.1,0-0.3,0-0.2-0.2C78.1,68.4,78.2,68.2,77.9,68.1 M75.3,68.1      c-0.3,0.1-1.6,0.3-0.9,0.5c0.7-0.2,1.4-0.4,1.7-0.9c-0.8,0.8-1.1-0.8-1.7-0.2c0.8,0.1-0.8,0.6,0,0.7      C74.2,67.8,75.5,67.8,75.3,68.1 M61.8,68.4c0,0.2,0.2,0.3,0.2,0.5c-0.3-0.3-0.6-0.3-0.7,0.2c0.4,0,0.7-0.1,0.9-0.2      c-0.5-1.1,0.2-0.3,0.5-0.7c-0.4,0-0.1-0.7-0.5-0.7c-0.1,0.7-0.7,0.3-1.2,0.9c-0.6-0.3-0.7,0.1-0.9-0.2c0.5-0.4,0.3,0,0.9,0      c0.7-0.5,0-0.9,0.7-1.4c0.1,1,1-0.2,1.2,0.5c-0.1,0-0.3,0.2,0,0.2c0.2-0.4,0.3-0.7,0-0.9c-2,0.3-1.4-0.1-2.8-0.2      c0.1,1.6-0.5,1.2-1.2,1.4C59.9,68.4,60.5,69,61.8,68.4 M43.3,68.1c0.3,0,0.7,0,0.7-0.2c-0.2-0.1-0.5,0-0.5-0.2      c0.4-0.1-0.1-0.4,0.2-0.5c0.1,0.3,0.3,0.5,0.7,0.5c0-0.3,1.2-0.5,0.5-0.7c-0.9,0.8,0.2-1.2-0.2-0.5      C43.3,66.6,43.8,66.7,43.3,68.1 M75.6,66.2c0.9-0.1,1.2,0.5,1.7-0.2c-1,0.5-1.6-0.8-1.9-0.2C75.5,65.8,75.6,66,75.6,66.2       M55.4,66.2c0,0.1,0,0.3-0.2,0.2c-0.4-0.9,1-0.1,0.9-0.7c-0.6-0.2-1.1-0.3-1.7,0.2c0-0.1-0.2-0.3-0.2,0      C54.6,66.4,55.9,67,55.4,66.2 M80.1,65.5c0.8,0.1,0,0.6,0.5,0.7c0-0.5,0.6-0.3,0.5-0.9c-0.3,0-0.2-0.4-0.5-0.5      C80.5,65.2,80.2,65.2,80.1,65.5 M47.1,64.6c0.1,0.4-0.4,0.6,0,0.7c0-0.2,0.4-0.3,0.5,0c-0.1,0-0.3,0.2,0,0.2      c0-0.4,0.6-0.2,0.9-0.2v-0.7c-0.3,0-0.7,0-0.7,0.2c0.2,0.1,0.5,0,0.5,0.2C47.6,65.2,47.9,64.4,47.1,64.6 M56.4,65.3      c0.6,0.1,0.6-0.5,0.7-0.9c-0.6,0.1-1.1,0.5-1.4,0.9c0.6,0.3,0.7-0.9,0.9-0.2C56.5,65.1,56.3,65.1,56.4,65.3 M68.7,63.4      c-0.6,0.5-0.4-0.7-0.9,0.2c0-0.1,0-0.3-0.2-0.2c0.1,0.4-0.4,0.6,0,0.7C67.6,63.7,69.4,63.8,68.7,63.4 M81.5,63.9      c0.4-0.1,0.6,0.4,0.7,0c-0.1,0-0.3,0-0.2-0.2c0-0.2,0.2-0.3,0.2-0.5c-1,0.1,0.2-0.6-0.7-0.7C80.8,63.1,82.1,63.3,81.5,63.9       M49.5,62.9c-0.1,0.3-0.3,0.4-0.5,0.5c-0.3-0.6,0.1-0.7-0.2-0.9c0,1.3-1.1,0.4-0.7,0.7c0,0.3,0.4,0.5,0,0.7c0-0.1-0.2-0.3-0.2,0      c0.1,0,0.3,0,0.2,0.2h0.5c0.4-1.3,1.4,0,1.7-1.4c-0.4,0-0.8,0-0.7-0.5c0.4,0,0.9,0.1,0.9-0.2c-0.6,0.1-0.5-0.4-1.2-0.2      C49.2,62.3,49.3,62.6,49.5,62.9 M56.4,63.2c0.2-0.7,0.6-1.2,1.4-0.7c-0.6-1.1-1.7-0.4-2.1-1.4c-0.4,0.8,1.1,0.8,0.2,1.2      c0-0.1-0.2-0.3-0.2,0c0.3,0.3,0.7,0.1,0.9-0.2c-0.1,0-0.3-0.2,0-0.2c0.7,0.5-1.1,1.5-1.2,1.2c0.1,0,0.3-0.2,0-0.2      C55,63.5,55.6,63.3,56.4,63.2 M56.6,61c0.8,0.1,0.8,0.9,1.7,0.9c-0.1-0.5,0-0.9,0.2-1.2C57.5,60.8,57.2,60.4,56.6,61 M47.8,60.1      c-0.3,0.6,0.9,0.7,0.2,0.9c-0.1,0-0.3,0.2,0,0.2c0.5-0.4,0.6,0,1.2,0c-0.1-0.6-0.8-0.4-1.2-1.2c0.3,0,0.7,0,0.7-0.2      c-0.3,0-0.2-0.4-0.5-0.5C48.2,59.6,48.1,59.9,47.8,60.1 M46.2,59.4c-0.4,0-0.8,0.2-0.9,0.5c0.4,0,0.6,0.2,0.5,0.7      c0.4,0,0.9,0.1,0.9-0.2c-0.2-0.1-0.5,0-0.5-0.2c0.3,0,0.6-0.1,0.5-0.5C46,59.6,45.8,60.1,46.2,59.4 M72.7,59.6      c-0.4-0.1-0.2-0.7-0.9-0.5c0,0.4-0.1,0.7-0.2,0.9c0.8,0.3,0.2-0.8,0.9-0.5C72.5,59.7,72.7,59.9,72.7,59.6 M77.9,63.2      c0.8,0.2,0.4,1.3,0.7,0.9c0.3-0.8,1.8,1.1,1.4,0.2c-1-0.3-0.2-1.2-0.5-1.4c0,0.3-0.3,0.1-0.5,0c0,0.3,0,0.7-0.2,0.7      c-0.3-0.1-0.4-0.3-0.5-0.5c0.7,0.1,0.6-0.6,1.2-0.7c0.1,0.2,0.9,0.8,0.9,0.2c-0.4-0.1-0.2-0.5,0-0.7c-1.2-0.4,0.3-1.6,0.7-1.9      c0.3,0.4-0.2,1.4,0.2,0.9c-0.1-0.7,0.9-0.2,0.9-0.7c-0.4-0.2-1.1,0-0.5-0.7c0,0.1,0.2,0.3,0.2,0c-0.5-0.5-0.8,0-1.2,0.2      c0.4-0.4,0.2-1-0.2-1.2c-0.3,1.2-0.6,1-0.9,1.9c-0.6,0-0.7-0.4-1.2-0.5c-0.4,0.8-0.7,0.7-0.9,0C77.6,61,78,61.5,78.4,62      c0.1-0.6,0.7-0.6,0.2,0c0.6-0.3,0.7,0.1,0.9-0.2c-0.3-0.1-0.6-0.4-0.7-0.7c0.7,0.6,0.9-0.5,1.2,0C79.6,62.1,78.8,63,77.9,63.2       M79.6,59.4c-0.5-0.2-1.3,0.4-0.7,0.5c0.2-0.2,0.8-0.1,1.2-0.7c-0.6,0.2-0.5-0.5-0.9-0.5C79.1,59.1,79.5,59.1,79.6,59.4       M49.7,60.8c0.5,0.2,1.6-0.3,0.9-0.5c-0.7,0.7-0.4-0.5,0-0.7c-0.1-0.3-0.9,0-0.9-0.5c0.4-0.1,0-0.4-0.2-0.5      c-0.6,0.7,0.8,1.1,0.9,1.2C50,59.9,50,60.5,49.7,60.8 M64.4,59.1c0,0.3,0.1,0.5,0.2,0.7C64.3,59.6,63,60.6,63,61      c0.1-0.3,0.4-0.6,0.5-0.2C63.3,61,62.3,61.6,63,62c0-0.1,0.2-0.3,0.2,0c-0.2,0.4-2.3,0.2-1.4,0.9c0-0.3,0.3-0.4,0.5-0.5      c-0.2,0.6,0.5,0.5,0.5,0.9c-0.5,0.3-0.9,0.7-0.9,1.4c0.3,0.1,0.5,0.3,0.9,0.2c0-0.4,0.2-0.6,0.5-0.7c0.2,0,0.3,0.2,0.5,0.2      c-0.1-1.4-1.5,0.5-1.7-0.2c0.9-0.4,0.5-1,1.7-0.9c-0.4-0.2,0.1-0.4-0.2-0.9c0.5,0.1,0.5-0.3,0.7-0.5c-0.1,0.3-0.5,1.6,0,0.9      c0-0.4,0.2-0.8,0.5-0.9c0.3,0.5-0.1,1.2,0.2,0.7c0.1-0.3,0.2-0.5,0.9-0.7c0.4-0.8-0.1-1.9-0.7-1.4c0.1,0,0.3,0.2,0,0.2      c0-0.3-0.4-0.2-0.5-0.5c0.8-0.1,0.8-0.7,1.7-0.2c0-0.4-0.2-0.5-0.5-0.2c-0.3-0.6,0.5-1.4,0-1.4c-0.1,0.2-0.2,0.3-0.5,0.2      c0.2,0.7,0.2,1.5-0.5,0.9c1,0.1-0.1-0.5,0.2-1.2c-0.6,0.7-0.7,0.1-0.9-0.5C64.3,58.5,63.7,60,64.4,59.1 M73.9,59.8      c-0.1-1.1,0.3-0.5,0.5,0c0.4,0,0.8-0.2,0.9-0.5c-0.4,0-0.2-0.8-0.7-0.7c-0.1,0.4-0.3,0-0.7,0C73.8,58.8,73.4,59.8,73.9,59.8       M73.7,58.9c0.4-1.1,1.6,0.5,2.1-0.7C75.2,57.9,73.3,58,73.7,58.9 M58,58.4c-0.3,0-0.3-0.4-0.2-0.7c-0.7,0.3-0.6-0.4-0.9-0.5      C56.8,57.9,57.7,58.8,58,58.4 M82.7,57.5c0.2-0.7-0.5-0.4-0.9-0.5c0.2,1.2-0.9,0.6-0.9,0.9c0.6,0.6,0.7-0.3,1.4-0.2      c0,0.3-0.3,0.3-0.2,0.7c-0.3-0.1-0.4-0.3-0.7,0c-0.2,0.9,0.8,0.6,1.2,0.9c0.4-0.9-1-0.1-0.9-0.7c1.1,0.1,0.7-1.3,0.9-1.4      C82.5,57.4,82.5,57.5,82.7,57.5 M57.6,57c0-0.2-0.4-0.3-0.5,0c0.2,0.1,0.3,0.2,0.2,0.5c0.4,0,0.8-0.2,0.9-0.5      c-0.4-0.1,0.1-0.4-0.2-0.5C58,56.8,57.8,56.9,57.6,57 M59.2,57.5c0.6,0.2,0.5-0.5,0.7-0.7c-0.3,0-0.6-0.1-0.5-0.5      c-0.7-0.1-0.7,0.6-0.9,0.9C58.9,57.9,59.7,56.4,59.2,57.5 M85.5,56.8c0.3,0.1,0.5,0.3,0.7,0.5c-0.5,0.4-1.1,0.6-1.2,1.4      c0.7-0.3,0.9-1.2,1.4-1.7c-0.3-0.1-0.5-0.3-0.7-0.5c0.3,0,0.7,0,0.7-0.2c-0.3,0-0.5-0.1-0.7-0.2C85.8,56.4,85.7,56.6,85.5,56.8       M75.8,56.8c0.6-0.1-0.7,1.1,0,0.5c0.3,0,0.5-0.4,0.7,0c0.1,0.3-0.9,0.6-0.2,0.7c0-0.6,0.8-0.1,0.7,0.2c-0.8-0.2-0.4,0.5,0,0.5      c0.3-0.6-0.1-0.7,0.2-0.9c0.8,0.2,0.2,0.5,0,0.9c0.9-0.5,0.8-0.6,1.9-0.9c0.2,0.4,1.1,1.3,1.4,0.7c-0.8,0,0.5-0.8-0.2-0.7      c0,0.3-0.3,0.4-0.5,0.5c0-0.2,0.2-0.3,0.2-0.5c-0.2-0.1-0.5,0-0.5-0.2c0.3,0,0.6-0.1,0.2-0.2c-0.6,0.7-1,0-1.7,0.7      c-0.1-0.6-1-0.6-0.9-1.2C76.8,57.7,76.1,55.9,75.8,56.8 M73,56.3c0.4,0.7-0.9,1-0.2,1.2c0.7-0.2,0.5-1.3,1.7-0.9      c0,0.2-0.2,0.3-0.2,0.5c0.9-0.1,1.8,0,1.2-0.9C74.9,55.9,74,55.9,73,56.3 M75.3,55.8c0.6,0.1,1-0.1,0.9-0.7      c-0.3,0-0.7,0-0.7-0.2c0.1,0,0.3-0.2,0-0.2C75.2,55.2,75.1,55.1,75.3,55.8 M84.4,56c0.1-0.2,0.2-0.3,0.5-0.2      c-0.3-0.5,0.6-0.9,0-0.9c-0.2,1-0.2-1.2-0.5-0.2c-0.3,0.9-0.7,1.1,0.2,0.5C84.9,55.7,83.7,55.8,84.4,56 M53.8,55.3      c-0.1-0.3-1.2-0.3-0.5,0c0.3,0.3,0.8,0.2,0.7-0.5c-0.2-0.1-0.5,0-0.5-0.2c0.4,0.1,0.6-0.3,0.2-0.5      C53.3,54.7,53.3,54.8,53.8,55.3 M51.6,57c0.3-0.1,0.6,0.9,0.7,0.2c-0.1,0-0.3,0-0.2-0.2c0.1-0.8,0.6,0,0.7-0.5      c-0.3-0.1-0.6-0.4-0.7-0.7c1.6-0.1-0.3-0.1-0.2-0.7c0.4,0,0.7,0.1,0.9,0.2c0.3-0.7,0.1-0.9-0.5-1.2c0.1,0.5-0.7,0.3-0.7,0.7      c0.8,0.4-0.8,1.1-0.5,1.4c0.4,0.1,0.7-1.1,0.9-0.5C51.9,56.1,52.6,56.6,51.6,57 M66.1,54.4c0.5,0.1,0.1,1.1,0.7,0.5      c0.5,0.9-0.1,1-1.2,0.9c0.1-0.6-0.5-0.6-0.9-0.7c0,1.4,1,1.4-0.2,2.6c0.2,0,0.5,1,0.7,0.2c-0.2-0.1-0.3-0.2-0.2-0.5      c0.2,0,0.3-0.2,0.5-0.2c0,0.2,0.2,0.3,0.2,0.5c-0.2,0-0.3-0.2-0.5-0.2c0,0.4,0.2,0.8,0.5,0.9c0.1-0.8,1.1,0.4,0.9-0.2      c-0.3-0.4,0.6-0.6-0.2-0.7c0.3-0.1,0-0.9,0.5-0.9c0.3,0,0.3,0.3,0.7,0.2c0.3-0.7,0.1-0.9,0-1.9c1.2-0.3,0.3,0.7,0.7,0.7      c0-0.4,0.7-0.1,0.7-0.5c-1,0-0.7-0.8-0.9-0.9c-1,0.8-0.3,0.1-0.5-0.2C67.3,54.8,66.4,53.9,66.1,54.4 M80.6,53      c-0.4,0.2-0.5,0.8-0.9,0.9c0-0.1-0.2-0.3-0.2,0C79.9,54.6,81.1,53.2,80.6,53 M62.1,53.7c-1-0.3-0.9-0.6-0.2-1.2      c-0.4,0.1-0.5-0.3-0.9-0.2c0.3,0.7-1.1,0.9-0.5,1.2c0.2-0.6,0.8,0.5,0.2,0.7c0.6,0.2,0.5-0.5,0.9-0.5C61.6,53.9,62,54,62.1,53.7       M59.7,53.2c-0.8-0.2-0.7,0.4-0.9,0.7c0.6-0.7,1,0,1.4-0.2c-1.3-0.3,0.9-1,0-1.4c-0.3,0.9-0.6,0.1-0.9-0.2      C59,52.7,59.9,52.5,59.7,53.2 M54.2,51.8c-0.5-0.2-0.8,0-1.4-0.5c-0.2,0.5-0.9,0.5-0.9,1.2c0.6,0.1,1.3,0.1,1.7,0.5      c-0.4,0-0.6,0.2-0.7,0.5c0.3,0,0.7,1,0.9,0.2c-0.4,0-0.6-0.2-0.7-0.5c0.4-0.1,0.6,0.4,0.7,0c-0.6-1.3,0.8-1.3,1.4-1.4      c-0.8,0.2-0.4-0.9-0.9-0.9C54,51.3,54.9,51.6,54.2,51.8 M82.7,53.9c0.4,0.1,0.2,0.5,0,0.7c0.4,0,0.6,0.2,0.7,0.5      c-0.3,0-0.2,0.4-0.5,0.5c0-1.3-0.1-0.3-0.5,0c-0.2-0.7,0-1-0.2-1.2c0,0.3-0.4,0.2-0.5,0.5c0.6,0.5,0.5,1.5,1.2,1.9      c0.1-0.2,0-0.5,0.2-0.5c0,0.1,0,0.3,0.2,0.2c0.2-1.3,0.2-1.3-0.2-2.4c0.6-0.4,0.7,0.1,1.4-0.2c-0.7-1.1-0.5-1.9-1.4-2.4      c0.1,0.6-1.2,0.9-0.5,1.4c0.4-0.8,0.4,0.7,0.7,0.7c0-0.1,0.2-0.3,0.2,0C83.3,54.3,82.9,53.2,82.7,53.9 M82.7,51.1      c0.5,0.3-0.3,0.6,0.2,0.7c0.1-0.3,1.3-1.4,0.7-0.9c-0.6,0.2-0.8,0.3-1.2-0.2c0,1-0.5,0.2-0.7,0c0.2,0.7,0,1,0.2,1.2      C82.1,51.4,82.4,51.2,82.7,51.1 M62.8,51.3c-0.3,0-0.4-0.3-0.5-0.5c0.2-0.1,0.5,0,0.5-0.2h-0.7c0.3,0.8-1.3,1.4,0,1.7      C61.6,51,62.3,52.1,62.8,51.3 M75.6,51.1c0.6,0.2,0.5-0.5,0.9-0.5c0.8,1.1-0.6,1.7,0.2,2.4c-1-0.6-2-0.4-1.4,0.9      c-1-1-0.6,0.3,0.2,0.5c0-1.2,1-1,1.9-1.7c0.3-0.8-1.1-1.1-0.2-1.7c0.3,0.5,0.8,0.8,0.9,1.4c-0.4,0.7-0.9,1.3-0.9,0.5      c-0.1,0.9-0.2,1.3-1.2,1.7c0.5,0.3,0.9-0.1,1.2,0.7c-0.8,0.5,0-0.1-0.5-0.2c-0.6,0.6,0.6,0.6,0,1.2c0.3,0,0.5,0.1,0.7,0.2      c0-0.3,0.1-0.6,0.5-0.5c0.1-0.4-0.7-1.2,0-1.4c0,0.1,0.2,0.3,0.2,0c-0.3-0.1-0.4-0.4-0.7-0.5c0.4,0.6-0.8,0.7-0.7,0.2      c1.3-0.9,2.2-2.3,2.1-3.6c-1.1,0.8-2.8-0.4-2.6-0.9c0.2,0.5-1.2-0.3-0.5,0.2C77.2,50.5,75,50.9,75.6,51.1 M74.9,50.4      c0-0.4-0.2-0.5-0.5-0.2c0-0.3,0-0.7-0.2-0.7c-0.1,0.2-0.2,0.3-0.5,0.2c0-0.1-0.2-0.3-0.2,0C73.9,49.9,74.1,50.4,74.9,50.4       M61.4,49.4c0,0.3-0.1,0.5-0.2,0.7c0.4,0,0.7,0.1,0.9,0.2c-0.1-0.4,0.9-1.4,0.2-0.9C62.1,50.2,61.8,49.6,61.4,49.4 M63.2,49.2      c0.5,0,0.3,0.6,0.9,0.5c0.2-0.1,1-0.6,0.5-0.7C63.8,49.6,63.2,48.8,63.2,49.2 M50.4,48c0.3,0.1,0.4,0.3,0.5,0.5      c-0.4,0-0.9-0.1-0.9,0.2c0.4,0.4,1.1-0.1,1.4-0.5C50.7,47.7,50,48.1,50.4,48 M66.8,47c0,0.5-0.6,0.3-0.5,0.9      c0.3,0.7,1.6-0.8,0.9-0.2C66.2,48,67.6,47.1,66.8,47 M61.4,48.2c0.1-0.7,0.4,0.4,0.5,0.5c0.8-0.7,1,0.1,1.7-0.2      c-0.4-0.1,0.1-0.4-0.2-0.5c-0.5,0.3-0.7,0.1-1.4,0.5c0.2-0.4,0.2-1.6,0-1.2C62.1,47.7,60.7,47.7,61.4,48.2 M53.8,48.2      c0.7,0.1-0.8,1,0,1.2c0.1-0.3,0.3-0.5,0.5-0.7c0.3,0.1,0.4,0.3,0.5,0.5c-0.8,0.1-0.2,1,0.2,0.5c0.2,1,0.7,2.7,1.2,1.7      c0,0.2-0.4,0.3-0.5,0c1-0.2,0.7-1.1,1.2-0.7c-0.6-0.3,0.2-1.2-0.2-1.2c-0.1,0.3-0.3,0.1-0.5,0c-0.1,0.4,0.4,0.6,0,0.7      c-0.3-0.5-1.3-0.2-1.4-0.9c1.2-0.3,1.9,0.5,2.1-0.7c-1-0.2,0.2,0.5-0.5,0.5c-0.7-0.3,0.2-0.9,0.2-1.2c-0.5,0.1-0.5-0.3-0.7-0.5      c0,1.1-0.4-0.2-0.7-0.2c0.1,0.4-0.4,0.6,0,0.7c0.9-0.4-0.5,1,0.7,1.2c-0.6,0-0.7-0.4-1.2,0C54.5,48.7,54.1,47.5,53.8,48.2       M73.7,46.6c-0.1,0.3-0.3,0.1-0.5,0c-0.2,1-1.2,0.4-1.2,1.2c0-0.1,0-0.3-0.2-0.2c-0.2,0.7,0.5,0.4,0.9,0.5      C72.5,47.1,74.3,47,73.7,46.6 M53.1,46.6c0.2,0.1,0.5,0,0.5,0.2c-0.5,0,1.8,0.7,1.2,0.2c0-0.3-0.3-0.1-0.5,0      c0.3-0.8-0.8-0.2-0.5-0.9c0.3,0,0.5,0.4,0.7,0C54,45.3,52.5,47.1,53.1,46.6 M62.5,46.6c0.4,1.4,1.3-0.2,1.9,0      c-0.6-0.4-1.3-1.4-1.9-0.5c0.3,0.2,0.5,0.6,0.7,0.9C62.9,47,62.8,46.6,62.5,46.6 M55.7,46.1c0.6,0,0.1,0.8,0,0.9      c0.6,0,0.6-0.5,0.9-0.7C56.3,46.4,55.9,45.4,55.7,46.1 M57.1,46.8c-0.2-0.8,0.6-1.2-0.2-1.4c-0.1,0.2,0,0.5-0.2,0.5      c0-0.1-0.2-0.3-0.2,0C56.9,45.9,56.6,46.7,57.1,46.8 M76.8,45.8c0.7,0.7-0.4,0.8-0.5,1.4c0.8,0.1,0.7-0.7,1.2-0.9      c-0.5-0.2,0.7-1.1-0.2-1.4C77.6,46,77,45.9,76.8,45.8 M76.5,44.7c-0.2,0-0.3-0.2-0.5-0.2c-0.2,0.5,0.8,0.9,0.7,0.5      c-0.7,0,0.7-0.9,0-0.9c0,0.6-1.2-0.6-1.2,0C75.8,44.3,76.7,43.9,76.5,44.7 M65.9,43.2c-0.1,0-0.3,0-0.2-0.2h-0.5      c-0.9,1.2-0.7,0.4-0.2,1.9C65.3,44.1,65.1,43.9,65.9,43.2 M53.8,42.3c0.1-0.2,0.2-0.3,0.5-0.2c0,0.1,0.2,0.3,0.2,0      c-0.7-0.2,0.3-0.6-0.2-0.9c0.2-0.1,0.5,0,0.5-0.2c-0.7,0.2-1,0-1.2,0.2C54.3,41.2,53.2,42.4,53.8,42.3 M83.9,45.1      c0-0.3,0.4-0.2,0.5-0.5c-0.4,0-0.6-0.2-0.7-0.5c0-0.3,0.3-0.3,0.2-0.7c-0.9-0.2-0.2,1-0.7,1.2C83.6,44.6,83.6,45,83.9,45.1       M77.9,49.2c-0.1,0.3-0.3,0.5-0.5,0.7c0.4-1-1.6-0.8-0.7-0.2c0.8-0.8,0.3,1.3,0.5,0.7c1.3-0.8,0.4,0.5,1.4,0.5      c0-0.3,0.4-0.2,0.5-0.5c-0.9,0.3-0.8-0.6-0.5-0.9c-0.8,0.1-0.5-1.1-1.4-0.9C76.9,49.3,78,48.6,77.9,49.2 M79.6,43.5      c-0.5-0.3-0.5-0.3-0.2,0.2c-0.3-0.1-0.4-0.4-0.7-0.5c-0.6,0.3,0.4,0.7-0.2,0.9c0.2-0.4-0.5-1-0.5-0.5c0.3,0.3,0.3,0.9,0.9,0.9      c-0.2-1.2,0.9-0.6,0.9-0.9c-0.2,0-0.2-0.9,0-0.9c0.6-0.1,0.6,0.5,0.7,0.9c-1.2,0.7-0.7,1-1.9,1.7c0.3-0.7-0.9-0.8-0.2-0.5      c-0.3,0.7,0.4,0.6,0.5,0.9c0.1,0.5-0.1,0.9-0.5,0.9c0.4-0.5-0.3-1.5-0.5-1.2c0.4,0.4,0.6,0.8,0,1.2c-0.1-0.2,0-0.5-0.2-0.5      c0.1,1.4,1.1,0.1,1.4,0.5c-0.7-0.1-0.2,0.9-0.7,0.9c-0.1-0.3-0.4-0.6-0.5-0.2c0.3,0.1,0.6,0.4,0.2,0.5c-0.3,0-0.3-0.3-0.7-0.2      c0.2,0.5-1.2,0.5-0.5,0.7c0.3-0.2,1.1-1,0.9,0.2c0.6,0.1,0.5-0.4,1.2-0.2c-0.7-0.9,1.1-0.8,0-1.4c1.1-0.2,0.7,0.3,0.9,0.5      c0.1-0.6,0.7-1,1.2-0.5c0.2-0.9-1.2-0.2-0.5-0.9c-0.9,0-0.8-0.4-1.2,0.2c0-0.3-0.3-0.3-0.2-0.7c1.2,0.3,2,0,2.6,0.9      c-0.7-0.6,0.1-1.8-0.2-1.4c-0.3,0-0.2,0.4-0.5,0.5c-0.1-0.3-0.3-0.1-0.5,0c0.8-0.8-0.7-0.5-0.7-1.2c0.3,0.3,0.6,0.3,0.9,0      c0,0.3,0.1,0.6,0.5,0.5c0.1-0.4-0.4-0.6,0-0.7c0.6,1,0.3-0.3,1.2-0.2c-0.2,2.1-0.7,3-1.7,4.7c0.9,0,0.4-1.4,1.2-1.4      c-0.1,0.7-0.3,1.2-0.2,1.7c0-0.1,0.2-0.3,0.2,0c-0.3,0.7-0.7,0-1.2,0.7c0.1-0.8-1.5-1.2-1.7-1.4c0.5,0.5-0.3,0.7-0.2,1.4      c0.4,0.7,1-0.4,1.2,0.2c0,0.4-0.8,0.2-0.7,0.7c0.8,0.5-0.3,0.6,0.7,2.4c-0.2-1.2,1.4-0.9,0-1.4c0.2-0.9,0.8,0,1.2-0.5      c0.1-0.5,0-0.9-0.2-1.2c0.8-0.6,1.2,0,1.7-0.7c-0.9-0.6-0.3-1.4,0.2-1.2c-0.2-0.5-0.2-1-0.7-1.7c0.2,0,0.3-0.2,0.5-0.2      c0.3,0.1,0.4,0.3,0.5,0.5c-0.4,0.1-0.6-0.4-0.7,0c0.3,0.1,0.4,0.4,0.7,0.5c0.2-1.1-0.2-1.6-0.2-1.9c0.2,0.6-0.6-0.3,0-1.2      c-1-0.4-0.3-1.3-0.7-1.7c-0.1,0.4-1,1-1.2,0.5c0.4,0,0.8-0.2,0.9-0.5c-1.2-0.1-0.5-0.3-1.2-0.7c-0.3,0.1-0.1,0.3,0,0.5      c-0.3-0.5-0.6,0.3-0.7-0.2c0.3-0.2,0.4-0.5,0.5-0.9c-0.8-0.1,0,1-0.9,1.2c-0.4-0.6,0.6-0.8-0.2-0.9c-0.1-0.5,0.7-0.3,0.7-0.7      c-0.3-0.1-0.4-0.4-0.7-0.5c0,0.3,0,0.7-0.2,0.7c0-0.1-0.2-0.3-0.2,0C80,42.4,79.2,42.2,79.6,43.5 M67,39.9      c-0.4-0.2-0.5-0.6-0.2-0.9c-0.8-0.4-0.1,0.8-0.7,0.7c0-0.3-0.3-0.1-0.5,0c0.3,0.8,0.3,0.5,0.5,1.2c0.9-0.1,0.9-1,1.7-1.2      c0.1,1.1,1-0.4,0.5,0.2c-0.6-0.2-0.8-0.8-1.2-1.2c0,0.3-0.1,0.5-0.2,0.7c0.3,0,0.7,0,0.7,0.2C67.3,39.7,67.2,39.9,67,39.9       M86,38.5c-0.1-0.8-0.7,0.8-0.2,0c0.6,0.2,0.5,1.2,0.7,0.7c0.1,0,0.3,0,0.2-0.2c-0.8-0.2-0.2-0.5,0-0.9      C86.3,38,86.3,38.3,86,38.5 M65.9,38.5c-0.6-0.2-1.4,0.6-0.9,0.7c0.1-0.7,0.4,0.4,0.7,0.2c0.1-0.5-0.3-0.5-0.5-0.7h0.9      c0.2-0.4-0.5-1-0.5-0.5C65.8,38.3,65.9,38.3,65.9,38.5 M69.9,38c0.2,0,1.9,0.5,1.4,0.2c0-0.4-0.7-0.1-0.7-0.5      c0.7,0.1,0.4-0.6,0.2-0.7c-0.1,0.4-0.4-0.1-0.5,0.2C71.3,37.7,69.8,37.7,69.9,38 M68.9,37.1c-0.8,0-0.7,1.6-1.7,0.7      c-0.2,0.8,0.8,0.3,0.9,0.7c0-1.3,1.2-0.5,0.9-0.7C69.2,37.5,68.9,37.5,68.9,37.1c0.3-0.5,0.6,0.3,0.7-0.2      c-0.2-0.1-0.3-0.2-0.2-0.5c0.1,0,0.3-0.2,0-0.2c-0.1,0.3-0.3,0.5-0.5,0.7c0.4-0.7-1.2-0.8-0.5-0.5      C68.8,36.4,68.7,36.9,68.9,37.1 M89.1,36.4c-0.3-0.1-0.4-0.4-0.7-0.5c0.2,0.7-1.4,1.5-0.7,1.2c0.9-0.4,0.5,0.6,0.9,0.7      c0.7-0.4-0.4-1.2,0.2-1.4C88.9,36.5,89,36.6,89.1,36.4 M68.5,34.7c0.4-0.6-0.2-0.9,0.2-1.7c-0.3,0-1.3-0.4-0.7,0      C68.4,33.8,67.5,33.9,68.5,34.7 M70.4,33c0.4,0.1-0.1,0.4,0.2,0.5c0.8-0.8-0.1,0.8,0.7,0.9c-0.1-0.8,1.5-2,0.9-1.7      C71.6,33.2,70.8,32.7,70.4,33 M73.7,30.2c-0.5-0.5-0.9,0.3-1.4,0.5c-0.1-0.2,0-0.5-0.2-0.5c-0.1,0.5,0.1,0.9,0.5,0.9      c0.6-0.3,0.6-0.4,0.7-0.7C73.3,30.8,73.6,30.5,73.7,30.2 M72.5,28.3c-0.6-0.6-1.1,0.5-0.7,0c0.7,0.1-0.6,1.2,0.2,1.4      c0.1-0.2,0-0.5,0.2-0.5c0,0.1,0.2,0.3,0.2,0c-0.6-0.2,0-0.7,0.2-0.2c-0.8-0.9,0.9-0.8,0.2-1.4c-0.5,0.6-0.9-0.9-0.9-0.9      C71.4,27.3,72.5,27.5,72.5,28.3 M76.3,26.4c-0.1,0-0.3,0-0.2-0.2c0.5-0.1,0.5,0.3,0.7,0.5c0.2-0.4,0.8-0.7,0-0.9      C76.7,26,75.2,26.4,76.3,26.4 M75.3,24c0,0.3-0.4,0.2-0.5,0.5c0.5,0.5,0.2,0.5,0.7,0c0,0.1,0,0.3,0.2,0.2      c-0.1-0.4-0.3-1.7-0.7-0.9C75.2,23.8,75.4,23.8,75.3,24 M71.3,22.6c0.2-0.6-1.4-0.1-0.5,0c0.6,0.1,1,0.3,1.4,0.5      c0.1-0.4-0.4-0.6,0-0.7c0,0.8,2.1,0.9,1.4,0.2c-0.1,0.5-0.4-0.3-0.7,0.2c0.1-0.8-0.9-0.3-0.2-0.9c-0.5-0.3-0.9,0.6-0.9,0      c0.1,0,0.3-0.2,0-0.2C71.5,21.8,71.7,22.6,71.3,22.6 M74.9,13.8c0.1-0.4,0.3,0,0.7,0v-0.5c0-0.1,0-0.3-0.2-0.2      c-0.1,0.8-0.6-0.8-0.7,0C75.4,13.1,74,13.8,74.9,13.8 M59.7,42.1c-0.2,0.8-0.8-0.1-1.2,0.7c0.3,0.3,1.1,0.3,1.4,0      c0.2,0.4-0.7,0.8,0,0.9c-0.1-0.5,0.3-0.5,0.5-0.7c-0.3-0.1-0.6-0.4-0.7-0.7C59.8,42.3,60,42.1,59.7,42.1 M54.7,35.9      c0.5,0.1,1.2-0.9,0.5-1.2c-0.1,0.2-0.2,0.3-0.5,0.2c0,0.3,0.1,0.5,0.2,0.7C54.5,35.5,54.4,36.6,54.7,35.9 M49.3,53.7      c-0.7-0.2-0.3-0.4,0-0.7c-0.7,0.1-0.5-0.7-1.4-0.5C48,53.1,49,54,49.3,53.7 M39.3,75c0.6,1.8,0.4,0.8,0.7-0.5      c-1-0.2-1,0.6-0.2,0.2C39.5,74.8,39.5,75,39.3,75 M49.5,86.2c0.4,0.1,0-0.9-0.2-0.9c-0.3,0.7-1.1-0.5-1.2,0.5      C49.2,85.4,49.5,86.6,49.5,86.2 M75.8,61.7c0.4-0.4,2.1,0.4,1.4-0.7c-1.1,0.9-1-0.8-0.9-0.5c-0.4,0.6-1.3-0.7-1.7,0      c0.1,0,0.3,0,0.2,0.2c-0.2,0.1-0.5,0-0.5,0.2c0.5,0.2,1,0.4,1.4-0.2C76.5,61.2,75.2,61.5,75.8,61.7 M84.8,40.6      c-1-0.6,0.4-1,0-1.4c-0.3,0.9,0-0.7-0.5-0.5c-0.1,0.4-0.4-0.1-0.5,0.2c0.7,0.2,0.4,0.7,0,0.9c1,0.4-0.5,1.2,0.5,1.9      c-0.7-0.1-0.9,0.8-0.2,0.2c-0.1,0.5-0.6,0.5-0.7,0.9c0.5,0.3,1,0.2,1.2,0c-0.3-0.1-0.5-0.3-0.7-0.5c0.5-0.3,0.9,0.6,0.9,0      c-0.9-0.3-0.1-1.1,0.2-0.2v-0.7C84.1,41.8,83.8,40.5,84.8,40.6c-0.5,1.2,0.1-0.2,0.5,0.7c0.7-1,1.2,0.5,1.9-0.2      C86.1,40.9,86.1,40.2,84.8,40.6 M67.3,51.3c-0.4,0-0.6,0.2-0.7,0.5c1.2,0.2,0.6-0.9,0.9-0.9c0.3,0.7,0,1.6,0.7,2.4      c-0.6-0.5-1.1-1.1-1.9-1.4c0.2,1-0.5-0.2-0.5,0.5c1,0.4,0,0.7-0.2,1.2c0.4,0.1-0.1,0.4,0.2,0.5c0.4-1.1,1.2,0.6,1.2-0.5      c-0.1-0.5-0.6,0.4-0.7-0.5h0.9v0.7c0.4,0,0.7,0.1,0.9,0.2c0.5-0.7,1.1-1.7,1.4-1.9c-0.7-0.2,0.2-0.5,0-0.9      c-1.1-0.2-0.1-0.8,0-0.7c-0.3-0.1-0.1-0.3,0-0.5c-0.4,0-0.7-0.1-0.9-0.2c-0.1,0.7,0.6,1-0.2,1.2c-0.7,0.2-0.6-0.3-1.2-0.2      C67.2,50.9,67,51,67.3,51.3 M71.3,42.5c0.6,0.6-1,1.7,0,2.4c-1.5-0.9-0.9,2.2-1.9,0.7c0,0.4,0.2,0.8,0.5,0.9      c0.1-0.4,0.4,0,0.5,0.2c-0.6,0.2-1-1-1.7-0.5c0.4,0,0.2,0.6,0.2,0.9c-0.3,0.1-0.5,0.3-0.5,0.7c0.8,0.1,0.5-0.9,1.2-0.9      c0,0.2,0.2,0.3,0.2,0.5c-0.3-0.1-0.4-0.3-0.7,0c-0.4,1,1.1,1.3,0,1.7c0-1.3-0.1-0.3-0.5,0c-0.1-0.3-0.4-0.6-0.5-0.2      c0.2,0.6,1.8,1,2.1,0.7c-0.3-0.1,0.2-0.9-0.2-1.4c0.9,0.4,0.6-0.5,1.4-0.5c-0.2-0.1-0.3-0.2-0.2-0.5c-0.5-0.1-0.5,0.3-0.7,0.5      c0.2-0.8-0.1-1,0.7-1.4c0.1,0.3,0.5,0.3,0.7,0.5c-0.1-0.4,0.4-0.6,0-0.7c0.1,0.5-0.7-0.7-0.2-0.9c0.4,0,0.1,0.7,0.5,0.7      c-0.1-0.5,0.3-0.5,0.5-0.7c-0.3-0.1-0.1-0.3,0-0.5c-0.2-0.3-0.9-0.1-0.7-0.7c0.3,0,0.4,0.3,0.5,0c-0.3,0-0.1-0.3,0-0.5      C71.7,43.3,71.3,42.1,71.3,42.5 M73.9,31.4c0.3-0.1,0.4-0.4,0.7-0.5c0,0.6-0.5,0.7,0.2,0.9c0.1-0.5,0.6-0.5,0.7-0.9      c-0.5-0.5-1.2-0.5-1.4-0.2C75.1,30.9,73.1,31.2,73.9,31.4 M45.2,56.3c-0.1,0.7,1.8,1.5,1.2,1.2c0-0.9,0.2-0.1,0.7-0.2      c-0.1-0.7-1.2-0.9-0.5-1.7c-0.3,0-0.5-0.1-0.7-0.2C46.3,56.1,46.1,56.7,45.2,56.3 M12.5,90.9c0-0.3,0.4-0.2,0.5-0.5      c-0.9-1-1.6-0.2-2.6-0.5c0,0.4,0.2,0.5,0.5,0.2c0.1,0.5,1.1,0,1.7,0C12.6,90.6,12.2,90.8,12.5,90.9 M25.5,87.3      c-0.7,0-1.3,0-1.2,0.7h0.5c0.1,0,0.3,0,0.2-0.2C24.4,87.4,25.6,88.1,25.5,87.3 M10.8,87.1c0.3,0.6-0.1,0.7,0.2,0.9      c-0.1-0.5,0.7,0,0.7,0.2c-0.4,0-0.5,0.2-0.2,0.5c-0.6-0.2-1.1,0.9-0.7,0.9c0.7-0.5,1-1.4,1.7-1.9C11,88.2,12.4,86.6,10.8,87.1       M10.6,86.4c0.1-0.2,0-0.5,0.2-0.5c0.3,0.7-0.4,0.6-0.5,0.9c0.4,0,0.8-0.2,0.9-0.5c-0.5-0.8-0.5-1.3-1.4-1.2      C10.5,85.3,10.1,86.2,10.6,86.4 M11.3,85c0.2,0.1,0.3,0.2,0.2,0.5c-0.1,0-0.3,0.2,0,0.2c0.2-1.9,2.2,0.5,1.7,0      c0.1-0.2,0-0.5,0.2-0.5c0.2,0.3,0.2,0.9,0.7,0.9c-0.6-0.9-0.3-1.8-1.2-0.9c0.1-0.7-0.1-0.8-0.5-0.5c0.8-0.4-0.6-1.3,0-0.7      C12.6,85.1,11.4,84.7,11.3,85 M26.3,84.5c0.4,0,0.1-0.7,0.5-0.7c0.5-0.1,0.5,1.3,0.9,0.5c-0.3,0-0.4-0.3-0.5-0.5      c0.3,0,0.5-0.1,0.7-0.2c0,0.3,0,0.7,0.2,0.7c0-0.3,0.1-0.5,0.2-0.7c-0.2-0.1-0.5,0-0.5-0.2c-0.8,0.8-1.6-0.3-1.7,0.2      C26.8,83.4,25.7,85.3,26.3,84.5 M33.6,80.9c0.1-0.5,0.7-0.4,0.5-1.2c-0.9-0.1-0.8,0.8-1.4,0.9c0.5,0.3,0.9-0.6,0.9,0      C33.5,80.7,33.3,80.9,33.6,80.9 M15.4,80.7c0.3-0.5-0.1-0.9,0.5-1.4c-0.1,0-0.3,0-0.2-0.2c-0.4-0.1-0.6,0.3-0.2,0.5      c0-0.1,0.2-0.3,0.2,0C15.1,79.7,14.6,80.6,15.4,80.7 M12.3,79.5c0.6,0.7,2.4-1.4,1.7-1.2C13.5,79.3,12.6,78.8,12.3,79.5       M14.4,77.1c0.2,0.4,0.1,1.2,0.5,1.4c0.1-0.4,0.4,0.1,0.5-0.2C14.9,78,15.1,77.2,14.4,77.1 M11.3,77.4c0.4,0.3,1.7-0.2,1.9-0.2      c-0.3,0-0.2-0.4-0.5-0.5c0,1-0.7,0.1-0.9,0C11.7,77,11.4,77.1,11.3,77.4 M18.2,76.7c0-0.2-0.4-0.3-0.5,0      c0.2,0.1,0.3,0.2,0.2,0.5c-0.1,0-0.3,0-0.2,0.2c0.5,0.1,0.5-0.3,0.7-0.5c0,0.1,0.2,0.3,0.2,0c-0.7-0.2,0.7-0.2,0.5-0.7      C18.5,76,18.7,76.7,18.2,76.7 M15.4,76.2c-0.3-0.1-0.6-0.4-0.2-0.5c0.2,0.6,1.1,0,1.2-0.2c-0.7-0.1-0.9,0.5-1.4,0      C14.4,75.7,15.1,76.9,15.4,76.2 M22.5,76.4c0.8-1.2-0.8-0.5-0.9-1.2c0.1,0,0.3-0.2,0-0.2C21,75.6,22,76.1,22.5,76.4 M12,75.5      c-0.3,0.6,0.4-0.6,0.9,0c0.2-0.8-0.6-0.5-0.7-0.9c0.1,0,0.3-0.2,0-0.2c-0.1,0.2-0.9,0.8-0.9,0.2c0.1,0,0.3-0.2,0-0.2      C10.8,75,11.8,75.5,12,75.5 M21,75.2c0.6-0.3-0.4-0.7,0.2-0.9c0.8,0.5,0.9,0.3,0.9,0.9c0.1-0.6,1-0.1,1.2,0      c-0.2-0.7-1.1-0.8-1.4-1.4c-0.3,1.2-2.1-0.6-1.9,0C21.1,73.9,20.8,75.6,21,75.2 M16.1,75c-0.7,0,1.1-1.4-0.2-1.4      C16.3,74.2,15.1,75.4,16.1,75 M27.9,81.9c0.2-0.6,0.7-0.1,0.2,0.2c0.8-0.3,0.2,0.8,0.9,0.5c0-0.7-0.6-0.8-0.7-1.4      c0.2,0,0.3-0.2,0.5-0.2c0.1,0.2,0,0.5,0.2,0.5c-0.1-0.4,0.4-0.6,0-0.7c0,0.1,0,0.3-0.2,0.2c0-0.4,0.4-1,0-0.5      C28.8,81,27.2,81.3,27.9,81.9 M30.1,75c-1.4-0.2,0,0.9-0.9,0.9c0-1.4-1.7,1.1-1.2,1.4c0.2,0,0.9,0,1.2,0      c-0.6,0.2-0.6,0.8-1.2,0.9c-0.1-0.3-0.3-0.4-0.5-0.5c0,0.1,0,0.3-0.2,0.2c0,1,0.2,0,0.5,0c0,0.9-0.5,0.7-0.7,0.9      c0.5-0.2,0.5,1.2,0.7,0.5c-0.5-0.5,0.3-0.9,0.7-1.2c0.2,0.7,0.7,2.1-0.2,1.4c0.9,0.2,0.1-0.9-0.2-0.9c0.2,0.8-0.4,0.9-0.2,1.7      c-0.9,0.5-1.2,0.6-1.7,0.5c0.4,0.1-0.1,0.4,0.2,0.5c0.1-0.4,0.3,0.1,0.5,0.2c0-1,0.2,0,0.5,0c1.5-1.1,2.3-2.1,2.4-2.8      c-0.4,0.1-0.6-0.3-0.2-0.5c0.1,0.4,0.3-0.7,0.9-0.9c-0.3-0.1-0.1-0.3,0-0.5c-0.6,0-0.7,0.5-0.9-0.2c0.1-0.3,0.3-0.4,0.5-0.5      c0.1,1.4,0.5-1,0.9-0.5c-0.4-0.9-0.6-1.4,0-2.1c-0.1,0-0.3,0-0.2-0.2h-0.5C31,73.9,29.5,73.9,30.1,75 M22,73.4      c-0.3-0.1-0.6-0.3-0.2,0c0.6,0.2,1.1,0.6,1.9,0.2c-0.9-0.3,0.7,0,0.5-0.5c-0.3,0-0.2-0.4-0.5-0.5c-0.5,0.7-0.7,0.6-1.4,0.2      C22.2,73.1,22.2,73.3,22,73.4 M13.9,72.9c0.4,0.2-0.6,0.9,0,1.2c0.4-0.6,1.8-0.4,0.5-0.9c0.7,0.2,0.5-0.7,1.2-0.5      c0.1,0.4-0.4,0.6,0,0.7c0.1-0.3,0.3-0.5,0.2-0.9C14.8,72.7,14.7,72.6,13.9,72.9 M31.5,73.1c-0.5-0.5-0.7-0.8-0.9-1.4      c0,0.5-1.1-0.1-0.5-0.5c-0.6,0.5-1.1-0.4-1.7,0.2C29.7,71.2,29.8,73.2,31.5,73.1 M23.2,71c-1.3,0.2-0.8,1-0.2,0.9      c0.2,0.5-1.2,0.5-0.5,0.7c0.3-0.5,0.6,0.3,0.7-0.2c-0.9-0.6,1.3,0.3,0.5-0.2c-0.4-0.1,0.1-0.4-0.2-0.5c-0.3,0.4,0.1-0.7-0.5-0.5      C23.1,71.2,23.2,71.2,23.2,71 M14.4,70.5c-0.3,0.2-0.1,0.9-0.7,0.7c0-0.3,0.3-0.4,0-0.5c0.1,0.3-0.9,0.6-0.2,0.7      c0-0.5,0.9,0.2,1.2,0.2c0-0.3,0.1-0.5,0.2-0.7c-0.2-0.1-0.5,0-0.5-0.2c0.5,0.1,0.9-0.1,0.9-0.5c-0.3-0.1-0.6-0.3-0.2,0      C15.1,70.5,14.7,70.5,14.4,70.5 M36.9,71.2c0.5,0.2,1.5-0.2,0.7-0.5c0,0.1,0,0.3-0.2,0.2c-0.3-0.7,0.8-1.2,0.2-1.4      c-0.2,0.4-1.1-0.2-1.2,0.2C36.3,70.3,37.4,70.3,36.9,71.2 M17.5,69.8c0.3,0,0.5-0.1,0.7-0.2v0.7c-0.3-0.3-0.7-0.1-0.9,0.2      c1,0.4,1-0.4,1.7,0c-0.6-1.3-0.7-1.6-1.7-1.2C17.4,69.4,17.5,69.5,17.5,69.8 M30.8,68.6c-0.3,0-0.1-0.3,0-0.5      C30,68,30,68.6,29.6,68.8c0.3,0,0.2,0.4,0.5,0.5c0-0.4,0-0.8,0.5-0.7C30.5,68.7,30.7,68.9,30.8,68.6 M23.4,70      c0.5-0.1,0.5,0.3,0.7,0.5c0.7-0.2,0.6-0.1,0.7-0.7c0,0.3,0.9,0.9,0.9,0.5c-0.2-0.4-1-0.5-0.5-0.9c-0.5-0.3-0.9,0.6-0.9,0      c0.5-0.1,0.5-0.6,0.9-0.7c0.1,0.3,0.5,0.3,0.7,0.5c0-0.3,0.8-0.9,0.2-0.9c-0.1,0.7-0.4-0.4-0.7-0.2c-0.3,0.8,0.8,0.2,0.5,0.9      c-0.5,0-0.3-0.6-0.9-0.5C24.5,69.2,23.6,70.1,23.4,70 M18.7,68.1c-0.4-0.1,0-0.4,0.2-0.5c0.5,0.6,0.5,1,1.2,0.2      c-1.4-0.2-0.2-0.5-0.7-1.2C18.2,68.5,15.9,67.7,18.7,68.1 M19.1,66.2c-0.1,0.7-0.4-0.4-0.7-0.2c0.3,0.6-0.9,0.7-0.2,0.9      c0.1-0.3,0.5-0.3,0.7-0.5C18.2,67.9,19.7,66.5,19.1,66.2 M19.9,65.8c0.2-0.6,1,0.5,0.9-0.7c-0.5,0.3-0.9-0.6-0.9,0      C20.7,65.1,19,65.7,19.9,65.8 M25.3,64.1c-0.2,0.5-0.6,0.6-1.2,0.7c-0.6-0.1-0.2-1-0.5-0.5c-0.5,0.2,0.4,0.8,0.7,0.9      c0.6-1.2,2-0.3,2.4-0.5c-0.2-0.1-0.3-0.2-0.2-0.5C25.8,64.5,24.3,63.8,25.3,64.1 M19.9,63.9c0-0.1-0.2-0.3-0.2,0      c0.3-0.1,0.6,0.9,0.7,0.2c-0.4,0.4,2.4-1.4,0.9-1.2c0.6,0.1-0.3,0.6-0.5,0.7c0.3-0.5,0.2-1,0-1.2c-0.6,0.4-0.2,1-0.5,1.2      c-0.1-0.3-0.4-0.6-0.5-0.2C20.1,63.4,20.2,63.8,19.9,63.9 M40.5,61.7c-0.1,1.3-0.9,1.9-1.4,2.8c0.8-0.3,1.1-1.4,1.9-1.4      C40.5,62.7,40.9,62.9,40.5,61.7 M38.1,62c0-0.4-0.7-0.2-0.2,0c0.7,0.5,1.2-0.9,1.9-1.2C38.9,60.8,38.8,61.7,38.1,62 M27.4,61.3      c0.2-0.3,0.7,0.2,0.9-0.5c0.7,0.4-0.6,0.7,0,0.9c0.1-0.5,1.3-0.2,1.4,0c-0.1-0.4,0.4-0.6,0-0.7c-0.5,0.4-1.6,0.1-0.7-0.7      C28.6,61,26.9,60.1,27.4,61.3 M24.8,61.3c-0.3,0-1.3-0.4-0.7,0c0.1,0,0.3,0,0.2,0.2c0,0.3-0.3,0.4,0,0.5c0-0.3,0.3-0.1,0.5,0      c0.3-0.8,0.3,0,0.5-0.9C23.5,60.1,23.1,60,24.8,61.3 M33.4,63.2c0,0.2,0.2,0.3,0.2,0.5c-0.8,0.1,0,0.6-0.5,0.7      c-0.1-0.4-0.4,0.1-0.5-0.2c0.7-0.6-0.5,0.4-0.5-0.2c0-0.3,0.4-0.2,0.5-0.5c-0.6,0.2-0.5-0.5-0.9-0.5c0.4,0.8,0.2,1.2,0.9,1.9      c-0.2,0-0.3,0.2-0.5,0.2c0-0.2-0.8-0.7-0.7-0.2c0.7-0.1-0.6,0.9,0.2,0.9c0.5-0.3-0.3-0.6,0.2-0.7c0.7,0.3,0.1,0.5,0.5,1.2      c-1,0.7-1.5-0.1-1.2,1.9c0.3-0.1,0-0.9,0.5-0.9c0.9,0.3-0.1,1,0.7,1.2c0.1-0.4,1.4-0.8,0.7-1.2c-0.2,0.4-0.5,0.7-0.9,0.9      c0.6-1.3,0.3-1.2,1.9-2.1c-0.4-0.1,0.1-0.4-0.2-0.5c-0.1,0.3-0.3,0.5-0.5,0.7c0.6-1.5-0.2-1,1.2-2.4c-0.2,0.4-0.3,1.4,0.2,0.7      c-0.5-0.6,0.7-1.2-0.5-1.7c0.2,0,0.3-0.2,0.5-0.2c0.5-0.2,0.5,1.2,0.7,0.5c-0.6-0.2,0.7-1.4,0-0.9c0,0.3-0.3,0.4-0.5,0.5      c-0.1-1.5-1.6-1.5,0-2.4c-0.4-0.2-1.1,0-0.5-0.7c0,0.1,0.2,0.3,0.2,0c-0.5-0.5-0.8,0-1.2,0.2c-0.1-0.4,0.4-0.6,0-0.7      c-0.9,0.5-0.6,0.7-1.2,1.4c-0.4,0-0.7-0.1-0.9-0.2c0,0.4-0.2,0.6-0.7,0.5c0,0.6-0.5,0.7,0.2,0.9c0.5-1.4,1.4-0.5,2.4-0.9      c-1,1.1,0.2,0.5,0.9,0.9c-0.2,0.7-0.9,0.1-0.9,0.5c0.3,0.6,0.9-0.3,0.9,0.2c-1,0.3,0.5,1.9-0.7,1.4c0-0.3,0.4-0.2,0.5-0.5      c-1.4-0.4-0.8-1.4-1.7-2.1c0.2,0.9-1,1.1,0,1.4c0.1-0.2,0-0.5,0.2-0.5C32.9,63,32.8,63.5,33.4,63.2 M41.2,58.9      c0.1,0.5-0.4,1.3,0,0.7c0.4-0.7,0.5-0.8,1.2-0.5C42.4,58,41.7,58.6,41.2,58.9 M22.5,58.7c-0.3,0-0.2-0.4-0.5-0.5      c0,0.3-0.4,0.3-0.7,0.2c0.1,0.5-0.1,0.9-0.5,0.9c0.3-1-0.9,0.3-1.2,0.2c0.4,0.1,0.5,0.4,0.5,0.9c0.4,0,0.8-0.2,0.9-0.5      c-0.5,0.1-0.9-0.1-0.9-0.5c1.5-0.2,3.3,0.4,3.8-1.2c-0.8-0.3-0.2,0.8-0.9,0.5c0.5-0.5-0.1-0.3-0.2-0.7c0.3-0.1,0.5-0.3,0.7-0.5      C22.2,57.5,22.8,58.6,22.5,58.7 M21.8,57.9c-0.6-0.6-0.8-0.1-1.4-0.7c0.3,0.5-0.6,0.9,0,0.9C20.5,57,21.4,58.7,21.8,57.9       M36.2,59.1c0-1.1,0.4,0,0.5-1.2H36C35.9,58.5,35.7,58.8,36.2,59.1 M35.3,57.5c0.2-0.7-0.5-0.4-0.9-0.5c0.2,1.2-0.9,0.6-0.9,0.9      c0.6,0.6,0.7-0.3,1.4-0.2c-0.5,0.5,0.1,0.5,0.2,0.9c-0.1,0.1-0.9,0.6-0.9,0c0.2-0.1,0.5,0,0.5-0.2c-0.4,0-0.6,0.2-0.7,0.5      c0.7,0.4,1.2,0.6,1.4-0.2c-0.2,1.2,0,1.7,0.2,2.1c0.8-0.8,0-1.3-0.2-2.4c0.3-0.2,1.2-0.8,0.7-0.9c-0.4,0.2-0.5,0.8-0.9,0.9      c0.3-0.6-0.5-1.2,0-1.2C35,57.4,35.1,57.5,35.3,57.5 M29.1,57.2c0.4,0.5,0.2,1.5,0.5,1.2c0-0.4,0.5-1.3,0.2-1.7      C29.8,57.1,29.3,57,29.1,57.2 M37.9,56.8c0.1-0.5,0.7,0.3,0.9,0.5c-1.1,0.6-1.1,1.4-1.9,1.4c1,0.5,1.5-1.1,2.1-1.7      c-0.9-0.3-0.6-0.3,0-0.7c-0.3,0-0.5-0.1-0.7-0.2C38.7,56.9,37,55.9,37.9,56.8 M22,57c0.3,0,0.6,0.1,0.5,0.5h0.5      c0-0.2,0.2-0.3,0.2-0.5c-0.7,0-0.7-0.3-1.2-0.9C22,56.7,22.4,56.5,22,57 M25.5,55.6c-0.5,0-0.3-0.6-0.9-0.5      c-0.2,0.4-0.9,1.2,0,1.4c-0.1-0.5,0.3-0.5,0.5-0.7c-0.2-0.1-0.5,0-0.5-0.2C25.1,55.2,25.5,56.2,25.5,55.6 M20.8,55.3      c1.1-0.1-0.3,1.5,0.2,0.9c0.2,0,0.3-0.2,0.5-0.2c0,0.3,0.1,0.6,0.2,0.2c-1-0.5,0.4-1.3,0-1.7c0,0.1,0,0.3-0.2,0.2      c0-0.1-0.2-0.3-0.2,0C21.9,54.8,19.8,55.7,20.8,55.3 M36.7,54.9c0-0.1,0-0.3,0.2-0.2c-0.5,1.3-0.4,0.5,0.2,0.7      c-0.4,1.2-1.4,1.4-1.4,2.1c0.6-0.6,1-0.4,1.2-0.5c-0.5-0.5,0.1-0.3,0.2-0.7c-0.2-0.1-0.5,0-0.5-0.2c0.3,0,0.3-0.3,0.7-0.2      c-0.3-0.5,0.6-0.9,0-0.9c-0.1,0.4-0.3,0-0.2-0.5h-0.5C36.7,54.6,36.3,54.8,36.7,54.9 M35.5,55.6c0-0.3-0.1-0.9-0.2-0.5      c0,0.3-0.1,0.6-0.5,0.5c0.2,1.2-0.1,0.7,1.2,0.9c0.4-1-0.2-2.3-0.2-1.9C36.1,54.9,35.9,55.3,35.5,55.6 M29.3,55.8      c0.6-0.3,1,0.7,1.2,0h-0.5c0.4-0.5,0-0.3,0-0.9c0.3-0.5,0.6,0.3,0.7-0.2C30,54,29.8,55.4,29.3,55.8 M20.1,56      c0.4-0.4-0.1-0.7-0.2-1.2c0.3-0.6,0.7,0.4,0.9-0.2c-0.4-0.2-1.6-0.2-1.2,0C20.2,54.8,18.7,56.2,20.1,56 M37.4,54.6      c1.3-0.1-0.2,1.3,1.2,1.2c0-0.4-0.2-0.5-0.5-0.2c0.6-0.7-0.5-0.9,0-1.2c1.4,1.3,1.1,1.2,0.2-0.5c0.1,0,0.3-0.2,0-0.2      C38.3,54.3,37.4,54,37.4,54.6 M40.2,54.1c-0.1,0-0.3,0.2,0,0.2c0.2-0.7,0.9-0.1,0.9-0.5c-0.3,0.1-0.6-0.9-0.7-0.2      c0.1,0,0.3,0,0.2,0.2c-0.6,0.2-1-1-1.4-0.2C39.8,53.6,40.2,53.7,40.2,54.1 M32.9,53c0-0.5,1.1-1.7,0.5-1.2      c-0.2,1.1-1.1-0.7-0.7,0C32.8,52.1,32.4,53,32.9,53 M42.1,51.8c-0.3,0-0.5-0.1-0.7-0.2c-0.2,0.8,0.8,0.4,0.9,0.2      c0.1,0.4-0.4,0.6,0,0.7c0.1,0,1-0.5,0.5-0.2c-0.3-0.1-0.7-1.3-0.9-0.7C42.1,51.6,42.2,51.6,42.1,51.8 M35.7,53.9      c0-0.2-0.4-0.3-0.5,0c0.7,0.3,1.1,0.1,1.9,0c0-0.4-0.2-0.8-0.5-0.9C36.3,53.2,36.2,53.7,35.7,53.9 M36,52      c-0.5-0.1-1.3,0.7-0.7,0.9c0-0.3,0.6-0.2,0.5,0.2c0.6,0.2,1.5-1,0.9-0.5C35.9,53,35.7,52.8,36,52 M35.5,51.8      c0.1-0.8,0.7,0.9,0.9,0c-1.5,0,0.4-1.4-0.2-0.9C35.5,50.8,35.1,51.3,35.5,51.8 M32.7,50.8c0.6,0.9,1.9-0.1,1.2-0.5      C33.5,51,32.7,50.5,32.7,50.8 M41.4,50.4c-0.7-0.1,0.4-0.4,0.2-0.7c-0.3-0.1-0.4-0.4-0.7-0.5C40.2,49.7,40.7,51,41.4,50.4       M32.9,49.4c-0.4,0-0.9,0.1-0.9-0.2c0.1,0,0.3-0.2,0-0.2c-0.4,0.4,0.1,0.7,0.5,0.9c0.1-0.6,1-0.2,1.2-0.7      c-0.9,0.3-0.5-0.7-1.2-0.5C32.4,49.2,32.7,49.2,32.9,49.4 M42.6,46.1c0.6-0.2,1,0.8,1.2,0.2c-1.1-0.2,0.4-0.8-0.2-0.9      C43.5,45.9,42.5,45.4,42.6,46.1 M34.6,47.3c0.4,0.3-0.1,2.6,0.9,1.9H35c-0.1-0.8,0.9-1.9,0-2.8c0.2,0,0.3-0.2,0.5-0.2      c0.3,0.1,0.4,0.3,0.5,0.5c-0.2,0.1-0.5,0-0.5,0.2h0.7c0.1-1.1-1-1-1.2-1.2c0-0.2,0.2-0.3,0.2-0.5C34.1,45.5,35.7,46.9,34.6,47.3       M32.2,45.4c0.6,0,0.7,0.4,1.2,0.5c-0.1-0.4,0.3-0.5,0.2-0.9c-1-0.2,0.2,0.5-0.5,0.5c-0.4-0.1-0.6-1.6-0.9-0.9      C32.4,44.6,32.4,45,32.2,45.4 M42.9,44.4c-0.1,0-0.3,0.2,0,0.2c0-0.3,0.3-0.1,0.5,0c0.2-0.7-0.8-0.3-0.5-1.2h-0.7      c0,0.3-0.1,0.5-0.2,0.7C42.2,44.8,42.6,43.8,42.9,44.4 M35.5,44.9c0.3,0,0.3-0.3,0.7-0.2c0.1,0.2,0,0.5,0.2,0.5v-0.7      c-1.4,0.1-1.5-1.9-1.7-1.4C34.6,43.9,35.9,44.5,35.5,44.9 M43.3,42.3c-0.7-0.2-0.4,0.5-0.5,0.9c1,0,0.5-0.3,1.7-0.5v-1.2      c-0.4,0-0.9-0.1-0.9,0.2c0.4,0,0.8,0,0.7,0.5c-0.1,0.3-0.5,0.3-0.7,0.5C43.8,41.8,42.7,41.3,43.3,42.3 M30.5,42.1      c0.1-0.2,0-0.5,0.2-0.5c0,0.1,0.2,0.3,0.2,0c-0.4-0.3-0.6-0.3-0.9,0c0-0.4-0.2-0.6-0.5-0.7C29.6,41.6,30.1,41.7,30.5,42.1       M30.1,45.6h-0.7c-0.1,0.5,0.6,1.2,0.7,0.7c-0.2,0,0.5-2.1-0.5-1.4C29.9,45,29.8,45.4,30.1,45.6 M27.9,47.3      c-0.1,0.5-0.4,0.5-0.7,0.2c0.1,0.8,0.5,1,1.2,0.7C28.5,47.7,28.3,47.3,27.9,47.3 M27.7,47c0.7-0.2,0.5,0.7,1.2,0.5      c0.3-0.2,0.8-0.4,0.7-0.9c-0.8-0.2-0.3,0.8-0.9,0.7c0.5-1.1-0.2-0.3-0.5-0.7c0.2-0.1,1.4-0.9,0.7-0.5c-0.9-0.2-1-0.1-1.2-0.7      c-0.8,0-0.8,0.8-1.4,0.9c0.3,0,0.5,0.1,0.7,0.2c0-0.5,0.2-0.8,0.7-0.7C28,46.2,28,46.7,27.7,47 M24.1,51.5      c-0.3,0.9-1.3-0.2-1.4,0.7c0.3,0.4,0.7,0.6,0.7,1.2c-0.3,0-0.5-0.4-0.7,0c0.2,0.1,0.3,0.2,0.2,0.5c0.8,0.1,0.7-0.7,1.2-0.9      c-0.2,0.8,0.8,0.3,0.9,0.7c-0.3-0.7,0.4-0.6,0.5-0.9c-0.3,0-0.5-0.1-0.7-0.2c0,0.3,0,0.7-0.2,0.7C24.4,52.3,24.2,51.3,24.1,51.5       M25.3,48.5c0.4,0.1,0.6-0.4,0.7,0c-0.7,0.7-0.4,0.2-1.2,0.9c0.9,0.1-0.9,0.4,0,0.5c0.3-0.1,0.4-0.4,0.7-0.5      c-0.3,0.9,0.5,0.8,0.7,1.2c-0.7-0.3-1.3-0.7-1.7-0.2c0.3,0.5,0.6-0.3,0.7,0.2c0.1,0.7-1.3-0.2-1.2,0.5c0.7,0.6,1,1.4,1.9,0.9      c-0.4,0-0.6-0.2-0.5-0.7c0.6,0,0.5-0.4,0.9,0c0-0.4-0.1-0.9,0.2-0.9c0.1,0.2,0,0.5,0.2,0.5c0.2-0.3,0.6-0.5,0.7-0.9      c-0.9-0.1-1.2-0.8-1.7-0.7c0.7-1.1,1.2-2.1,1.4-2.8C26.8,47.1,26.1,47.9,25.3,48.5 M25.1,47c0,0.3-0.4,0.2-0.5,0.5      c0.1,0,0.3,0,0.2,0.2c-0.2,0-0.3-0.2-0.5-0.2c-0.2,0.7,0.5,0.4,0.9,0.5C25.3,47.4,25.8,47.2,25.1,47 M29.1,40.9      c-1.3,0.1-0.6,0.6-0.9,1.7c0-0.1,0.2-0.3,0.2,0c-0.3,0.1-0.4,0.4-0.7,0.5c0.1-0.4-0.3-0.6-0.5-0.2c0.3,0,0.3,0.4,0.2,0.7h-0.7      c-0.2,1,0.5-0.2,0.5,0.5c-0.3,0-0.3,0.3-0.7,0.2c-0.6-0.3,0.5-0.8-0.5-0.7c0.3,1,0.5,0.8,0.5,2.1c-0.6,0.2-0.8,0.2-1.2,0.5      c0.7,0.1-0.4,0.4-0.2,0.7c1,0.5,0.7,0.2,0.7,0.9c0.4-0.5,0.6-0.6,0.7-0.9c0,0.1,0,0.3,0.2,0.2c0.4-0.8-0.8-0.1-0.7-0.7      c0.2-0.8,1.3-0.5,0.7-1.4c0.5,0.5,0.6,0.1,0.9-0.2c0.6,0.3,0.1,0.5,0.5,0.7c0.1-0.3,0.3-0.5,0.5-0.7c0.2,0.3,0.6,0.5,0.9,0.7      c-0.2-1-0.1-0.7,0-1.9c-0.3,0-0.7,0-0.7-0.2c0.1,0,0.3-0.2,0-0.2c-0.1,0.3-0.3,0.5-0.7,0.5c-0.2,0.7,0,1-0.2,1.2      c-0.2-0.4-0.8-0.9,0-0.5c0.1-0.5-0.3-0.5-0.5-0.7c1-0.1,1-0.8,2.1-1.7c0,0.1,0.2,0.3,0.2,0c-0.4-0.7-1.2,0.6-1.4,0      C28.7,41.7,29.6,41,29.1,40.9 M36.9,40.9c0.6-0.7,0.1,0.3,0.5,0.2c0-0.2,0.4-0.3,0.5,0c-0.1,0-0.3,0.2,0,0.2      c0.2-0.7,0.9-0.1,0.9-0.5c-0.3-0.1-0.4-0.4-0.7-0.5C37.9,40.9,36.3,40,36.9,40.9 M34.3,39.9c0.1,0.9,0.7,0.3-0.2,1.2      c0.3,0,0.5,0.1,0.7,0.2c0-0.3,0.1-0.6,0.5-0.5C35.4,40.2,34.6,39.4,34.3,39.9 M43.1,40.4c0.1-0.2,0.6-0.9-0.2-0.7      c-0.1,0.7,0,2.4,0.7,1.4c-0.7-0.8,0.5-1.2,0.9-1.2c0-0.3-0.1-0.6-0.2-0.2C44,39.8,43.6,40,43.1,40.4 M45.2,37.1      c0.7-0.2,0.4,1.4,1.7,0.9c-0.4-0.1-0.5-0.4-0.5-0.9C45.7,37.1,44.8,36.3,45.2,37.1 M41.7,36.4c-0.3-0.1-0.4-0.4-0.7-0.5      c0.2,0.7-1.4,1.5-0.7,1.2c0.9-0.4,0.5,0.6,0.9,0.7c0.7-0.4-0.4-1.2,0.2-1.4C41.4,36.5,41.6,36.6,41.7,36.4 M39.1,35.2      c-1.2,0-1.2,0.6-1.9,0.7c0.7,0.6-0.1,1.2,0.7,1.7c0.5-0.5,0-1.1-0.2-1.4C38.2,35.5,38.7,36.1,39.1,35.2 M33.8,36.4      c0.5-0.6-0.1,0.3-0.2,0.5c0.3,0,0.5,0.4,0.7,0c-0.2-0.1-0.5,0-0.5-0.2c0.8,0.2,0.9-0.9,0.2-0.9C34.2,36,33.2,36.2,33.8,36.4       M47.4,36.6c-0.6,0.1-0.6,0.6,0,0.7c0.1-0.2,0-0.5,0.2-0.5c-0.2-0.9-1-1.1-1.2-1.9v0.9C47,35.8,47,36.4,47.4,36.6 M50.9,35.7      c-0.5-0.1-0.2-0.9-0.7-0.9c-1,0.9,0.6,0.3-0.5,1.2C50.5,35.7,50.7,35.9,50.9,35.7 M38.6,45.4c0.6,0.3-0.2,0.7-0.7,1.7      c0-0.3,0.3-0.3,0.2-0.7c-0.5-0.2-1.5,0.2-0.7,0.5c0-0.1,0-0.3,0.2-0.2c0,0.4,0.1,0.7,0.2,0.9c-0.5,0.2-0.8-0.7-0.7,0.2      c0.5-0.1,0.9,0.1,0.9,0.5c-0.2,0.3-0.2,0.9-0.7,0.9c0-1-0.9,0.2-1.2-0.5c0.3,0.3,0.3,0.6-0.2,0.7c-0.1-0.2,0-0.5-0.2-0.5      c0.1,0.4,0.1,1,0.5,1.2c-0.2-0.6,0.8-1.1,0.9-0.5c-0.4,0.2-1.1,0-0.5,0.7c0.2-0.6,0.8-0.5,1.2-0.2c-0.8,1.4-0.7,0.9-0.9,0.5      c0.2,0.6-0.5,0.5-0.5,0.9c0.8-0.2,1.3,1.1,1.7,0.5c-0.2-0.4-0.8-0.4-0.7-0.9c1.6-1,0.2,0.3,1.7-0.2c-0.4,0.4,0.3,0.7-0.5,0.9      c0.2-0.8-0.5-0.4-0.5,0c0.7,0.1,0.9,0.3,1.2,0c-0.6-0.2,0.7-0.5,0-0.9c0.6-0.1,0.9-0.4,0.9,0.5c-0.3-0.1-0.5-0.4-0.5,0.2      c0.7-0.4,1,0.9,1.2,0.2c-0.4-0.1,0-0.3,0-0.7c-0.5-0.1-0.8-0.5-1.2-0.7c-0.1,0.3-0.5,0.3-0.7,0.5c-0.4-1-1-0.3-0.9-1.4      c0.9-0.2,1.5-0.1,0.7,0.5c0.6-0.3,0.7,0.1,0.9-0.2c-0.3-0.5,0-0.2-0.5-0.5c1.2-0.1,0.6-2.3,1.7-1.2c0-0.8-0.3-1.5-0.7-0.7      c0-0.3-0.3-0.3-0.2-0.7h1.2v-0.5c-0.3,0-0.5-0.4-0.7,0c0.1,0,0.3,0,0.2,0.2c-0.5-0.4-0.3,0-0.9,0C39.7,45.8,39.1,44.7,38.6,45.4       M39.1,42.5c0.4,1-1.2,1.3-0.9,1.9c0.1-0.8,1,0.4,0.9-0.2C38.3,43.8,40.3,42.8,39.1,42.5 M40.5,41.1c-0.3,0.1-0.6-0.9-0.7-0.2      c1,1-1.3-0.3-0.5,0.2c0.6,0.4,0.3,0.3,0.2,1.2c1.1,0.2-0.3-0.6,0.5-0.7c0,0.2,0.2,0.3,0.2,0.5c-0.3,0.7-0.7,1.3-1.2,1.9      c0.7,0.2-0.1,0.8-0.2,0.9c0.6,0.3,1-0.7,1.2,0c-0.8,0.3,0,0.6,0.2,1.2c0.3-0.6,0.1-0.6,0-1.4c2.1,0.9,1.6-3.5,0.5-1.9      c0-0.2-0.2-0.3-0.2-0.5c0-0.4,0.2-0.8,0.5-0.9c1.2-0.6,0.8,1.6,1.2,0.9c-0.6-1,0.4-1.4,0.2-1.7c-0.3,0.4-1.5,0.9-1.7,0      c1-0.3,1.6-1,1.7-1.7c-0.1,0.5,1.1,0.8,1.2,0.2c-0.2-0.1-0.5,0-0.5-0.2c0.2,0,0.3-0.4,0-0.5c0,0.4-0.2,0.6-0.5,0.7      c0-0.2-0.2-0.3-0.2-0.5c0.3-0.9,0.6-0.3,1.2-0.9c0.1-0.7-0.4-0.8-0.2-1.7c1.3-1.2,0.1,0,1.7,0c-0.3-1-0.9-0.9-1.7-0.5      c0-0.2-0.2-0.3-0.2-0.5c0.7,0.4,1.1-0.6,0.5-0.7c-0.1,0.5-1.1,0.1-0.9,0.7c0.7,0.1,0.4,0.7,0,0.9c-0.9,0.2,0.2-1.5-0.5-0.9      c0.1,0.5-0.3,0.5-0.5,0.7c0.5,0.4,0.6,0.2,1.4,0.9c-0.5-0.1-0.5,0.3-0.7,0.5c-0.5,0.1-0.5-0.3-0.7-0.5v0.7      c0.8,0.2,1.2-0.6,1.4,0.2c-0.8-0.2-0.5,0.6-0.9,0.7c-0.2-0.5,0.7-0.8-0.2-0.7c0.3,1-0.8,0.6-0.9,1.2c0.6,0.1,1,0.2,1.2,0.7      c-1-0.7-0.2,0.5-1.2,0.7c0.4-0.4,0.6-0.8,0-1.2c-0.2,0.9,0,0.3-0.7,0.7c0.9,0.6-1.3-0.3-0.5,0.2C40.2,40.2,41,40.9,40.5,41.1       M35,32.8c0.5-0.3-0.4,1.5,0.2,0.7c-0.4-1,1.2,0.2,0.5-0.5c-0.2-0.1-0.3-0.2-0.2-0.5c0.3,0,0.5,0.4,0.7,0      C35.9,32.2,35.2,32.4,35,32.8 M42.4,33.5c0.3,0.1,0.5,0.3,0.7,0.5c-0.8-0.2-0.4,0.5,0,0.5c0.4-1,0.1-2.6,0.2-2.8      c-0.1,0.4-0.4-0.1-0.5,0.2C43.4,32.2,42.4,32.9,42.4,33.5 M38.1,32.6c0.1-0.9-0.5-1.1-0.9-1.4c0,0.8-0.5,1.3,0.2,1.7      c0.4-0.6-0.1-1,0.2-1.2C38,31.8,37.7,32.5,38.1,32.6 M28.4,31.4c0.3,0.1,0.4,0.3,0.5,0.5c-0.1,0-0.3,0-0.2,0.2      c0.3,0,0.5-0.1,0.7-0.2c0,0.1,0.2,0.3,0.2,0c-0.1,0-0.3,0-0.2-0.2c0.1,0,0.3,0,0.2-0.2c-0.3,0-0.7,0-0.7-0.2      c0.1,0,0.3-0.2,0-0.2C28.9,31.2,28.5,31.1,28.4,31.4 M42.4,32.3c0.4-0.4-0.1-1.5-0.7-1.7c0.2,0.4-0.7,0.8,0,0.9      c0-0.3,0.3-0.4,0.5-0.5C42,31.8,41.8,32,42.4,32.3 M51.2,29c-0.4,0-0.6,0.2-0.7,0.5c0.5,0.1,0.5,0.4,0.2,0.7      c0.5-0.3,0.9,0.6,0.9,0c-0.7,0.1,0.6-0.9-0.2-0.9c0.2,0.8-0.8,0.4-0.7,0c0.4,0,0.8-0.2,0.9-0.5c-0.3,0-1.3-0.4-0.7,0      C51.1,28.8,51.2,28.8,51.2,29 M36.9,30.4c0.2-0.7,0.4,0.5,0.7,0.5c0.2-0.9,1.1-0.3,1.4-0.7c-0.5,0.1-0.5-0.3-0.7-0.5      c-0.3,0.8-0.6,0-0.9,0.7c-0.1-0.3-0.4-0.4-0.5-0.7c0.5,0.5,0.8-0.2,1.2,0.2c-0.1-0.5,0.3-0.5,0.5-0.7c-1,0.3-0.7-0.5-1.7,0.2      c0.1-0.5,0.4-0.9-0.2-1.2c0,0.3-0.4,0.2-0.5,0.5C37.4,29.1,36.5,30.2,36.9,30.4 M40,28.3c0.5-0.1,1.1,0.9,1.2,0.5      c0-0.2-0.2-0.3-0.2-0.5c0.3,0,0.9-0.1,0.5-0.2c-0.4-0.2-0.8,0.7-0.9,0c0.1,0,0.3-0.2,0-0.2C40.5,28.1,40.1,28,40,28.3       M50.4,25.5c0,0.4,0.1,0.7,0.2,0.9c0.4,0.1,0.6-0.4,0.7,0c-0.1,0-0.3,0-0.2,0.2C52.3,26,50.6,26.2,50.4,25.5 M39.5,26.2      c-0.1,0-0.3,0-0.2,0.2h0.5c0.1,0,0.3,0,0.2-0.2c-0.6,0-0.3-0.9-0.9-0.9c0,0.3-0.1,0.5-0.2,0.7C39.1,26,39.5,25.9,39.5,26.2       M48.3,24.7v0.7c0.9,0.3,0.7-0.6,1.4-0.5c-0.2-0.7-0.2-0.5,0-1.2h-0.5c-0.1,0-0.3,0-0.2,0.2c1.1,0.7-0.4,0.4-0.2,1.2      c0-0.3-0.3-0.3-0.2-0.7c-0.6,0.1-1.1,0.3-1.4,0.7c-0.3-0.2-0.1-0.9-0.7-0.7c-0.4,0.4,0.1,0.9,0.7,0.9      C47.5,25.2,47.8,24.9,48.3,24.7 M43.8,31.6c1.1,0.5-0.4,0.2-0.2,0.9c0.6,0,1-0.1,1.2-0.5C44.3,32.2,44,31,43.8,31.6 M45.2,30      c-0.1,0.2,0,0.5-0.2,0.5c0-0.1,0-0.3-0.2-0.2c0.7,1,1.7,2.9,0,1.4c0.5,1-0.7,1.3-1.2,1.4c-0.1,0.6,0.3,0.8,0.9,0.7      c0.3-1.1,0.9-1.5,1.9-1.2c0.2-0.9-1-0.7-0.2-1.4c-0.3,0-0.7,0-0.7-0.2c0.3,0.1,1.5,0,0.7-0.2C44.7,31,45.8,30.7,45.2,30       M46.9,28.1c-0.4,0.8,0.8,0.1,0.7,0.7C47.2,29,47,29.6,47.4,30c-0.9,0.4-0.4-0.1-1.2-0.2c0,0.3-0.1,0.5-0.2,0.7      c0.9,0.1,1.6-0.1,2.1,0c-0.3-0.1-0.5-0.3-0.5-0.7c0.3,0.1,1.2,1,0.7,0.5c-0.2-0.8-0.8-0.4-0.9-0.7c0.1-0.3,0.3-0.5,0.5-0.7      c0.2,0.7,0.6-0.3,0.9,0.2c0-1.4,1.2-0.9,1.4-0.9c-0.4-0.1,0-0.3,0-0.7c-1.1,0.2-1.4,1.2-2.4,1.4c0-0.7,1.7-0.8,0.9-1.4      C47.7,28,48.1,28.7,46.9,28.1 M45.7,24.3c-0.4,0.5-1.6-0.8-0.7,0.2c-0.4,0-0.7-0.1-0.9-0.2c0.1,0.4-0.4,0.6,0,0.7      c0.5-0.9-0.1,1.1,0.5,0.9c0-0.4,0.2-0.6,0.5-0.7c-0.3,1,0.6,0.8-0.5,1.4c0.6-0.2,1.1,0.8,0.5,0.9c-0.1-0.2-0.2,0.3-0.7,0.2      c0.2,0.1,1,0.6,0.5,0.7C44,28,44,28.3,43.1,28.3c-0.2-0.4-1.2-1.3-1.4-0.9c0.5,0.1,0.5,0.4,0.2,0.7c1,0,1.5,0.4,2.1,1.2      c0.3-0.5,1.3-0.5,1.2-1.4c0.1,0.4,0.3,0,0-0.2h0.9c-0.3,0.5,0.4,1.1,0.5,0.5c-0.3-0.1-0.3-0.5-0.5-0.7c0.6-0.3,1.6-0.8,0.7-1.2      c0.5-0.2,1.1-0.2,1.9,0.2c0.2,0.8-1.6,0.7-0.9,1.2c0.1-0.4,0.5-0.2,0.7,0c0.5-0.7,0.3-0.8,0.9-1.4c-0.3,0-0.7,0-0.7-0.2      c0.1,0,0.3-0.2,0-0.2c-0.7,0.3-1.5-0.2-2.4-0.2c-0.2,0.7,0,1-0.2,1.2c-1.1-0.7,0.3-1.8,0-2.6c0,0.3-1.6-1-1.9-0.5      C44.7,23.9,45.5,23.8,45.7,24.3 M41.4,24.5c0.6,0.4,1-0.1,1.7,0.2v-0.9c-0.6,0.2-1.6-0.9-1.2-0.2C43,23.9,41.8,24.2,41.4,24.5       M32.4,24c0.6,0,1.2,0,1.2-0.5c-1.3,0.7-0.5-0.8-1.7-0.2C32.4,23.3,32.5,23.6,32.4,24 M51.6,23.8c0,0.1,0,0.3,0.2,0.2      c0.1-0.5,0.5-0.6,0.7-0.9c-0.3-0.1-0.6-0.4-0.7-0.7c0.2,0,0.3-0.4,0-0.5C51.4,22.9,51.9,23.6,51.6,23.8 M49.7,21.7      c0.2,1.1,1,0.6,1.7,0.9c-0.2-0.4-0.4-2.1-0.9-1.4C51,21.8,50.3,21.4,49.7,21.7 M41.7,21.9c0.5,0,1.2-1,0.7-1.2      c0,0.8-0.8-0.5-0.7,0.2C42.3,21,41.7,21.8,41.7,21.9 M53.3,20.7c-0.4,0.1-0.8-0.9-0.2-0.9c0.1,0.2,0,0.5,0.2,0.5      c-0.1-0.4,0.4-0.6,0-0.7c-0.2,0.4-1.1-0.2-1.2,0.2C52.7,19.7,52.7,21.5,53.3,20.7 M41.7,18.8c1.1-0.2,0.2,0.4,0.7,0.5      c0.3,0.3,1.1-0.5,1.4,0.2c-0.8,0.3,0,0.6-0.7,0.9c0.3,0.1,0.4,0.4,0.7,0.5c0.6-0.3-0.3-0.9,0.2-0.9c0.2,0.6,1.2,0,1.4-0.2      c-0.3-0.5-0.6,0.3-0.7-0.2c0.2-0.1,1.4-0.5,0.7-0.7c-0.5,0.3-0.7,0.1-1.4,0.5c-0.4-0.3-1.3-1.5-0.7-0.2      c-0.8,0.2-0.8-0.5-1.2-0.7c0.4,0.1,0.8-0.9,0.2-0.9C42.4,18.1,41.9,18.3,41.7,18.8 M44.3,16.7c0.1-0.4,0.3,0,0.7,0      c0.3-0.7,0.1-1.1-0.7-1.2c0.2,1.3-1-0.9-0.5,0C44,16.2,44.2,16.4,44.3,16.7 M41.2,15.5c0.4,0.5,0.7,0.2,0.9,0.5      c-0.6,0.4-0.2,0.4-0.5,0.9c1.3,0-0.6,0.4,0.2,0.5c0.3-0.1,0.5-0.3,0.9-0.2c0,1.4,1,0.4,1.4,1.2c-1-1.3-1.5-0.5-1.9-2.8      c-0.3-0.6-0.7,0.4-0.9-0.2c0.4,0,0.2-0.7,0-0.2C41.4,15.3,41.2,15.3,41.2,15.5 M50.2,17.6c1.4,0.2,2,0.4,1.4,1.7      c0.1-0.3,0.3-0.1,0.5,0c0.1-0.2,0-0.5,0.2-0.5c-0.1,0.4,0.3,0.6,0.5,0.2c-0.6-0.7-0.8-1.3-0.9-1.9c0.8,0,1.1-0.5,1.7-0.7      c-0.3-0.1-0.3-0.5-0.5-0.7c0.3,0.1,1.2,1,0.7,0.5c-0.4-0.5-0.6-0.9-0.7-1.2c-0.4,0.6-2,1.3-0.9,1.9c-0.9,0.2-1.4,1-1.4,0.2      C50.7,17.5,50.3,17.4,50.2,17.6 M49,23.3c-0.2-0.1-0.5,0-0.5-0.2c0.9,0.2,1-0.4,1.4-0.7c-0.8,0.4-0.1-0.8-0.7-0.7      C48.8,22,47.7,23.8,49,23.3 M48.1,22.1c-0.8,0.3-1.2,0.6-1.2,0c-0.6,0.7,0.6,1.2,0.9,1.7c-0.8-0.3-0.7,0.1-1.2,0.2      c0.5,0.5,1.5,0.1,1.4-0.7c-0.3-0.1-0.5-0.3-0.7-0.5c0.3-0.1,0.4-0.3,0.7,0c0-0.3,0-0.7,0.2-0.7c0,0.1,0,0.3,0.2,0.2      c0-0.6-0.5-0.6-0.7-0.9C47.4,22,47.9,21.7,48.1,22.1 M48.5,19.8c0.2-1.1-1-0.3-0.2-1.4C47,18.3,48,19.6,48.5,19.8 M48.1,16      c-0.7,0.5,0.6,1,0.7,0.2c0.9,0.2,0.4,1.6-0.2,1.7c0.2-1.4-1.1,0-1.2-0.9c-0.1,0.3-0.3,0.5-0.5,0.7c-0.1-0.3-0.4-0.6-0.5-0.2      c1.3,0.5,0.5,0.6,1.9,0.5c0.3,0.6-0.1,0.7,0.2,0.9c0.5-0.3,0.2,0,0.5-0.5c0.9,0.3-0.3,0.9,0.9,0.5c0.3,1.6-2.2,1.5-2.6,1.7      c0.9,0.4-0.5,0.4-0.5,0.7c1.5,0.3,1.4-0.4,2.4-0.9c0,0.3,0.7,1.2,0.9,0.5c-0.7-0.5,0.2-1.1-0.2-1.7c0.2,0,0.3-0.2,0.5-0.2      c0,0.3-0.3,0.4,0,0.5c0-0.1,0-0.3,0.2-0.2v-0.5c-0.3-0.1-1.2,0.3-1.2-0.2c0.5-0.2,0.6-1.1,0.5-1.4c-0.1,0.3-0.3,0.4-0.5,0.5      c0.5-0.7-0.6-1.5-0.7-2.4c0.2,1.1-1.5,0.2-0.9,0.7C48,15.7,48.1,15.8,48.1,16 M50,16.4c-0.3-1.3,0.4-0.8-0.5-1.7      c0.5,0.2,1.5-0.2,0.7-0.5c-0.1,0.6-0.4-0.3-0.9,0c0.1,1.4,0.1,1.4,0.5,2.4c0.7-0.3,1,0,1.7,0.2c0.3-0.7,0.1-0.8-0.2-1.4      C50.3,15.3,50.6,16.4,50,16.4 M50.9,15.3c0.5-0.1,0.7,1.3,0.9,0.7c-0.8-0.9,1.3-1.5,0.5-2.4c0.8-0.1,1.2,0,1.4-0.2      c-0.5-0.2-1.7-0.1-2.1,0c0.4,0.9-0.6,0.5-0.9,1.4c0.6,0.3,0.7-0.9,0.9-0.2C51.3,14.7,51.1,14.9,50.9,15.3 M48.1,13.6      c-0.1,0-0.3,0.2,0,0.2c0.7-0.6,1.3,0.7,1.7,0c-0.9-0.5-1.3-0.2-0.9-1.9c-0.3-0.1-1.2-1-0.7-0.5C48.2,12.1,47.8,12.7,48.1,13.6       M44.8,14.3c0.1-0.4-0.3-0.6-0.5-0.2c0.7,0.1-1.4,1.2-0.5,0.7c0.9,0.2,1.3-0.2,1.7-0.5c0,1.3,0.8,1.8-0.2,2.4      c1.1,0.2,1-0.9,1.2-1.7c-0.3-0.1-0.5-0.3-0.7-0.5c0.4-0.1-0.1-0.4,0.2-0.5c0.3,0.1,0.4,0.4,0.7,0.5c0.1-0.9-0.7-0.7-0.7-1.4      c0.5-0.3,0.9,0.6,0.9,0c-0.7-0.2,0-1.1,0.2-1.2c-0.7-0.7-0.6,0.4-1.2,0.5c0.5-0.5,0-1-0.5-1.2C45.6,12.2,46.1,13.9,44.8,14.3       M49,12.2c0.9-0.1,1.6,0.4,0.5,1.2c0.3,0.1,1.2-0.3,1.2,0.2c0,0.1,0,0.3,0.2,0.2c-0.2-1.2,0-0.6-0.7-0.9      c0.3-0.1,0.3-0.5,0.5-0.7c-1,0.1-1.1-1.7-1.2-1.2C49.3,11.8,49.6,11.7,49,12.2 M55.7,11.7c0.4,0,1.4-1.1,0.7-0.7      c0,0.1,0,0.3-0.2,0.2c-0.5,0-1-1-1.2-0.5C55.4,10.8,55,11.8,55.7,11.7 M52.1,11.9c0.4,0.2,0.6,0.7,1.4,0.5      c0.2-0.6-0.5-0.5-0.5-0.9c1.8-0.8,1-0.4,0-0.9c0.1,1.3-0.6-0.6-0.7,0.2C53.1,11.1,51.8,11.3,52.1,11.9 M43.8,10      c0.2,0.8-0.5,0.4-0.7,0.2c0.1,0.4-0.4,0.6,0,0.7c0-0.3,0.7-0.3,0.7,0c-0.5-0.1-0.5,0.3-0.7,0.5c0-0.4-0.7-0.2-0.2,0      c0.6,0.5,0.8-0.2,1.2,0.5c0-0.7,0.8-0.5,0.9,0c-1.2-0.1-1.2,1-1.9,1.4c0-0.3,0.1-0.5,0.2-0.7c-0.9-0.2-0.2,1.2-0.9,0.5      c0.2,1.1-0.8-0.4-0.9,0.5c0.2,0.1,0.5,0,0.5,0.2c-0.4,0.1,0,0.4,0.2,0.5c-0.1-1,1.2-0.3,1.2,0c0.3-1.4,2.9-2.4,1.4-3.6      c0.3,0,0.6-0.1,0.2-0.2c-0.4-0.1-0.7,1.1-0.9,0.5C44.2,10.8,44.4,10.2,43.8,10 M43.1,9.1c-0.2,0.5-1.3,0.1-1.4,0.7      C41.9,9.8,43.9,9.9,43.1,9.1 M29.3,34.9c-0.7-0.1-0.6-1-1.2-1.2c0,0.2-1,0.5-0.2,0.7C28.5,33.4,28.6,36.1,29.3,34.9 M40.5,9.8      c0.5,0,0.9-1.3,1.2-0.7c-0.1,0-0.3,0.2,0,0.2c0.2-0.4,0.3-0.7,0-0.9c-1,0.6-1.2,1.6-1.7,2.1c0.1-0.5-0.1-0.9-0.5-0.9      c-0.1,0.4,0.3,0.5,0.2,0.9c-0.3,0.5-1.3-0.4-0.7,0.5c-0.3-0.6-1.4,0.6-0.9,0.7c0-0.2,0.8-0.7,0.7-0.2c-0.6,0.1,0.6,0.5,0.5,0.9      c-0.8-0.4-1.7,0.2-1.2,0c0.5,0.2,0.5,0.7,0.9,1.4c-0.3-0.6-1.8-0.1-1.9-0.9c0.6,0.9,0.5-1.3,0.2-0.7c-0.1,1.1-0.1-0.3-0.7,0      c0.6,0.7-0.4,1.2,0,1.4c0.1-0.5,1.1-0.1,0.9,0.5c-0.3,0-0.4-0.3-0.5,0c0.1,0.4,0.7,0.4,0.9,0.7c-0.3,0-0.6,0.1-0.2,0.2      c0.5-0.1,0.9-1.2,1.2-0.2c-0.5,0.3-0.9,0.7-1.2,1.2c0.8-0.2,0.5-0.2,0.9,0.2c0.6-0.3-0.3-0.9,0.2-0.9c0,0.3,0.4,0.2,0.5,0.5      c0,0.3-0.4,0.2-0.5,0.5c0.2,0,0.3,0.4,0,0.5c-0.5-1.2-1.1,0.4-1.4,0.2c-0.3-0.1,0.4-2.1-1.4-2.1c0,0.8,1,0.4,0.9,1.2      c-0.4,0.4-0.8-0.2-1.2,0.5c0.4,0,0.1,0.7,0.5,0.7c0-0.4-0.1-0.9,0.2-0.9c-0.2,0.7,0.4,0.7,0.2,1.4c-0.1,0-0.3,0.2,0,0.2      c0-0.3,0.3-0.4,0.5-0.5c0.1,0.3,0.4,0.4,0.5,0.7c-0.9-0.7-0.5,0.4-0.7,0.5c-0.6-0.3-1.4,0.5-1.4,0c0.3-0.6,0.5-0.1,0.7-0.5      c-0.8-0.2-0.1-1.8-1.2-1.7c-0.3,1.2,0.4,0.6,0.7,1.7c-0.8,0-1-0.5-1.4,0.2c0.6,0.3,0.7-0.1,0.9,0.2c-0.6,0.5,0.8,0.9-0.2,1.2      c0.1-0.3-0.7-0.8-0.7-0.2c0.4,0,1.3,1.2,0.2,1.2c0.4-0.4-0.1-0.7-0.5-0.9c-0.5,0.7-0.5,0.8,0.2,0.2c0.2,1.6,0.4,0.8,1.2,1.4      c-0.2-1,0.5-1.5,0.5-2.4c0.3,1.5-0.1,2.1-0.9,3.3c-0.4-0.2,0.2-1-0.2-0.5c0,0.5-0.7,0.9,0.2,1.2c-1.3-0.1-0.1,0.5-0.2,1.2      c-0.3,0-0.3,0.3-0.7,0.2c-0.2-1.2-0.3-2.1,0.2-3.1c-0.4,0.2-0.8-0.7-0.9,0c1.1,0.2-0.3,0.4-0.2,0.5c0.2,0.3,0.9,0.1,0.7,0.7      c-0.3-0.6-0.7,0.4-0.9-0.2c0.1,0,0.3-0.2,0-0.2c-0.4,0.5,0.1,0.4,0,1.2c0.5-0.1,0.9,0.1,0.9,0.5c-0.7,0-0.3,1.1-0.7,1.4      c0.3,0.2,0.7,0.4,0.9,0.7c-0.4,0,0.5,1.2-0.5,1.2c-0.1-0.3-0.4-0.6-0.7-0.7c0,0.7,0.7,0.7,0.5,1.7c-0.7,0.4-1.1-0.5-1.7-0.5      c0.3,0,0.2-0.4,0.5-0.5c0,0.4,0.8,0.1,0.9,0.5c-0.1-1-0.8-0.3-1.2-0.7c-0.1,0.3-0.3,0.5-0.5,0.7c-0.6-0.3,0.5-0.8-0.5-0.7      c1,1.9-0.1,2.7,0,3.6c0.1-0.6,1.5-1.5,0.5-2.6c0.5,0.4,1.3,0.5,1.7,0.9c-0.6-0.1-0.5,0.4-1.2,0.2c0.6,0.7,0.9,1.8,0.5,2.4      c-0.2-0.5-0.7-0.5-0.9-0.9c-0.4,1.8-0.1,1.3,0.2,0.7c0.1,0.5,0.6,0.5,0.7,0.9c-0.4,0.2-0.7,0.8-1.2,0.2c0,0.3,0.1,0.5,0.2,0.7      h0.5c0-0.4,0.2-0.6,0.5-0.7c-0.2,1-0.8,2.2-1.9,1.2c1,0.1,0-0.3,0.2-0.9c-0.4,0.1-0.6-0.4-0.7,0c0,0.6,1,1.3,0.5,2.4      c-0.5-0.1-0.5-0.6-0.9-0.7c-0.4,0.2-0.7,0.8,0,0.9c0.1-0.2,0-0.5,0.2-0.5c0,0.3,0.4,0.2,0.5,0.5c-0.6,0.2,0.5,0.7,0.2,1.4      c-1.2,0.7-0.4-0.1-0.5-0.2c-0.1-0.2-0.6,0-0.7-0.2c0.1,0.1,0.5-1.1,0-0.5c-0.4,0.4-0.8,1-1.2,1.4c0.3,0,0.2,0.4,0.5,0.5      c0.1-0.3,0.5-0.3,0.7-0.5c-0.1,0.3,0.3,1.2-0.2,1.2c-0.7,0-1.3-0.8-1.7,0c0.8,0.2,0.9,1.2,1.4,1.7c-0.2,0-0.3,0.2-0.5,0.2      c-0.1-1.1-1.3-0.2-0.7-0.5c0.4,0.2,0.5,0.6,0.2,0.9c0.9,0.3,0.8-0.5,1.2-0.7c0.1,0.3,0.3,0.4,0,0.7c0.6-0.3,0.7,0.1,0.9-0.2      c0.2-0.4-1-2.4,0.2-1.2c0-0.8-0.6-1.2,0.5-1.4c-0.1,0.4-0.6,1.3,0.2,1.7c-0.5-1.3,0.4-0.2,0.7-0.7c-1.1-0.2-0.2-1.4-0.9-1.7      c1,0.1,0-0.3,0.2-0.9c0.5-0.1,1-0.1,0.9-0.7c-0.4-0.1-0.6,0.4-0.7,0c0.3,0,0.2-0.4,0.5-0.5c0.3,0.8,0.1-0.7,0.7-0.2      c0.3,0.9-1.3,1.9-0.2,1.4c-0.3,0.5-1.1,1.2-0.2,1.7c-0.1-0.8,0-1.5,0.9-1.2c0.1-0.1,0.6-1.1,0-1.2c-0.4,1.8,0,0.3-0.2-0.5      c-0.3-1.1-0.4-0.1,0-0.5c0.9-1-0.5-1.2,0.9-0.9c-0.2,0.5,0,1.1,0.5,1.2c-0.7-1.4,0.1-2.6-0.9-3.3c1,0,1.1-0.1,0.5-0.5      c0.7-0.2,1-0.2,1.7,0c-0.1-0.6-0.2-1-0.7-1.2c-0.1,0.3-0.3,0.5-0.5,0.7c-0.2-0.7-0.7-1,0-1.7c0,0.4-0.1,0.9,0.2,0.9      c0.4-0.2,0.5-0.8,0.9-0.9c-0.4,0.5,0.2,0.5-0.2,0.9c0.6-0.3,0.7,0.1,0.9-0.2c-0.4-0.4-0.7-1.4,0.2-1.4c0-0.7-0.6-0.8-0.7-1.4      c0.5,0.1,0.5-0.3,0.7-0.5c0,0.3,0.1,0.5,0.2,0.7c-0.2,0-0.3-0.2-0.5-0.2c0.3,1.5,0.5-0.2,1.2-0.2c0.1-0.4-0.3-0.5-0.2-0.9      c0.4-0.1,1.6-0.6,0.9-0.9C38,25,37.4,24.2,37.2,24c0.7,0.1,0.6-0.6,1.2-0.7c0,0.6,0.4,0.5,0,0.9c0.9-0.1,1.1-0.8,1.4-1.4      c-0.6,0-0.7-0.4-0.9-0.7c0.6,0.6,1.3,0.2,1.9,1.2h-0.9c0.2,0.4-0.7,0.8,0,0.9c0.1-0.4,0.5-0.2,0.7,0c-0.2-0.7,1-1.2,0.5-1.4      c-0.1,0.4-1-0.4-1.2-0.7c0.7,0.1,0.6-0.6,1.2-0.7c-0.5,0.5,0.3,0.5,0.5,0.9c0.2-1.2-0.5-2.3-0.5-2.6c0,0.4-0.2,0.5-0.5,0.2      c-0.1,0.7,0.6,0.6,0.7,1.2c-0.8,0.4-1-0.1-1.4-0.7c0.5-0.2,0.6-0.6,0.7-1.2c-1.6,0,0.4-2.2-0.7-2.4c0.4-0.5,0.6-1.2,1.2-1.4      c0.1-0.6-0.4-0.5-0.2-1.2c-0.8-0.3-0.2,0.8-0.9,0.5c-0.2-0.2-0.5-0.5-0.7-0.7c1.3,0.4,0.6-0.6,1.9-0.2v0.7c0.3,0,0.7,0,0.7-0.2      c-0.6,0.1-0.6-0.5-0.7-0.9c3.2,0.1,0.5-4.6-0.2-2.8C40.7,10.2,40.6,10,40.5,9.8 M36.7,10.5H36C35.3,11.9,36.8,11.9,36.7,10.5       M32.7,18.1c0.4,0.4,0.9-0.3,0.9,0.7c0.4,0,0.9,0.1,0.9-0.2c-0.3,0-0.7,0-0.7-0.2c0.1,0,0.3-0.2,0-0.2c0,0.1,0,0.3-0.2,0.2      c-0.1-0.4,0.4-0.6,0-0.7c0,0.1,0,0.3-0.2,0.2c0-0.3-0.1-0.6-0.5-0.5C32.9,17.7,32.8,17.9,32.7,18.1 M27.2,30.2      c0.7,0.2,1.3-0.9,0.9-0.9C28,29.7,27,29.3,27.2,30.2 M27.7,30.7c0,0.9-0.5,0.7-0.7,0.9c0.5-0.2,0.5,1.2,0.7,0.5      c-0.6-0.6,0.4-0.6,0.5-1.2c-0.2-0.1-0.3-0.2-0.2-0.5C26.5,30.2,27.2,31.7,27.7,30.7 M29.1,33.5c-0.8,0,0.5-0.8-0.2-0.7      c-0.4,0-1.8,0.1-2.4,0.7c0.8,0.7,1.6,0.2,2.1-0.5C28.5,33.4,29.1,34.1,29.1,33.5 M25.8,34.2c1-0.8,0.1,1.6,0.9,0.7      c-0.5-0.2,0.5-1.1-0.5-1.4C26.5,34,25.1,34,25.8,34.2 M22.5,47.5c-0.4-0.1,0-0.3,0-0.7c-0.4-0.1-0.9-1.3-1.4-0.5      c1.2,0.1,0,1.2,0,1.7C22.2,47.1,21.9,47.3,22.5,47.5 M7.1,89.5c-0.7-0.2,0.3-0.6-0.2-0.9c0.2-0.1,0.5,0,0.5-0.2      c-0.4,0-0.7,0.1-0.9,0.2c0.3,0.6-0.5,1.2,0,1.2c0.1-0.2,0.2-0.3,0.5-0.2C6.8,89.6,7,89.7,7.1,89.5 M39.8,64.6      c-0.1,0.7-0.5,1.1-1.2,1.2c0-0.3,0-0.7-0.2-0.7c-0.1,0.4-0.4-0.1-0.5,0.2c0.6,0.1-0.3,0.4,0,0.9c0.9-0.8,1,0.6,2.1-0.2      C39.9,65.6,40.3,64.6,39.8,64.6 M48.1,43.9c-0.4-0.1-0.6-0.4-0.9-0.5c0.1,0.4-0.4,0.6,0,0.7c0.6-0.6-0.4,0.8,0.5,0.7      c0.1-0.2,0-0.5,0.2-0.5c0,0.4,0.7,0.2,0.2,0c-0.1,0-0.3,0-0.2-0.2C48,44.2,48.1,44.2,48.1,43.9 M50.7,40.6c-0.7-0.6-0.4,1,0,0.7      c-0.2,0-0.3,0.2-0.5,0.2c-0.2-0.7-0.4-0.3-0.7,0c0.1-0.8-0.4-1-0.7-1.4c-0.4,0.8,0.2,0.6,0.2,1.4c-0.9,0.1-1.9-0.8-1.7,0      c0.2,0,0.3-0.2,0.5-0.2c0.7,0.8,0.1,1.4,0.2,1.9c1-0.7,1.1-0.5,1.4,0.7c-0.4,0.5-0.2,0.6-1.4,1.4c0.9,0.3,1.3-1.1,1.7-0.5      c-0.6,0.3-0.9,0.9-1.7,0.9c-0.3-0.1-0.5-0.3-0.7-0.5c0.2,0.3-0.2-1-0.7-0.7c0.1,0,0.3,0,0.2,0.2c-0.3,0-0.7,0-0.7,0.2      c0.3,0.1,0.4,0.3,0.7,0c-0.1,0.5,0.3,0.5,0.5,0.7c-0.2,0-0.3,0.2-0.5,0.2c-0.3,0-0.5-0.1-0.7-0.2c0,0.7,0.9,0.6,0.2,1.2      c0.3,0,0.5-0.1,0.7-0.2c0,0.3,0.1,0.5,0.2,0.7c-0.7,0.1-0.7,0.8-1.7,0.7c0,0.3,0,0.7-0.2,0.7c-0.1-0.2,0-0.5-0.2-0.5      c0,0.9,0.6,1.1,0.7,1.9c-0.4,0-0.7-0.1-0.9-0.2c0,0.3-0.1,0.5-0.2,0.7c1.1,0.2-0.3,0.4-0.2,0.5c0.5,0.4,0.6,0,1.2,0      c-0.1-0.9,0.5-1.1,0.9-1.4c0,0.2,0.2,0.3,0.2,0.5c-0.2,0-0.7,0.8-0.2,0.7c0-0.1,0.2-0.3,0.2,0c-0.8,0.3-2,1.1-0.7,1.4      c-1.1,0.1-1.5,0.2-2.1,0c0.1,0,0.3-0.2,0-0.2c-0.2,0.3-0.5,1.7-0.2,1.7c0.3-1,1.4-0.2,1.7-0.9c-0.2,0.9,0.3,1.8,0.2,2.6      c0-0.9,0.9,0,0.9-0.5c-0.3-0.4-0.6-0.7-0.9-0.9c1.9,0.7,1.4-0.1,1.9-0.9c0.3,0.6,0.3,2.4,0.2,1.2h0.7c0.1-1.1-1.1-0.8-0.9-1.9      c-0.4,0-0.9-0.1-0.9,0.2c0.3,0,0.3,0.4,0.2,0.7c-0.5,0.4-0.5-0.2-0.9,0.2c0-0.2,0.2-0.3,0.2-0.5c-0.4,0-0.6-0.2-0.7-0.5      c0.9-0.3,0.6,0.7,1.2,0.7c0.1-0.6-0.4-0.5-0.2-1.2c1.2,0,1.2-0.4,2.4-0.7c-0.4,1.4,2.1,0.8,0.2,0.5c0.2-1-0.6-0.9-0.9-1.4      c0.6,0,0.5,0.4,0.9,0c-0.4,0.7,0.9,1.1,0.2,0.7c-0.2-0.8,0.3-1,0.5-1.4c-0.8-0.3-0.2,0.8-0.9,0.5c-0.1-0.7,0.5-0.9,0-1.4      c0.6,0.3,1.1-1.1,0.7-0.5c-0.3,0-0.5,0.4-0.7,0c0.5-0.2,1.1-0.5,1.2-1.2C49.4,47,49.2,47.4,49,47c0.9-0.6,2.6,1.2,2.4,0.7      c-0.7-0.4-0.8-1.3-1.2-1.9c0,0.2-0.4,0.3-0.5,0c0.7-0.3,1.2,0.3,1.7-0.5c-0.4-0.1-0.6,0.4-0.7,0c0.9-0.2,0.4-0.8,0.7-1.2      c0.8,0.5,0,1.2,0.7,1.7c0-0.4-0.1-0.9,0.2-0.9c0,0.1,0.2,0.3,0.2,0c-0.3-0.2-0.7-0.4-0.9-0.7c0.3,0,0.2-0.4,0.5-0.5      c0.3-0.1,0.6,0.9,0.7,0.2c-0.6-0.6-0.4-2-1.7-2.6c-0.1,0.2,0,0.5-0.2,0.5c-0.1-1,1.8-0.5,0.7-1.4c0.3-0.3,1.2-0.4,1.2,0.2      c-0.3,0.1-0.5,0.3-0.5,0.7c0.3,0,0.2,0.4,0.5,0.5c-0.5-1.3,0.1-0.5,0.5-0.7c-0.6-0.4-0.3-1-0.9-1.7c0.5,0.3,0.9,1.1,1.4,0.2      c-1.5-0.3-1.7-1.1-3.1-1.2c0,0.3,0.1,0.5,0.2,0.7c-0.2,0.1-0.5,0-0.5,0.2c0.6,0.3,1-0.7,1.2,0c-0.3,0-0.2,0.4-0.5,0.5      c0.1-0.1-1.6-0.3-0.9,0C50.5,40,50.7,40.2,50.7,40.6 M50.2,30.9c0.1,0.6,0.6,0.8,1.2,0.9c-0.1-0.4,1.1-0.7,0.5-0.9      C51.4,31.6,51.5,30.8,50.2,30.9 M52.6,27.6c0.3-0.5,1.2-0.2,0.7-0.5c-1.2-0.1-0.6,0.2-1.4,1.4c0.8,0.4,0.8,0.5,0.9,0      c0.3,0.1,0.5,0.3,0.5,0.7c-0.4,0-0.5,0.2-0.2,0.5c-0.3,0.1-0.6-0.9-0.7-0.2c0.1,0.4,0.7,0.4,0.9,0.7c-1.3,0.6-0.8,1.4-1.9,2.1      c0.2,0.7,0,1,0.2,1.2c0.3-0.4,1.2-0.3,1.4-0.7c-0.4,1.3,0.1,0.8,0,1.9c0-0.3,0.7-0.3,0.7,0c-0.5,0.4-1.3-0.1-1.9,0.2      c0.6,0.6,0,1.1,0.7,1.4c0.1-0.6,0.3-1.1,0.9-1.2c0,0.7,0.8,1.1,0.2,1.7c0.2,0.1,0.5,0,0.5,0.2c-0.9,0.3-0.4-0.9-1.2-0.7      c0,0.6,0.1,1.4-0.5,1.4c-0.5-0.7-0.2-1.7-1.2-2.4c-0.2,0.7-0.3,0.8,0.2,1.2c-0.2,0-0.3,0.2-0.5,0.2c-0.4,0-0.7-0.1-0.9-0.2      c-0.2,0.8-0.8,0.4-0.9,0.7c0.2,0,0.3,0.4,0,0.5c-0.1-0.4-0.3,0,0,0.2c-0.6,0.3-1.4-0.5-1.4,0c0.5-0.3-0.4,1.5,0.2,0.7      c0.5-1.1,1.6,0.1,1.4,0.7c0.5-0.4,0.1-0.9,0-1.4c1-0.3,0.8-0.2,1.4-0.9c0.3,1.5,0.7,0.6,1.4,1.9c0.7-0.1,0.7-0.8,1.2-0.9      c-0.4-0.1-0.6,0.4-0.7,0c0.5-0.1,0.8-0.5,1.2-0.7c-0.5,0.6,1,1.3,0.5,1.2c0-0.8,0-0.8,0.5-1.9c-0.7-0.1-0.7-0.7-0.9-1.2      c0.6-0.1,0.4-0.8,1.2-1.2c-0.7,0,0.2-1.5-0.5-1.4c-0.6,1,0-0.5-0.9,0.5c0-0.2-0.2-0.3-0.2-0.5c0.3-0.2,0.7-0.4,0.9-0.7      c-0.6-0.2-0.5-0.8-0.2-1.2c1,0.1-0.2,1.4,0.7,0.7c-0.4-1.2-0.6-1.2-1.2-2.1c1.1,0.1,0.2-0.6,0.5-0.9c-0.1,0.3-0.5,0.3-0.7,0.5      c0.7-0.4-0.4-1,0.2-1.2c0.2,0.8,0.9,0.9,1.4,0.9c0.6,0.7-0.5,0.9,0,1.2c0.3-0.3,1.1-0.6,1.4-0.2c0.7-0.4-0.6-0.7,0-0.9      c-0.1,0.3,0.7,0.8,0.7,0.2c-0.1-0.1-0.5-0.9,0-1.2c0.8,0.1-0.4,1.3,0.2,1.2c0.2-0.4,0.9-0.4,0.9-0.9c-0.3,0-0.6-0.1-0.2-0.2      c0.1,0,0.3-0.2,0-0.2c-0.3,0-0.3,0.3-0.7,0.2c0-0.2-0.2-0.3-0.2-0.5c0.4,0,0.8-0.2,0.9-0.5c-1-0.4,0.4-0.8-0.2-1.2      c-0.8,0.4,0.1,1.8-0.9,1.2c0.1,2.3-1.1,0.1-1.4,0.5c0.2,0.1-0.5,0.2-0.5,0.9c-0.3-0.8-0.9,0.1-1.2-0.5c0.2-0.1,1.2-0.5,0.5-0.7      C54,27.6,53,28.4,52.6,27.6 M45.9,7.7c0.3-0.5,2-0.8,1.4-1.4C46.9,6.7,46.2,7,45.9,7.7 M39.3,3.6c0,0.2-0.1,0.2-0.2,0.2      c-0.1,0.3-0.2-0.6-0.9,0.2c0,0.5,0.6,0.3,0.5,0.9c-0.6,0.4-0.8-0.2-1.4,0.2c-0.1,0.4,0.2,0.4,0.2,0.7c0.4-0.1-0.1-0.3,0-0.7      C38,5,37.8,6.8,38.1,6c0.7,0.3-2,2.2-1.4,0.9C36,7.2,37,7.9,36.5,8.1c0.2-0.1,0.4-0.2,0.5-0.5c0.6,0.4-0.4,1-0.7,1.2      c0.3,0.7,0.5-0.7,1.2-0.5c-0.3-0.6,0.7-1-0.2-0.9c0-0.6,0.8-0.1,0.9,0c-0.4,0.4-0.3,1.1,0.5,0.9c0.1-0.4-0.2-0.4-0.5-0.5      c0.1-0.2,0.2-0.4,0.2-0.7c1,0.3,0.3,1.1,0.7,1.4c-0.3,0.5-1.2-0.4-1.4,0.5C37.8,9,39,9.3,39.3,8.6c0.7,0.5-0.7,1.4-0.9,0.5      c0.4,0.4-0.7,2.7-1.2,1.7c-0.7,0.2,0.3,0.6,0.2,0.9c0.3,0,0.1-0.2,0-0.2c1.4-0.7,1.3-1.7,2.6-2.6c0.2,0,0.2,0.3,0.2,0.5      c0.2-0.2,0.2-0.5,0.7-0.5c-0.4-0.5,0-0.3,0-0.9c0.4,0,0.8,0.6,0,0.5c0,0.6,0.8,0.1,0.7-0.2c0.6,0.3,0.9,0.9,1.9,0.7      c0,0.4-0.1,0.9,0.2,0.9c0-0.6,0.5-0.5,0.7,0.5c0.9-0.5-0.9-0.9,0-1.4c0-0.3-0.4-0.2-0.7-0.2c0.4-0.5,0-0.3,0-0.9      C44.4,8,44.2,8.2,45,7.9c-0.6-0.1-0.6-0.4-1.7-0.5c0.1,0.2,0.2,0.4,0.2,0.7c-0.3-0.2-0.4-0.5-0.5-0.9c0.4,0.1,1.4-0.4,0.7-0.7      c0.9-0.5,1.5-1.2,2.4-0.9c0.4-0.1-0.1-0.3,0-0.7c0.6-0.3,1.5,0.1,1.2-0.2c0-0.2,0.1-0.2,0.2-0.2h0.5c-0.5,1.1,0.1,2-0.7,2.6      c0.1,0.1,0.4,1.2,0.5,0.5C48.5,8,46.5,8,46.9,9.1c-0.5-0.6-1.1,0.2-1.4-0.2c0.1,0.2,0.2,0.4,0.2,0.7c0.6-0.6,0.4,0.4,0.7,0.7      c0.4-0.1-0.1-0.3,0-0.7c0.2,0.1,0.4,0.2,0.7,0.2c-0.3,0.5-0.5,1.8-1.2,1.2c0,0.2,0.2,0.2,0.2,0.5c0.5-0.1,0.5-0.7,0.9-0.2      c0.5-0.1-0.3-0.6,0.2-0.9c0.2,0.7,1.9,0.1,1.4-0.2c1.2-0.2,2.3-2.3,2.4-0.5c1.3,0.9,1.9,0.7,2.4,0c-0.1,0.7,1.3,0,1.7,0      c0.4,0.1,0.2,0.7,0.9,0.5c0,0.9-0.2,0.1-0.7,0.2c0.4,0.6,0.6,0.4,1.2,0.2c-0.1-0.6-0.9-0.5-0.7-1.4c-0.2,0.1-0.4,0.2-0.7,0.2      c0-0.2,0.3-0.2,0.5-0.2c0-0.2-0.1-0.2-0.2-0.2c0.5,0,0.6,0.1,1.7-0.2c0,0.3,0.1,0.4,0.2,0.5c0,0.5-0.6-0.3-1.2,0      c0.1,0.3,0.4,0.6,0.5,0.2c-0.1,0.8,0.5,1.3,1.2,1.9c0.5,0-0.3-0.6,0-1.2c0.3,0.1,0.6,0.4,0.2,0.5c0.9,0.8,0.4,1.3,0.9,2.4      c-0.2,0-0.2,0.3-0.2,0.5c-1.4-0.5-0.7,0-2.4,0c0,0.3,0.4,0.2,0.7,0.2c0.1,1-0.6,0.3-0.7,0.7c-0.3-0.1-0.5-0.3-0.5-0.7      c-0.9,0.4,0.4,0.7,0.2,1.2c-0.8-0.5-0.2,0.5,0.5,0C56,13.9,57,15,57.1,14.1c0.4,0.7-1.3,1.5-1.9,1.4c0.4,0.9,1.4,0.2,1.7-0.7      c0.3,0.1,0.6,0.4,0.2,0.5c0,0.2,0.3,0.2,0.5,0.2c-0.1,0.4-0.7,0.2-0.5,0.9c-0.3,0-0.2-0.4-0.2-0.7c-0.2,0-0.2,0.2-0.5,0.2      c0.1,0.3,0.4,0.6,0.7,0.7c-0.4,0.4-1,0.6-1.4,0.9c1.2,0.1,0.3,1-0.5,0.5c-0.4,0.1-0.5,0.4-0.5,0.9c0.4,0,1-0.4,0.5,0      c0.2,0.6,0.8-0.4,1.2,0.2c0,0.3-0.2,0.1-0.2,0c-0.4,0.2-0.4,0.9-0.9,0.9c0.1,0.6,0.6-0.3,0.7-0.5c0.3,0.1,0.2,0.5,0.5,0.5      c-0.1,0.4-0.3-0.1-0.7,0c0.1,0.2,0.2,0.4,0.5,0.5c-0.1,0.3-0.4,0-0.5-0.2c-0.2,0.2-0.5,0.3-0.9,0.2c0.7,0.5,0.7,0.2,0,0.7      c0.1,0.5,0.6-0.3,0.9,0.2c-0.4,0.3-1.5,1.1-1.4,1.7c0,0.6-0.6-0.1-0.5-0.5c-0.2,0.2-0.4,1,0.2,0.9c-0.1,0.5-0.4,0.5-0.7,0.2      c0.7,0.9-1.1,1.4-0.5,2.4c-0.2,0-0.2-0.2-0.5-0.2c0.1,0.2,0.2,0.4,0.5,0.5c0.4-1.2,1,1,1.4-0.2c0.8,0.4-0.6,0.5-0.5,0.9      c2.1-0.6,0.5-0.7,1.2-1.9c-0.3,0-0.8,1-0.7,0c-0.2,0.2-0.4,0.4-0.5,0.7c-0.7,0.7,0.4-0.8-0.2-0.7c0.9-0.3-0.2-0.7,0.2-0.9      c0.1,0.3,0.9,0,1.9-1.2c0.7,0-0.3,1.2,0.2,0.5c0.7,0.2-0.2,0.5,0,0.9c-0.4-0.7-0.7-0.1-1.2-0.5c-0.5,1,1.7,1.4,0.5,1.7      c0.1,0.6,0.9,0,0.7-0.5c0.8-0.1,1.1,0.3,1.2,0.9c0.1-0.4,0.8-0.8,0.9-0.9c0.7-0.7,2.1-1.8,2.1-1.9c0,0.1-2.2-0.6-0.7-1.4      c1.6,0.2,0.5,0.2,2.1,0.5c-0.8,0.4-0.3,0.7-1.4,1.4c0.7,0,0.9-0.1,1.9,0.2c0.2-0.1,0.2-0.6,0-0.7c0-0.6,0.8,0,0.7,0.2      c0.5-0.1,0.5-0.7,0.9-0.2c-0.4-0.6,0.2-0.9-0.5-1.4c-0.4,0.9-1,0.2-1.4,1.2c-0.5-0.4,0.2-0.6-0.2-1.2c-0.5,0.4-1.2-0.6-1.7-0.9      c-1.1,0.3-0.3,0.4-1.4,0.5c-0.1,0.5,0.3,0.5,0.7,0.5c-0.3,0.8-0.9-0.1-0.9,1.2c1.1,0.2-0.4-0.7,0.7-0.5      c-0.2,1.9-2.2-0.4-2.4,1.2c-0.3-0.1-0.2-0.5-0.5-0.5c0.1-0.2,1,0,0.9-0.9c-0.4,0.2-0.2,0.7-0.7,0.2c0.9-0.1,0.9-1.9,1.9-1.2      c-0.1-0.3-0.4-0.6-0.7-0.7c0-0.3,0.2-0.1,0.2,0c0.2-0.2,0.2-0.5,0.7-0.5c-0.4,0.5,0,0.3,0,0.9c0.7-0.2-0.3-0.6,0.2-0.9      c0.7,0.6,0.7,0.6,1.7,0.7c-0.3-0.6,2-0.8,0.9-2.4c-0.7,0.2-1-0.3-1.9-0.2c0.4,0.7,0.2,0.9,0.5,1.4c0,0.3-0.2,0.1-0.2,0      c-0.7-0.2-0.6,0.3-1.2,0.2c0.4-0.4-0.3-0.7,0.2-1.2c0.6-0.2,0.5,0.5,0.9,0.5c0-0.5-0.6-0.3-0.5-0.9c-0.6,0.2-0.7,0.9-1.4,0.9      c-0.1-0.4,1.1-0.7,0.5-0.9c0.7-0.1,2-0.4,2.6-1.2c-0.4-0.1-1.2,0.3-1.9-0.5c1.1,0.2,2.5-0.1,2.8-1.2c0.2,0,0.2,0.3,0.2,0.5      c0.2,0,0.2-0.2,0.5-0.2c0-0.2-0.2-0.2-0.2-0.5c-0.6-0.5,0.3,0.1,0.5,0.2c0.3-0.1,0.4-0.4,0.7-0.5c-0.5,0.1-0.8-0.6-1.7-0.7      c0-0.3,0-0.7-0.2-0.7c0.4-0.4,1.3,1,1.7,0.7c0.7,0,0.3-1.1,1.2-0.9c-0.3,1.2,1.1,1.2,0.2,1.7c0,0.5,1-0.5,0.7,0.7      c0.3-0.1,0.4-0.4,0.7-0.5c0-0.3-0.2-0.1-0.2,0c-0.3-0.1-0.2-0.5-0.5-0.5c0.2-0.5,0.8-1,0.9-0.2c0.3-0.2,0.8-0.4,0.7-0.9      c-0.2,0.2-0.4,0.4-0.5,0.7c-0.6-0.4,0.5-0.9-0.7-0.5c0.4-1-0.1,0.1-0.7,0c0.1-0.7,1.1-0.4,1.7-0.7c-0.4-1.1-1.2,0.6-1.2-0.5      c-0.6,0.6-2.7,0.5-3.1-0.2c0.4-0.1,0.4,0.2,0.7,0.2c0.1-0.7-0.8-0.6-0.2-1.2c0.3,0.6,1.3,0.3,1.4,0.5c0.2-0.2,0.2-0.5,0.7-0.5      c-0.1-0.2-0.7-0.4-0.2-0.5c-0.1-0.4-0.4,0.2-0.5-0.2c-0.1-0.4,0.2-0.5,0.2-0.2c0.2-0.2,0.4-0.4,0.5-0.7c0.6-0.1,0.9,0,1.2,0.2      c-0.2,0.7-0.8-0.1-1.2,0c0.4,0.7,1.8,0.2,1.4,1.7c0.2,0,0.2-0.2,0.5-0.2c-0.2-0.3-0.2-0.9-0.7-0.9c0-0.5,0.6-0.5,1.2-0.5V11      c0.4-0.7,0.7-0.7,1.4-0.2c0.2,0,0.2-0.2,0.5-0.2c-0.6-0.2-2-1.1-2.8-0.2c-0.7-0.2,0.3-0.6,0-1.2c0.4,0.1,1,0.1,1.2,0.5      c0.7-0.3-0.3-1.2,0.2-1.4c0.3,0,0.1,0.2,0,0.2c0.2,0.4,0.7,0.2,0.2,0.7c0.6,0.3,0.6-1.1,0.7,0c0.3,0,0.2-0.4,0.2-0.7h0.9      c0,0.3-0.4,0.2-0.7,0.2c0,0.4-0.1,0.9,0.2,0.9c0.3-0.1,0.2-0.5,0-0.5c0.1-0.4,0.3,0.1,0.7,0c-0.4,0.2-0.7,1.4,0,0.7      c0.5,0.2-0.5,0.7-0.5,1.2c0.2,0,0.2-0.1,0.2-0.2c0.8,0.1-0.8,1-0.5,0c-1.4,0.8-1.3,0.8-1.7,0.9c-1.5,0.5-0.1,1-0.9,2.8      c1.6-0.5-0.2-1.3,1.4-1.7c0-0.4-0.8-0.1-0.9-0.5c0.1-0.5,1.2-0.1,1.7-0.2c-0.3,1-1.4,1.3-0.5,2.1c-0.6-0.1-1,0.8-1.9,0.2      c-0.4,0.6,1,0.5,0.2,0.7c0.2,0.2,0.4,0.4,0.7,0.5c-0.5,0.9,0.2,1.6-0.9,2.1c0-0.3,0-0.7-0.2-0.7c0.2-0.3,0.5-0.4,0.9-0.5      c0-0.2-0.2-0.2-0.2-0.5c-0.4,0.6-0.6,0.1-1.4,0.5c0.6-0.9-0.3,0.1-0.7-0.5c0.2,0.3,0.4,0.8,0.9,0.7c-0.2,1,0,0.6,0,1.7      c0.2-0.1,0.4-0.2,0.7-0.2c2.1,0.6-1.2,0.8-1.2-0.2c-0.7,0.2,0.6,0.4,0.2,0.9c-0.2,0.2-0.6,0.1-0.7,0.5c-0.4-0.1,0.1-0.3,0-0.7      c-1,0-0.3,1.5,0.2,1.4c0.6,0.6-0.8-0.4-0.7,0.5c0.3,0.5,1.4-0.4,0.5,0.5c0,0.5,0.9-0.1,0.9-0.5c0-0.6,0,0.6,0,0.7      c-0.3,0.5-1.2-0.2-1.7,0.5c0.2,0.7-0.5-0.9,0.2-1.4c-0.7-0.1-0.1-1.6-0.7-1.2c-0.8,0,0.5-0.8-0.2-0.7c0.2-0.7,1,0.1,1.4,0      c0-1.1-1.5-0.7-1.4-1.9c-0.7,0.3-0.9,0.1-1.2-0.5c-0.2,0.1-0.4,0.2-0.7,0.2c0.5,0.4,1.1,0.5,1.4,0.5c0.3,0.4,0.7,0.6,0.7,1.2      c-0.8,0.2-1.1,0-1.9,0.5c0,0.5,0.8-0.3,1.4,0c0,0.7-0.9,0.6-1.7,0.7c-0.2,0.7,0.8,0.3,0.5,1.2c-0.9-0.8-0.7,0.7-1.7,0.5      c0.1,0.3,0.4,0.6,0.5,0.2c0.4,0.2,0.1,0.5-0.2,0.5c0.1,0.3,1.6,0,1.9-0.2c0-0.3-0.2-0.1-0.2,0c-0.7-0.3,0.4-0.7,0.5-0.9      c-0.3-0.1-0.8-0.2-0.2-0.9c0.3,0,0.1,0.2,0,0.2c0.3,0.7,0.8-0.4,1.4-0.2c-0.7,0.5-1.3,1.2-1.4,2.4c0.6,0.1,0.8-0.3,0.7-0.9      c0.2,0.2,0.2,0.5,0.7,0.5c0.1,0.4-0.9,1.9,0.7,1.7c0,2.2-1.3,0.9-2.6,2.1c0.1,0.4,0.3-0.1,0.7,0c-0.3,0.2-0.1,0.9-0.7,0.7      c0-0.6-0.4-0.7-0.2-1.4c-1.8,0.8-0.4,2.9,0.9,2.8c-0.4,0.9-0.8,0.7-1.2,0.7c0,0.7,1.1,0.8,0.5,1.4c0.2-0.1,0.4-0.2,0.5-0.5      c0.7,0.1-0.4,0.4-0.2,0.7c-0.3-0.1-0.5-0.3-0.5-0.7c-0.5,0.1-0.1,1.2-0.9,0.9c0.7,0.3,0.3,0.9,0,1.4c-0.9,0.1-1.1-0.5-1.4-0.9      c-1.1,0.4,1,1.6-0.2,1.4c0.1,0.2,0.2,0.4,0.5,0.5c0.2,0,0.2-0.2,0.5-0.2c0-0.5-0.6-0.3-0.5-0.9c0.7,0,0.3,1.1,1.2,0.9      c-0.2,0.2-0.4,0.6,0,0.7c-0.1,0.4-0.4,0.5-0.9,0.5c0.1-0.3,0.5-0.2,0.5-0.5c-0.2-0.7-0.4,0.5-0.9,0.2c0,0.4,0.8,0.2,0.7,0.7      c-0.5-0.5-0.8,1.2-1.9,1.4c0.3,1.1,0.7-0.4,1.2,0.2c-0.2,1.2-1.1,1-0.7,1.9c-0.6,0-0.3,0.2-0.2,0.5c0.3,0.5-0.6-0.9-1.2,0      c0.3-0.5,0.8-0.9,1.2-1.4c0-0.5-1.1,0.4-0.5-0.5c-0.7,0-0.6,0.4-1.4,0.7c0.3-0.8-0.8-0.2-0.5-0.9c-0.6,0.5-0.5,0.3-1.4,0.2      c0,0.4,0.3,0.5,0.2,0.9c0.3-0.1,0.2-0.5,0-0.5c0.3-0.6,1.2,0.7,0.7,0.9c0.2-0.1,0.4-0.2,0.7-0.2c-0.1-0.5-0.9-0.2-0.7-0.9      c0.8,0.2,1.4,1,1.4,1.4c-0.2,0.7-0.6-0.3-0.9,0.2c0.1,0.3,0.4,0.6,0.5,0.2c0.3,0,0.2,0.4,0.2,0.7c0.2,0,0.2-0.3,0.2-0.5      c0.1-0.1,0.6,1.4,0.9,1.9c-0.5-0.4-0.5,0.2-0.9-0.2c0,0.7,0.5,0.8-0.2,0.5c-0.4,0.6,0.8,0.7,0.7,0.2c0.3,0,0.1,0.2,0,0.2      c0,0.2,0.3,0.2,0.5,0.2C56.7,42.9,58,41,58,42.5c-1.3-0.3-1.3-0.4-0.2-1.2c-0.6-0.5-1.3-0.5-1.7,0c0.2,0.4,0.5,0.1,0.5-0.2      c-0.6,0.9,1.4,2.1,0,2.8c0.8-0.1,0.6,0.7,1.4,1.4c-0.2,0.4-0.6,0.7-0.7,1.2c0.1,0.8,1-1.3,0.9,0c0.3-0.2,0.4-0.5,0.5-0.9      c-0.2-0.8-0.5,0-0.9-0.5c0.2-0.5,0.5-1.6-0.5-1.9c0.7-0.3,1.8-1.4,1.4-1.9c0.2-0.3,0.6,0.1,0.7-0.7c0.3,0.8,0.9,0,1.7,0      c-0.2-0.7-0.8,0.1-1.2,0c-0.1-0.3-0.4-0.6-0.7-0.7c0.2-1.1,0.2-1,0.7-1.9c0.2,0.7,1.2,0,0.7,0.9c0.5-0.1,0.5-0.7,0.9-0.2      c-0.8-0.5-0.7-2-0.2-3.1c0.6,0.4,0.8-0.3,1.2,0.2c0.5-0.1-0.3-0.4,0.2-0.7c-0.2,0.2-0.6,0.1-0.7,0.5c-0.7-0.5,0.7-0.7,0.9-0.9      c-0.3-0.4-0.8-0.9,0.2-0.9c-0.2-0.4-0.4,0-0.7,0c-0.7,0,1.1-0.8,0.2-0.9c0.9,0,0.2-0.7,1.9-0.7c-0.2-0.7-0.6-1.2-0.9-1.7      c0.1-0.5,0.8,0.2,0.7,0.7c0.5,0,0.1-0.8,0.2-1.2c-0.8,0.4-0.1,0-0.2-0.7c0.2,0.4,1,0.5,0.5,0.9c1.3-0.6,0.7-0.6,1.7-1.2      c-0.4,0-1.7-0.2-1.2,0.7c-1-0.7-0.3-1.4-0.5-2.1c0.7,0,0.9,0.5,1.2,0.9c0.3,0,0.1-0.2,0-0.2c0.2-0.3,0.6-0.5,0.9-0.7      c-0.5-0.5-1.1,1.1-1.7,0c1.1,0.2,0.3-3.3,0.7-0.7c0.5-0.4,0-1.3,0.9-0.7c-1.3-0.5,0.6-1.7,0.2-1.9c0.1-0.4,0.4,0.2,0.5-0.2      c0.6,0.2-0.5,0.5-0.5,0.9c1.3,0.5,1.2-1,1.9-1.7c-0.1-0.5-0.6-0.5-0.9-0.7c0.3-0.6,0.5-0.7,1.2-0.5c-0.4-0.3-0.7-0.6-0.9-0.9      c0.2-0.3,0.5-0.4,0.9-0.5c-0.5,0.5,0,1,0.5,1.2c0.1-0.4-0.2-0.4-0.5-0.5c-0.2-0.6,0.5-0.5,0.5-0.9c0.5,0.1,0.5,0.6,0.9,0.7      c-0.9-1.3-1.2-3-0.2-3.6c0.5,0.1-0.3,0.6,0.2,0.9c0.3,0,0.1-0.2,0-0.2c0.1-0.5,1,0,1.2,0.2c0.2,0,0.2-0.3,0.2-0.5      c-0.1-0.5-0.6,0.3-0.9-0.2c0.3-0.2,1.6-0.8,2.1-0.7c0.7,0.2-0.3,0.6-0.2,0.9c0.5,0,0.3-0.6,0.9-0.5c-0.1-0.2-0.2-0.4-0.2-0.7      c-1,0.2-1.2-0.4-2.1,0.5c-0.2-0.8,0.4-0.5-0.7-0.7c0.1-0.2,0.2-0.4,0.2-0.7c1.2,1,1.1-0.3,0.9-0.9c0.1-0.2,0.7-0.4,0.2-0.5      c0.1-0.6,0.9,0,0.7,0.5c0.5-0.6-0.3-0.6-0.2-1.2c0,0,0.6,0.5,0.7,0.5c0.3-0.3-0.8-0.7-1.2-1.2c0.3-0.1,1-0.4,1.4-0.9      c0.8,0.5,1.4,0.4,1.9-0.5c0.3,1.5,1.1,0.7,1.9,1.2v0.7c-0.6,0.4-1-0.1-1.2,0.2c-0.8-0.2-0.2-0.5,0-0.9c-1,0.2-0.2,0.9-0.9,1.2      c0.6,0.3,1.5,0.2,2.4-0.2c-0.2,0.7,0.3,0.6,0.2,1.2c-0.2-0.2-0.2-0.5-0.7-0.5c0.8,0.7,0.7,1.1-0.2,1.7c-0.6-0.1-0.4-0.8-1.2-0.7      c0.6,0.5,0.7,0.4,0.5,1.4c0.2-0.5,1.4-1.2,1.4,0c-0.2-0.1-0.4-0.2-0.5-0.5c-0.2,0.1-0.4,0.2-0.5,0.5c0.9,0-0.3,0.4,0.2,0.9      c-0.5-0.1-0.7,0.1-1.9,0.2c0.1,0.5,0.7,0.8,0.2,1.2c0.7-0.5,0.3,0.6,0.2,0.9c-0.3-0.1-0.4-0.4-0.7-0.5c0.4,0.8-0.1,0.2-0.5,0      c-0.3,0-0.1,0.2,0,0.2c-1.2,0.8,0.6,0.4-0.5,0.9c0.2,0.4,0.6,0.5,0.9,0.2c0.4-0.6-0.1,0.5-0.5,0.5c0.6,0.4,0.1,0.6,0.7,1.2      c-0.2-0.1,0.8-1.3,0.5-0.7c0.3-0.2,1.5,1,1.9,0.7c-0.2,0.5,1.1,1.8-0.5,1.9c0-0.2,0.3-0.2,0.5-0.2c-0.1-0.2-0.7-0.4-0.2-0.5      c-1.6-0.9-0.3,1.3,0.7,1.7c-0.2,0.3-1.3-0.1-0.5,0.7c-0.2,0.4-0.5,0.9-0.9,0.5c0.2,0.7,0.2,0.5,0,1.2c-0.3,0-0.7,0-0.7,0.2      c-0.2-0.2-0.4-0.4-0.5-0.7c-0.3,0.3-0.9,0.3-1.2,0c0.8,0.6,0.6,1.6,1.7,1.7c-0.4,1.6-0.6,1.9-0.9,3.8c-0.6-0.2-0.5,0.5-0.9,0.5      c-0.9-0.2-0.6-0.1-1.7-0.2c0.6,0.3,0.3,0.9-0.2,0.5c0.3,0.3,0.1,0.4,0,0.7c0.9-0.5-0.5,0.8,0.7,1.2c-0.2,0.4-0.6,0.5-0.9,0.2      c1.6,1.6,0.9-1.6,0.7-1.7c0.2-0.5,0.8-0.9,1.2-0.5c-0.5,0.6-0.3,2,0.7,1.9c0-0.2-0.3-0.2-0.5-0.2c0-0.3,0.4-0.2,0.7-0.2      c0-0.3-0.4-0.2-0.7-0.2c0-0.4,0.4-1,0-0.5c-0.7-0.1,0.4-0.4,0.2-0.7c0.3,0.3,0.5,0.7,0.7,0c-0.1,0.9,0.5,0.4,0.5,1.7      c-0.7,0-1.1,0.7-2.1,0.9c0.1,1.3,0.3,0.9,0.9,1.4c-0.2,0.4-0.6,0.7-0.7,1.2c-0.2-0.1-0.4-0.3-0.5,0c0.1-0.5,0-0.8-0.5-1.7      c0.4,0.1,0.4-0.2,0.7-0.2c-0.1-0.3-0.5-0.2-0.5-0.5c-0.1,0.4-0.2,1-0.9,0.2c0.1,0.5,0.5,0.8,0.7,1.2c-0.2,0.8-0.5,0-0.9,0.5      c0.2,0.7,0.8-0.1,1.2,0c-0.6,1.6,0.4-0.1,0.7,1.2c-0.5-0.9-0.9,1,0,0.7c0.5-0.6-0.2,0.7-0.9,0.2c0.1,0.2,0.2,0.4,0.5,0.5      c-0.2,0.7-0.4-0.6-0.9-0.2c0.1-0.3,0.4-0.6,0.7-0.7c-0.2-0.4-0.6-0.7-0.7-1.2c-0.3,0-0.1,0.2,0,0.2c0,0.3-0.4,0.2-0.7,0.2      c0.8,0.2,0,0.9,0.5,1.2c-0.2,0.3-0.5,0-0.9,0.5c1-0.1,0.5,0.9-0.2,0.5c-0.4,0.2-0.2,0.7-0.7,0.2c0.4,1.1,1.2-0.4,2.1-0.2      c-0.3,0.1,0,0.9-0.5,0.9c0.1,0.4,1.2-0.6,0.2,0.2c0.1,0.5,0.6,0.5,0.7,0.9c0-0.2,0.5-0.8,0.2-0.9c0.1-0.5,0.8,0.2,0.7,0.7      c-0.8-0.2-0.4,0.5,0,0.5c-0.2,0.4-0.4,0-0.7,0c0.1,0.2,0.2,0.4,0.5,0.5c0.9-0.1-0.2-1.1,0.9-1.2c0-0.4-0.8-0.1-0.9-0.5      c0.3-1.5-0.2-0.8,0-1.7c0.2-0.5,1-0.7,0.9,0.2h-0.7c0.7,0.7,0.6,0.1,0.2,1.4c0.3-0.1,0.9-1.6,0.9-0.5c0.6,0,0-0.8-0.2-0.7      c0.1-0.5,0.6-0.5,0.9-0.2c-0.2-0.2-0.3-0.5-0.2-0.9c-0.2,0.2-0.4,0.4-0.5,0.7c-0.5,0,0.2-0.9,0.2-1.2c0.5-0.1,0.6,0.2,0.9,0.2      c-0.2-0.6-1.4-0.9-0.7-1.7c0.5,0.2,0.7,0.7,0.9,1.2c0.4-0.3-0.7-1.1,0.5-1.2c0-0.7-1.1-0.3-0.9-1.2c0.4,0.2,0.7,0.6,1.2,0.7      c0.2-0.2,0.9-1.1,0.5-1.2c0.2-0.8,0.5,0.3,0.7,0.2c-0.1,0.3-0.4,0.6-0.7,0.7c0.1,0.8,1.1-0.7,0.9,0.5c0.4,0,0.1-0.8,0.5-0.9      c-1.2,0.8,0-1.4-1.9-0.9c0.1-0.5,0.4-0.5,0.7-0.2c-0.1-0.2-0.5-1.2-0.7-0.5c-0.9-0.4,0.6-0.4,0.2-0.9c0.2,0.1,0.4,0.2,0.7,0.2      c-0.3,0.3-0.1,0.6,0,0.2c0.5,0.4,0.1,1.7,0.7,1.9c-0.1-0.1,0.6-1.5-0.2-1.4c0.7-0.4,0.6-0.3,0.7-0.9c0.2,0,0.2,0.3,0.2,0.5      c0.4-0.1,0.2-0.7,0.9-0.5c-0.4-0.4-1.2-0.8,0-0.5c-0.2-0.2-0.3-0.5-0.2-0.9c0.7,0.4,0.7,0,1.7-0.2c0.1,0.8-1.1,1.5,0,1.9      c-0.1,0.5-0.6,0.5-0.7,0.9c-0.4-0.9-0.8,0.7-0.7-0.9c-0.4,0.4-0.6,1-0.9,1.4c1-0.4-0.8,0.8,1.2,0.2c-0.5-0.8,0.1,0,0.2-0.5      c0.4,0.1-0.2,0.4,0.2,0.5c-0.1,0.5-0.4-0.3-0.7,0.2c0.2,0.4,0.7,0.2,0.2,0.7c0.4,0,0.6-0.2,0.7-0.5c0.8,0.2-0.9,0.9-0.2,0.9      c-0.2,0.7-0.6-0.3-0.7-0.5c-0.6,0.5-0.5,0.6-1.2,0.7c0.1,0.3,0.6,0.2,0.9,0.2c-0.8,1.3,0.3-0.2,0.2,1.2c0.7,0.3,1.1-1.1,0.2-0.9      c0.5,0.1,2.7-1,1.9-0.5c-0.3,0.2-0.5,0.6-0.9,0.7c0.2,0.7,0.6-0.3,0.9-0.2c0-0.7-0.9,2.7-1.2,1.9c-0.2,0.7,0.7,0.5,0.5,1.2      c0.6-0.2,1.4-0.9,1.9-0.5c-0.1-0.2-0.2-0.4-0.2-0.7c-0.9,0.5-0.6-0.1-0.9-0.7c0-0.9,0.9-0.9,0.9-1.7c0.8,0.4,0.1,0,0.2-0.7h0.7      v0.9c0.4,0.1,0.4-0.2,0.7-0.2c-1.4-0.1,1.1-1.1,0.5-1.7c0.2-0.6,0.6,0.4,1.2,0.2c-0.5-0.6,0.1-0.6,0.2,0c0.2,0,0.2-0.2,0.5-0.2      c-0.1-0.7-1.3-0.1-1.2-0.9c0.4,0,0.8,0.2,0.9,0.5c0.2,0,0.2-0.2,0.5-0.2c0-0.2-0.3-0.2-0.5-0.2c0.5-1.5-0.2-0.9-0.7-0.7      c-0.4-0.1,0.2-0.4-0.2-0.5c0.2-0.2,0.8-0.2,1.7-0.2c-0.4,0.6,0.6,0.7,0,1.4c0.6,0.3,0.4-0.6,0.2-0.5c1.1-0.9,0.9,2.3,1.7,2.4      c-0.6,0.4-0.5,1.4-1.7,1.2c0.6,0.7-0.3,1.2-1.2,1.2c0,0.6,0.9,0.4,1.2,0.7c-0.2,0.7-0.5-0.2-0.9,0c-0.1,1.5-0.2,2.2,0.7,3.1      c-1-0.2-1.1-0.6-1.2-1.2c-0.5,0.1-0.6,0.5-1.2,0.5c0,0.3,0.4,0.2,0.7,0.2c-0.8,1.4-1.2,0.8-1.9,0.9c0,0.4,0.8,0.2,0.7,0.7      c0.3,0,0.1-0.2,0-0.2c0.1-0.7,1.3-0.1,1.2-0.9c0.9,0.4,0,0.3,0,0.9c-0.3-0.3-0.4-0.1-0.7,0c0.1,0.5,0.4-0.3,0.7,0.2      c-0.3,0.7,0.4,0.3-0.2,1.2c-0.4-0.3-0.4,0.3-1.4,0.5c0,0.3,0.2,0.1,0.2,0c0.3,0.1,0.1,0.7,0.5,0.7c-0.2,0.4-0.4,0-0.7,0      c-0.2,0.8,0.8,0.3,0.9,0.7c0,0.6-0.4,0.7-0.5,1.2c-0.3,0-0.1-0.2,0-0.2c-1-1-0.9,1.1-1.2-0.5c-0.3,0.1-0.1,1.6-0.5,0.5      c-0.5,0.2,0,1.4,0.5,1.4c0.5-0.1,0.5-0.4,0.2-0.7c0.1-0.8,0.5,1.2,0.7,0.2c0.6,0.1-0.2,0.7-0.7,0.5c0.5,0.5-0.1,0.5-0.2,0.9      c0.1,0.7,0.7,0.7,1.2,0.9c-0.1,0.3-0.4,0.4-0.5,0.7c0,0.2,0.2,0.2,0.2,0.5c0.2-0.2-0.1-0.8,0.5-1.2c0.5,0,0.5,0.6,0.5,1.2      c0.6-0.3,1.6-0.7,1.2,0.2c0.4,0,0.6-0.2,0.7-0.5c-0.3,0.2,0.5,1.5-0.2,0.9c0.1,0.2,0.2,0.4,0.5,0.5c0.2,0,0.2-0.3,0.2-0.5      c0.9,0.3-0.2,1.3,0.7,1.4c-0.3,0.6-1.3-0.4-0.7-0.7c-0.2,0.2-0.6,0.1-0.7,0.5c0,0.3,0.2,0.1,0.2,0c0.8,0.3,0.3,1.2,0.9,0.7      c0.5,0.1-0.7,0.6-0.7,0.9c0.2,0.6,0.7-0.8,1.2,0c-0.9,0.6-0.9,0.7-2.1,0.9c-0.1,0.2,0.1,0.5,0.2,0.5c-0.9,0.7-0.4,0.4-0.5,0.9      c-0.3,1.4-0.2,1.9-1.4,2.8c0.5,0.2,1.5-1.2,2.1-1.7c0.1,0.6,1.6,0.7,0.9,1.4h0.9c0.2,0.2,0.1,0.6,0.5,0.7      c-0.1,0.5-0.6-0.4-0.7,0.5c0.2,0.3,0.6-0.1,1.2,0.2c-0.2,0.7-0.4,0.3-0.9,0.2c-0.2,0.4,0.7,0.8,0,0.9c0.2,0.6,0.5-0.7,0.9,0      c-0.8,0.9-1.3,2-1.4,2.6c-0.1,0.3-0.4,0-0.5-0.2c0.1,0.2-0.4,1.4-0.2,1.4C88,69,87.5,67.9,87,68.1c0-0.2,0.1-0.2,0.2-0.2      c-0.1-0.5-0.4,0.3-0.7-0.2c0.5,0.6,0.2,0.6,0.5,1.2c0.3-0.2-0.1-0.8,0.7-0.2v0.5c-1-0.2-0.6,1.3-1.9,1.9c0,0.3,1,0.4,0,0.5      c0.4,0.3,0.6,0.8,0.7,1.4c-0.5,0.3-0.9,0.7-1.2,1.2c-0.3,0-0.1-0.3-0.5-0.7c0,0.5-0.4,1.4-0.2,1.9c0.2,0,0.2-0.3,0.2-0.5      c0.5,0.2,0,1.2-0.7,0.9c-0.2,0.9,0.4,1.8,0,2.1c0.7-0.5,0.4,0.3,0,0.5c0.7-0.4,2.2,0.2,2.8-0.9c0.1,0.7-0.2,1.7-0.7,1.2      c0.1,0.2,0.2,0.4,0.2,0.7c0.5-0.2,0.4-1,1.2-0.9c-0.7-0.7-0.1-1.2,0-0.5c0.6-0.7-0.4-0.5-0.7-0.7c0.7-0.7,1.5-0.2,2.1-0.7      c-0.8-0.5,0.8,0.1,0,0.2c0,0.2,0.3,0.2,0.5,0.2c-0.3,0.3-1.1,0.6-1.4,0.2c0,1.6,0.4,0.1,0.7,0.9c0.2,0,0.2-0.3,0.2-0.5      c0.4,0,0.5,0.3,0.9,0.2c0,0.4-0.6,0.8-0.5,0c-0.5,0.2-0.7,0.7-0.7,1.4c-1.1-0.7-0.5,0-1.2,0.5c-0.5,0.1-0.6-0.2-0.9-0.2      c-0.3,0.1-0.4,0.4-0.7,0.5c0.1,0.5,0.6-0.3,0.9,0.2c0.2,0.6-0.5,0.5-0.5,0.9c-0.5-0.4-0.2-0.4-0.9-0.2c-0.1,0.5,0,0.7,0.5,0.7      c0,0.6-0.8,0.5-1.4,0.5c0.1,0.2,0.2,0.4,0.2,0.7c-0.2-0.5-1.2-0.1-0.5,0.2c-0.9,0.4-0.9-0.4-1.2-0.5c-0.3,0.1-0.2,0.6-0.2,0.9      c-0.8-0.4-0.3-1.1,0.2-1.4c0-0.5-0.6,0.3-1.2,0c0.1,0.4,0.1,1,0.5,1.2c-0.3,0.6-0.9-0.5-0.9-0.9c-0.3,0.2,0,0.5-0.5,0.9      c1-0.5-0.2,0.2,0,0.9c-0.8-0.6,0.1-0.6-1.2-0.7c-0.1,0.5,0.3,0.5,0.7,0.5c-0.4,0.5,0,0.3,0,0.9c-0.7,0.4-0.3,0-0.7,0.7      c-0.3-0.6-0.8,0.5-0.7-0.5c-0.6-0.1,0.1,1.1-0.7,0.7c0.2,0.2,0.4,0.4,0.7,0.5c0.3-0.5,0-0.2,0.5-0.5c0.8,0.3-1.2,0.8-0.5,0.9      c-0.1,0.3-0.5,0.2-0.5,0.5c-0.7-0.2,0.3-0.6,0.2-0.9c-0.8-0.1-0.6,0.8-0.9,1.2c-0.4-0.6-0.7-0.2-1.2,0.2c-0.1-1.2-2,0-3.1-0.7      c-0.2,0.7,0.8,0.3,0.5,1.2c-0.8-0.4-0.2,0.9-0.9,1.4c-0.4-0.2,0-0.4,0-0.7c-0.6,0.3-0.8,1-0.9,1.7c-0.8-0.2-2.5-0.6-3.3-0.2      c-0.5-0.5-1-1-0.7-1.7c-0.6,0.3-0.4,0.5-1.2,0.2c-0.7-0.1,0.6,0.7-0.2,0.7c0.2,0.4,0.4-0.1,0.9,0.2c-0.2-0.2-0.5-0.2-0.5-0.7      c0.4,0.1,0.6,0.4,0.9,0.5c-1,1.8-2.6,3-4.5,3.3c-0.5-0.4,0.3-0.7-0.5-0.9c-0.3,0.1-0.2,0.5,0,0.5c-0.1,0.4-0.3-0.1-0.7,0      c0.9-1.3-1.3-1.5-0.2-2.1c-0.1-0.4-0.3,0.1-0.7,0c0-0.4-0.3-0.5-0.2-0.9c1.2,0,0.6-1.8,1.7-1.9c-0.1-0.4-0.3,0.1-0.7,0      c-0.1-0.5,0.3-0.5,0.7-0.5c0-0.3-0.4-0.2-0.7-0.2v-0.9h0.9c-0.2-0.7-0.4-0.3-0.9-0.2c0.3-0.6,0.8-0.9,1.4-1.2      c-0.1-0.9-0.4-1.4-0.5-1.7c0.1-0.5,0.4,0.3,0.7-0.2c0.1-0.3-0.9-0.6-0.2-0.7c0.3,0.5,0.6,0.4,1.7,0.7c-0.4-0.8-1.2-1.4,0.2-1.2      v-0.5c-0.9-0.3-0.3-0.9-0.9-0.9c-0.7,0,1.6-0.4,0.2-0.9c-0.6-0.6,0.8,0.3,0.9-0.2c0.1-0.6-0.4-0.5-0.2-1.2h1.2      c-0.7-0.6-0.2-0.6,0-1.4c0.3-0.7,0.3,0.7,0,0.7c0.5-0.1,0.4-0.7,1.2-0.5c-0.3-0.6-0.8-1.5-0.7-1.2c-0.5-0.4,0.9-0.9,1.2-1.2      c-0.2-0.2-0.4-0.4-0.7-0.5v-0.5c0.2-0.4,0.3,0.1,0.2,0.5c0.2-0.2,0.2-0.5,0.7-0.5c0.3-0.8-0.8-0.2-0.5-0.9      c0.2,0.1,0.4,0.3,0.5,0c0.3,0,0.2,0.4,0.2,0.7c0.7-0.2-0.1-0.8,0-1.2c0.8,0.7-0.1-0.8,1.2-0.7c-0.1,0.5-0.7,0.5-0.2,0.9      c0.2,0,0.2-0.3,0.2-0.5c0.2,0,0.2,0.1,0.2,0.2c0.4-0.1-0.2-0.4,0.2-0.5c-0.5-0.3-0.9-0.9-0.9-1.7c0.8-0.4,0.6-0.8,0.2-1.4      c0.2,0.2,0.6,0.1,0.7,0.5c0.4,0,0.2-0.8,0.7-0.7c0.1-0.5-0.7,0-0.7,0.2c-0.2-0.4,0.2-1.6,0.9-0.7c0-0.4-0.3-0.5-0.2-0.9      c-0.4-0.1-0.4,0.2-0.7,0.2c-0.5,0.6,0.4-0.6,0.5-0.9c0.5-0.1,0.6,0.2,0.9,0.2c0.2,0,0.2-0.3,0.2-0.5c-0.8,0-0.3-1.1,0.7-0.5      c0-0.2-0.3-0.2-0.5-0.2c0.5-0.3,1.2-0.3,1.4,0.2c0.4-0.1-0.1-0.3,0-0.7c-1.1,0.2-0.9-0.2-2.1,0.2c0-0.2,0.1-0.2,0.2-0.2      c0-0.3-0.4-0.2-0.7-0.2c0-0.3,0-0.7-0.2-0.7c0.2,0,1.9,0.3,1.2,0.9c0.2-0.1,0.4-0.2,0.5-0.5c-1.2-0.4,0.1-1.1-0.5-1.9      c0.8-1,0.9-0.1,2.1-0.5v0.7c-0.2,0-0.2-0.3-0.2-0.5c-0.2,0-0.2,0.2-0.5,0.2c0.2,0.4,0.7,0.2,0.2,0.7c0.3-0.1,0.6-0.4,0.7-0.7      c0-0.6-0.4-0.7-0.5-1.2c-0.6,0-1.2,0-1.2,0.5c-0.9-0.7,0.8-0.9,0.5-1.9c-0.5,0.8-1.8,1.5-2.6,0.7c0.2,0.4,0.7,0.6,0.5,1.4      c0.8-1.6,0.8,1.2-0.9,1.2c0.3,0.4,0.8,0.5-0.2,0.5c0.8,0.4,0.8,0.8-0.2,1.4c0.1,0.4,0.3-0.1,0.7,0c0,0.3,0.1,0.4,0.2,0.5      c0,0.3-0.2,0.1-0.2,0c-0.2,0.2-0.4,0.4-0.5,0.7c-0.7,0.2-0.7-0.4-1.4-0.2c0.2,0.5,1.4,0.1,1.2,0.9c-0.3-0.1-0.4-0.4-0.7-0.5      c-0.7-0.1,0.6,0.7-0.2,0.7c0.9,0.1-0.3,1.4-0.9,1.7c0.5-0.3-0.3-0.6,0.2-0.7c-0.2-0.2-0.4-0.4-0.7-0.5c0.2,0.2,0.1,0.6,0.5,0.7      c-1,1.2-1,0.5-0.9,1.9c0.5,0,0.3-0.6,0.9-0.5c-0.5,0.5,0.3,0.7,0.2,1.4c-0.2,0-0.2-0.1-0.2-0.2c-0.5,0.2-0.1,1.4-0.9,1.2      c0.4-0.4,0.3-1.1-0.5-0.9c0.5,0.7,0.6,1-0.7,0.9c0.1-0.3,0.4-0.4,0.5-0.7c-0.8,0.3-0.5,0.4-1.4,0.5c0.2,0.7,0.6-0.3,0.9,0.2      c0,0.4,0.1,0.9-0.2,0.9c0.1,0.6,0.4-0.3,0.9,0c-0.1,0.3-0.4,0.4-0.5,0.7c0.6-0.3,0.7-0.5,0.5-1.2c0.2,0.1,0.4,0.3,0.5,0      c0.3,0.1,0.2,0.5,0.5,0.5c-0.8,0.1-1.5,2.1-1.9,1.2c-0.8,0.2-0.4,0.8-0.7,0.9c0.2,0.2,0.4,0.4,0.7,0.5c-0.6,0.5-0.3,0.4-0.5,1.4      c-0.8-0.2-0.1-0.4-0.2-1.2c-0.4,0.6-3.3-0.8-2.4,0.9c0.3-0.1,0-0.4-0.2-0.5c0.3-0.5,0.9,0.5,1.2,0.7c0.7-0.2-0.6-0.4-0.2-0.9      c0.6-0.4,0.5,1,0.7,0.2c0.4,0.1-0.3,0.8,0.7,0.7c-0.1,0.2-0.3,0.4,0,0.5c-0.1,0.6-0.4-0.3-0.9,0c0.8,0.7,0,0.8-1.2,0.9      c0.2-0.6-0.5-0.5-0.5-0.9c-0.7,0.2,0.3,0.6,0,1.2c0.9,1.2,0.9-0.9,1.2,0.7c-0.3,0.3-1.1-0.1-0.5,0.5c-0.1,0.3-0.4,0-0.5-0.2      c-0.2,0-0.2,0.2-0.5,0.2c0,0.3,0.2,0.1,0.2,0c0.7,0-0.3,1.2,0.2,0.5c0.4-0.1,0,0.9-0.5,0.7V80c-0.3,0.1-0.4,0.4-0.7,0.5      c0,0.3,0.2,0.1,0.2,0c0.3,0.1,0.2,0.5,0.5,0.5c-0.4-0.2-0.6,0.9-1.2,0.5c-0.1,0.3,0.7,0.8,0.7,0.2c0.3-0.7,0.3,0.4,0,0.5      c-0.4,0.1-0.4-0.2-0.7-0.2c-0.1,0.4,0.2,0.4,0.2,0.7c0.4,0.1,0.4-0.2,0.7-0.2c0.8,0.1-1.2,0.5-0.2,0.7c0,0.6-0.8,0-0.7-0.2      c-0.7,0.2,0.6,0.4,0.2,0.9c-0.2-0.2-0.6-0.1-0.7-0.5c-0.7,0.1,0.4,0.4,0.2,0.7c-0.5-0.2-1.5,0.7-1.7,1.7      c0.6,0.1,0.2-0.9,0.9-0.7c-0.1,0.5-0.7,0.4-0.5,1.2c-0.2-0.1-0.4-0.3-0.5,0c-0.3,0-0.2-0.4-0.2-0.7c-0.5,0.4-0.3,0-0.9,0      c0,0.6,1,0.2,0.7,1.2c-0.2,0-0.2-0.2-0.5-0.2c-0.1,0.4,0.2,0.4,0.5,0.5v0.9c-0.8-1.3-0.5,1.4-1.2,1.7c-0.6,0.5,0.3-0.5,0.2-0.9      c-0.6-0.1-0.2,0.9-0.9,0.7c0.8,1,0.2,1.2,0.2,1.9c-0.2,0.6-0.4-0.6-1.2-0.2c0.2,0.3,0.8,0.3,0.9,0.7c-0.3,0.4-0.6,0.8-0.9,1.2      c1.4,0-1,1.3-0.7,1.7c0,0.6-0.6-0.1-0.5-0.5h-0.7c0.2,0.2,0.4,0.4,0.7,0.5c0,0.7-1.2-0.3-0.5,0.2c-0.9,1-3.3-0.5-4.3-0.7      c1.1-0.1-0.7-1.5,0.5-2.1c-0.6,0.7,0.2,1.2,0.2,1.9c0.2-0.5,0.2-1,0.9-1.4c-0.3-0.7-0.5,0.7-1.2,0.5c0.3-1,0-0.8-0.2-1.7      c-0.4,0-0.1,0.8-0.5,0.9c-0.2-0.5-1.8-0.8-0.7-1.2c-0.1-0.6-0.4,0.3-0.9,0c-0.4-0.3-0.2-1.2-0.2-1.9h0.7c0,0.7-0.5,0.8,0.2,0.5      c0.5-0.6-0.1,0.3-0.2,0.5c0.2,1.1,1-0.4,1.4,0.2c-1-1.3-2.2-2.1-2.4-2.6c0.1-0.2,0.3-0.4,0-0.5c0.1-0.3,0.4,0,0.5,0.2      c0-0.4,0.8-1.8,0.2-2.1c1.1-0.5,0.4-0.4,1.4-0.9c-0.6-0.2-1.3,0.2-1.7,0.2c-0.2-0.2,0.1-1.1-0.7-1.2c-0.1,0.4,0.2,0.4,0.5,0.5      c0.1,0.5-0.7,0.3-0.7,0.7c0.2,0.4,0.4-0.1,0.9,0.2c-0.2,0.5-0.4,1.1-0.7,1.4c-0.4-1-1.3,0.6-0.9-0.5c-0.2,0.1-0.4,0.2-0.5,0.5      c0.2,0.7,0.8-0.1,1.2,0c0.1,0.2,0.2,0.4,0.2,0.7c-0.2,0-0.2-0.3-0.2-0.5c-1.2,1.2-1.6,0.2-2.8,0.9c-0.8-0.3,0-0.6-0.7-0.9      c-0.2,0.1-0.4,0.2-0.5,0.5c-0.1-0.4-0.2-0.3-0.5-0.9c-1.8,0.4-2.6-1.2-4-0.7c0.4-0.3-0.4-1.2,0.2-1.7c-0.1-0.3-0.2,0-0.5,0      c-0.5,0.3,0.5-0.6,0.9-0.5c-0.7-0.9-1.6,0.5-0.9-0.9c-0.2,0.1-0.4,0.2-0.5,0.5c-0.3-0.1,0.2-1.1-0.2-1.7c0.5,0.7,1,0,1.4,0.7      c0.7-0.1-0.4-0.4-0.2-0.7c-0.3,0-0.4,0.1-0.5,0.2c-0.6-0.1,0.5-1.4-0.5-0.7c-0.5,0.6,0.1-0.3,0.2-0.5c0.9,0.9,0.6-0.5,1.9,0.2      c-0.1-0.2-0.2-0.4-0.2-0.7c-0.2,0.1-0.4,0.2-0.5,0.5c-0.3-0.6-1-0.7-0.9-1.7c0.4,0.1,0.4-0.2,0.5-0.5c0.2,0.1,0.4,0.2,0.5,0.5      c0.6-0.3,0.1-2.4,0.9-1.7c-1-0.3-0.7-1.8-0.7-2.4c1.2-0.7,0.7-0.9,1.2-1.7c-0.1-0.3-0.4,0-0.5,0.2c-0.9-0.4,1-1,0.2-1.2      c0.6,0,0.6-0.8,0.7-1.4c0.5,0.1-0.4,0.7,0.5,0.2c-0.1-0.5-0.7-0.4-0.5-1.2c0.6,0.3,1,0.5,0.5-0.2c0.6-0.1,1.4-0.1,0.5-1.2      c0.7-0.4,0.5,0.2,0.7-0.7c0.2,0,0.2,0.3,0.2,0.5c0.7-1.3-1.5,0.6-1.2-1.4c0.3,0.2,0.4,0.5,0.5,0.9c0.5-0.6,0.4-0.7,1.4-0.5      c-0.1-0.2-1.1-0.6-0.9-0.2c0.1-0.9-0.3-0.1,0.2-1.4c0.8,0.6,1,0.1,1.7,0.7c-0.4-0.8-1.7-0.6-1.2-1.9c0-0.2-0.1-0.2-0.2-0.2      c-0.6-0.5,0.8,0,0.7,0.5c0.2-0.2,0.4-0.4,0.5-0.7c0.1,0.8,0.3,0.8,1.2,0.2c0-0.2-0.2-0.2-0.2-0.5c0,0.2-0.4,1-0.5-0.2      c-0.6,0.6-0.2-0.5-1.2-0.2c0.1,0.4,0.7,0.2,0.5,0.9c-1.6-0.9,0.9-2.4-0.7-2.8c0.3-0.6,1.1,0.5,1.4,0.7c-0.1,0.5-0.6,0.5-0.9,0.7      c0.1,0.8,1-0.6,1.2,0.2c0.3-0.1,0.2-0.5,0.5-0.5c0-0.3-0.2-0.1-0.2,0c-0.3-0.4-0.5-0.9-0.9-1.2c0.3-0.3,1.4-1,0.7-1.4      c0.4-0.1,0.4-0.5,1.2-0.2c-0.1-0.4-0.4-0.5-0.9-0.5c0.3-0.3,0.1-1.3,0.7-0.7c-0.4-0.8-0.2-1-0.9-1.7c0.2-0.2,0.7-0.3,1.2,0      c-0.1-0.4-0.4-0.5-0.9-0.5c0-0.6,0.4-0.7,0.7-0.9c0-0.2-0.8-0.7-0.7-0.2c-0.2,0-0.2-0.3-0.2-0.5c-0.3,0.1-0.2,0.6-0.2,0.9      c-0.4-0.4-1.4-0.1-1.2-0.9c-0.8,0.1,0.7,1.1-0.5,0.9c1.4,0-0.1,1.9,0.7,2.6c-0.5-0.1-0.3,0.5-0.7,0.5c0.1,0.3,0.4,0,0.5-0.2      c0.7,0.2-0.2,0.5,0,0.9c-0.2-0.1-0.4-0.2-0.7-0.2c0.2,0.2,0.5,0.5,0.7,0.7c0,0.3-0.2,0.1-0.2,0c-0.3,0.1-0.2,0.5,0,0.5      c-0.2,0.7-0.4-0.6-0.9-0.2c-0.4,0.1,0.1,0.3,0,0.7h-0.5c0,0.6,0.8,0,0.7-0.2c0.4,0.1,0.5,0.4,0.5,0.9c-0.2,0-0.2-0.3-0.2-0.5      c-0.4,0.6-0.5,0.1-0.9,0.7c0.3,0.5,0.8,0.8,1.4,0.9c-0.1,0.3-0.5,0.2-0.5,0c-0.2,0.1-0.4,0.2-0.5,0.5c-0.7-0.1,0.4-0.4,0.2-0.7      c-0.7,0-1,0.4-1.2,0.9c0.2,0,0.2-0.1,0.2-0.2c0.5,0-1.1,1.4,0.5,1.2c-0.6,0.2-0.5,1.1-1.4,0.9c0.8,0.4-0.9,0.9,0.2,0.9      c-0.8,0.4-1.3,1.1-2.1,1.4c0.1,0.5,0.6-0.3,0.9,0.2c-0.3-0.5-0.3-0.5,0.2-0.2c-0.1,0.6-1.2,0.4-1.2,1.2      c-0.2-0.3-0.9-0.1-0.7-0.7c0.2,0.1,0.4,0.2,0.7,0.2c-0.4-0.4-0.7-0.7-0.9-1.2c-0.9,0.6,0.7,1.5,0,1.9c0.9-0.5,0.5,0.2,1.2,0.5      c-0.1,0.5-0.4,0.5-0.7,0.2c1,0.9-0.2,1.5,0,2.4c-0.6,0.1-0.7,0.4-1.4,0.9c-0.1,0.3,0.7,0.8,0.7,0.2c0.3,0.1,0.2,0.5,0.5,0.5      c-1.9-0.2-0.9,0.7-0.9,1.7c0,0.7-1.2,1-0.2,1.2c-0.4,0.5-0.4,0.2-0.2,0.9c-0.8-0.4-0.5-0.6-0.7-1.4c0.4,0,0.6-0.2,0.7-0.5      c0-0.2-0.2-0.2-0.2-0.5c-0.8,0.7-0.7,1.4-0.9,2.1c0.4,0.4,0.8-0.2,1.2,0.5c-0.3,0.4-0.8,0-1.2,0.7c0,0.3,0.2,0.1,0.2,0      c0.4,0.2,0,0.4,0,0.7c1.2,0.1-0.8,0.4-0.5,1.9c-0.6,0-0.3-0.2-0.2-0.5c-0.2,0.1-0.4,0.2-0.5,0.5c0,0.5,0.2,0.8,0.7,0.7      c-0.1,0.3-0.5,0.2-0.5,0.5c-0.2-0.2-0.2-0.5-0.7-0.5c0-0.2,0.2-0.2,0.2-0.5c-1,0.6,0.6,1.7-0.5,2.4c-0.4-0.2,0-0.4,0-0.7      c-0.2,0-0.2,0.2-0.5,0.2c0.4,1.4-0.1,2.6-1.2,2.6c-0.1,0.5,0.3,0.5,0.7,0.5c-0.5,0.2-0.2,1.2-0.9,1.2c0.2,0.2,0.5,0.2,0.5,0.7      c-0.4,0.1-0.4-0.2-0.7-0.2c0.3,0.8-0.1,0.4,0.5,0.7v0.5c-0.4,0-0.5-0.3-0.9-0.2c0.1,0.4,0.7,0.2,0.5,0.9      c-0.3-0.1-0.6-0.4-0.7-0.7c-0.6,0-0.5,0.4-0.9,0c0.2,0.3,0.4,0.8,0.9,0.7c0.2,0.8-0.2,0.9-0.5,1.2c-0.3-0.2-0.2-0.5,0-0.9      c-1.2,1.5-3.1,0.7-3.8-0.2c-0.4,0.1,0.1,0.3,0,0.7C26,90.4,26,89,25.8,89.7c0,0.3-0.5-1.2-0.2-1.7c-0.5-0.1-0.3,0.7-0.7,0.7      c0.1,0.5,0.4-0.3,0.7,0.2c0,0.4-0.8,0.1-0.9,0.5c1.1-0.1,0.3,1.7-0.2,2.6c-0.3-0.1-0.4-0.4-0.7-0.5c0.1,0.6,0.6,0.8,0.7,1.4      c-0.6-0.9-0.3,1.3-0.7,0c-0.7,0.2,0.3,0.6,0,1.2c-0.5,0.4-0.3,0-0.9,0c0.1,0.3,0.3,0.5,0.7,0.5c-0.1,0.3-0.4,0.4-0.5,0.7      c-1-0.3-0.2-1.1-0.9-1.7c-0.2,0-0.2,0.2-0.5,0.2c0,1,1.2,0.7,0.9,1.9c-0.4-0.5-0.8-0.7-0.5,0.2c-0.2-0.1-0.4-0.3-0.5,0      c-0.2,0-0.2-0.3-0.2-0.5c-0.3,1.2-1.3-0.5-1.2,0.5h-0.9c0-0.2,0.3-0.2,0.5-0.2c0-0.2-0.1-0.2-0.2-0.2c0-0.2,0.3-0.2,0.5-0.2      c0-0.4-0.3-0.5-0.2-0.9c-0.4-0.1-0.4,0.2-0.7,0.2c0,0.3,0,0.7,0.2,0.7c-1.1,0.6,0.1-2.2-1.4-1.2c0.2-0.3,0.2-0.9,0.9-0.7      c-0.2-0.4-0.8-0.4-1.2-0.7c0-0.5,1.1-1,0.5-1.4c0.2-0.4,0.4,0,0.7,0c-0.3-0.3-0.2-0.5,0.2-0.5c-0.5-0.6-1-2.3,0-1.9      c-0.7-0.8,0.4-0.9,0.7-1.4c-0.6-0.5,0.1-1.2-0.7-1.2c-0.7,0.7,0.5-1,0.7,0c0.6,0.1-0.1-1.1,0.7-0.7c0-0.2-0.2-0.2-0.2-0.5      c-0.2,0.2-0.5,0.5-0.7,0.7c-0.3-0.3,0.3-0.7,0.2-1.2c0.6,0.5,0.6-0.1,0-0.2c0.1-0.3,0.2,0,0.5,0c0-0.4-0.2-0.6-0.5-0.7      c0.2-0.4,0.4,0,0.7,0c-0.1-0.3-0.4-0.6-0.7-0.7c0.1-0.6,0.4,0.3,0.9,0c0.4-0.9-1.1-1.1-0.5-1.4c0,0,0.4-0.2,0.7,0.5      c0.3-0.1,0.6-0.4,0.2-0.5c0-0.2,0.3-0.2,0.5-0.2c-0.7-0.3,0-0.6-0.5-0.9c-0.1-0.7,0.9,0.6,0.9-0.2c-0.2-0.3-0.4,0.1-0.7-0.5      c0.2-0.3,0.5-0.4,0.9-0.5c-0.2-0.7-0.5,0.2-0.9,0c0.3-0.6,0.8-0.7,1.4-0.5c-0.4-0.3-0.7-1.1-0.9-0.2c-0.4-0.2-0.5-0.6-0.2-0.9      c-0.5,0.3-1.1,0.3-0.7,0.5c-1.4,0.5,0.2-1.3,0.7-1.7c0-0.2-0.2-0.2-0.2-0.5c0,0.5-0.9,1.5-1.4,2.1c1.3,0.9-0.6,1,0.2,1.9      c0.3,0,0.1-0.2,0-0.2c0.1-0.3,0.5-0.2,0.5-0.5c-0.1,0.6-1,2.4-1.9,3.1c0.5,1.4-0.6,0-0.5,2.6c-0.3-0.6-0.8,0.5-0.7-0.5      c-0.1,0.9,0.9,1.2-0.5,2.4c0,0.3,0.4,0.2,0.7,0.2c-0.2,0.3-0.3,0.6-0.2,1.2c-0.5-0.1-0.7,0-0.7,0.5c-0.8,0.3-0.2-0.8-0.9-0.5      c0.4,0.8,1,0.8,0.2,1.7c0.1,0.3,0.4,0,0.5-0.2c0.3,0.1-0.2,1.5-0.9,1.4c0.3,0.3,0.1,0.4,0,0.7c1-0.8-0.7,2.1-0.9,1.7      c0,0.4,0.3,0.5,0.2,0.9c-0.7,0.1-0.9,0.7-1.4,0.9c-0.6,0.1-1.1-1-1.7-0.2c-0.3,0-0.2-0.4-0.2-0.7c-0.2,0-0.2,0.3-0.2,0.5      c-0.5-0.6-0.4-0.2-1.2-0.5c0.1-0.4,0.4-0.6,0.5-0.9c0.2,0,0.2,0.3,0.2,0.5c0.3-0.2,0.4-0.5,0.5-0.9c-0.4,0-0.8-0.4-0.9-1.2      c-0.5,0.8,0.6,1.2-0.5,1.9c-0.4-0.2,0-0.4,0-0.7c-0.6-0.2-0.5,0.5-0.7,0.7c-0.8-0.9-1.4,0.7-1.4-0.7c-0.4-0.1-0.4,0.2-0.5,0.5      c-0.4,0-0.5-0.3-0.9-0.2c0.2-0.7,0.2-0.5,0-1.2c0.3-0.3,0.6-0.3,0.9,0c-0.2-1.3-1.1,0.5-1.4-0.2c0.2-0.2,0.5-0.2,0.5-0.7      c0.3,0.3,0.4,0.1,0.7,0c-0.6-0.7-1.5,0.5-1.7,1.7c-0.3-0.4-1-0.9-0.5-1.4c0.4,0.1-0.1,0.3,0,0.7c1-0.3,0.3-1.5,0-1.9      c0.4,0.6,0.8-0.3,0.2-0.5c0.4-0.4,0.7-0.8,1.2-1.2c0-0.5-0.6-0.3-0.5-0.9c0.3,0.3,0.6,0.1,0.2,0c0.1-0.7,0.7,0,0.5,0.5      c0.7-0.3-0.3-0.9,0.2-1.2c-0.2,0.1-0.4,0.2-0.7,0.2c0.3-0.5,1.1-0.6,0.2-1.2c-0.1-0.5,0.7,0,0.7,0.2c0.3,0,0.2-0.4,0.2-0.7      c-0.8,0.5,0-0.1-0.5-0.2c0.5-0.5,0.8-0.7,0.5-1.4c0.5,0.1,1,0.7,0.5,0c0.7-0.1,0.4,0,1.7,0c-0.5-0.7-1-0.1-1.7-0.5      C8,82.2,8,81.7,8,81.4c0.2-0.4,0.4,0,0.7,0c-0.3-0.3-0.2-0.5,0.2-0.5c-0.2-0.7-1.5-0.8-0.9-0.7c0.3-0.1,0.2-0.5,0-0.5      c0.5,0.2,0.7-0.6,1.7-0.7c-0.5-0.9,0.6-1.8,0.2-2.4c0.1-0.3,0.4,0,0.5,0.2c0.5-0.2-0.4-1.2,0.7-1.2c-0.1-0.2-0.3-0.4,0-0.5      c-1.2-0.2-0.1-0.5-0.5-1.7c0.5,0,0.8-0.2,0.7-0.7c-0.8,1.1-0.4-0.6,0-0.9c0.6,0,1.1,0.5,0.7,0.9c0.6-0.7,1.4,0.6,0.9,0.9      c0.2,0,0.2-0.2,0.5-0.2c-0.8-0.9-0.5-1.2-0.2-1.9c-0.5,0.1-0.6,0.5-1.2,0.5c0-0.6-0.4-0.7,0-1.2c0.4,0.1,0.6,0.4,0.9,0.5      c-0.1-0.2-0.2-0.4-0.2-0.7c-0.3,0.3-0.4,0.1-0.7,0c-0.1-0.5,0-0.9,0.2-1.2c0.2,0,0.2,0.2,0.5,0.2c0.2,0,0.2-0.3,0.2-0.5      c0.4,0.3,0.5,0.8,1.2,0.7c0,0.2-0.2,0.2-0.2,0.5c0.7-0.2,0.3-0.4,0.2-0.9c-0.3,0.3-0.4,0.1-0.7,0c0.2-0.4,0.6-0.5,1.2-0.5      c-1-1.4,0.4,0.5,0.2-0.9c0.3,0.3,0.5,0.2,0.5-0.2c0.3,0.1,0.5,0.3,0.5,0.7c0.2,0,0.2-0.2,0.5-0.2c0-0.2-0.3-0.2-0.5-0.2      c0-0.6,0.8-0.1,0.9,0c-0.1,0.3-0.5,0.2-0.5,0.5c0,0.3,0.4,0.2,0.7,0.2c0-2-1.1-0.7-1.9-1.4c-0.2,0.2-0.4,0.4-0.5,0.7      c-0.2-1.1-0.3,0.3-1.4,0.2c0.1,0.3,0.4,0.6,0.5,0.2c0.7,1-1.6,0.6-0.7-0.5c1.2,0.1,1-1.2,1.4-1.9c-0.2,0.2-0.2,0.5-0.7,0.5      c0.3-0.3,0.1-0.6,0-0.2c-0.3-0.1-0.2-0.5-0.5-0.5c0.5-0.3,0.7-0.1,1.4-0.5c-0.1-0.2-0.2-0.4-0.2-0.7c-0.4,0-0.1,0.8-0.5,0.9      c-0.7,0,0.3-1.2-0.2-0.5c-0.3,0,0-1.4,0.7-1.2c-0.1-0.2-0.2-0.4-0.5-0.5c1.2-0.2,1.1-0.5,2.4-1.2c-0.2-0.7-0.4,0.6-0.9,0.2      c0-0.2,0.1-0.2,0.2-0.2c-0.2-0.2-0.5-0.2-0.5-0.7c0.6,0.3,1.1,0.2,1.4-0.7c0.4,0,0.5,0.3,0.9,0.2c-0.1,0.3-0.4,0.4-0.5,0.7      c0.5-0.5,0.5,0.1,0.2,0.5c0.8-0.1,1.7-1,1.2-1.7c-0.2,0-0.2,0.2-0.5,0.2c0.8,0.1-0.1,0.3,0.2,0.7c-1.2,0.9,0.3-1.5-1.4-0.9      c0.4-0.2,0.5-1,0.9-0.5c-1.2-2.3,0-1.7-0.5-3.6c0.2-0.6,1,0.2,0.9,0.7c0.4,0,0.2-0.8,0.7-0.7c-0.3-0.4-1.4,0.3-0.5-0.7      c-0.7,0.7,0-1.4-1.2-1.4c0.1-0.6,0.4,0.3,0.9,0c-0.5-0.4-0.2-0.7-0.5-0.9c0.3,0.1,1.1-0.1,1.7,0c-0.1-0.7-1.2-0.4-0.9-1.4      c0.3,0.1,0.5,0.3,0.5,0.7h1.2c-0.5-0.2-0.7-0.9-1.2-1.2c0.1-0.2,0.2-0.4,0.2-0.7c0.5-0.1,0.6,0.2,0.9,0.2      c-0.3-0.3-0.2-0.5,0.2-0.5c-0.2-0.4-0.4,0-0.7,0c-0.7-0.1,0.4-0.4,0.5-0.5c-0.2-0.5,0-1.4-0.5-0.9c-0.3-0.3-0.1-0.7,0.2-1.2      c0.6,0,0.1,0.8,0,0.9h0.7c-0.2-0.7-0.2-0.5,0-1.2c-0.1-0.3-0.5-0.2-0.5,0c-0.4-0.8,1-0.3,1.2-1.2c-0.8,0.2-0.9-0.2,0-0.9      c-0.1-0.3-0.5-0.2-0.5,0c-0.9-0.6,1-0.2,0.5-1.2c0.5,0.1,0.5,0.4,0.2,0.7c0.5,0.1,0.9,0,1.2-0.2c-0.1-0.3-0.6-0.2-0.9-0.2      c0.1-0.4-0.2-0.4-0.5-0.5c0.5-0.3,0.7,0.1,0.9-0.7c0.1-0.6-1.1,0.1-0.7-0.7c1.2,0.5,0.6-0.1,0.9-1.2c0.5,0.6,1,0.3,1.7,0      c0,0-1.1-0.5-0.9,0.2c-0.5-0.1-0.5-0.6-0.9-0.7c0.1-0.3,0.4,0,0.5,0.2c0.6,0,0.7-0.4,1.4-0.2c-0.3-0.7,0.1-0.6-0.2-1.2      c-0.3,0.1-0.3,0.7,0,0.7c-0.2,0.7-0.8-0.1-1.2,0c0.2-0.5,0.5-0.9,0.7-1.4c0.6,0,0.7,0.4,1.4,0.2c-0.1,0.3-0.4,0.4-0.5,0.7      c0.7,0.6,1.1-0.2,0.7-0.9c-1.2,0.1-0.6-0.2-0.9-0.7c-0.4,0.3-0.5,0.8-1.2,0.7c0-0.2,0.3-0.2,0.5-0.2c0-0.2-0.1-0.2-0.2-0.2      c0.2-0.3,0.5,0,0.9-0.5c-0.5-0.4-0.2-0.7-0.5-0.9c0-0.7,1.2,1.1,1.2-0.2c0.3,0.1,0.2,0.6,0.2,0.9c0.5-0.1,0.5-0.7,0.9-0.2      c-0.9-0.7-0.3-0.3-0.5-1.4c-0.5,0.1,0.3,0.4-0.2,0.7c-0.4-0.2-0.7-0.8-0.9,0c-0.3,0.5,0.7-2.1-0.2-3.1c0.2,0.1,0.4,0.2,0.7,0.2      c-0.2,0.8,0.4,0.7,0.5,1.2c0.4-0.3,0.6-0.3,0.9,0c-0.8-0.3-0.4-1.6-0.9-1.2c-0.6-0.3,0.6-0.8,0.9-0.9c0-0.3-0.2-0.1-0.2,0      c-0.1-1.4-0.6-0.6-0.7-1.9c0.2,0.2,0.4,0.4,0.5,0.7c-0.1-1,2.4-1.6,0.7-2.6c0.2-0.4,0.4,0.1,0.9-0.2c0-0.2-0.3-0.2-0.5-0.2      c-0.4-0.4,1.5,0,1.7,0c-0.6,0.6-0.3,1.3,0.2,0.5c0.6,0.2-0.4,0.7-0.5,0.9c0.3,0.5,0.9-0.6,0.9-1.2c-0.1-0.4-0.4,0.2-0.5-0.2      c-0.1-0.4,0.2-0.4,0.2-0.7c0.6,1,0.3-0.3,1.2-0.2c-0.1-0.4,0.3-1.4-0.2-1.4c-0.7,0.2,0.3,0.6,0,1.2c-0.4,0-1-0.4-0.5,0      c0.1,0.6-1.4-0.4-0.7,0.2c-0.5,0.5-0.9-1.2-0.7-2.1c0.7,1.3,0.6-0.8,0.9,0.5c1.2-0.4,0.1-0.8,0.5-1.4c-1-0.1-0.1,0.5-0.2,0.9      c-0.2-0.2-0.5-0.3-0.9-0.2c0-0.7,0.9-0.6,0.2-1.2c-0.3,0-0.1,0.2,0,0.2c-0.1,0.4-0.4-0.2-0.5,0.2c-0.6-0.2,0.5-0.5,0.5-0.9      c1.2,0.5,1.6,0.9,2.4,1.4c-0.5-1.5-1-0.5-0.9-2.1c-0.2-0.1-2.2-0.7-1.2-1.7c0.3,0.1,0.2,0.5,0,0.5c0.2,0.2,0.5,0.5,0.7,0.7      c0.3,0,0.1-0.2,0-0.2c0.4-0.2,0.6-0.7,0.5-1.4c0.9,0.2,2.8-2.7,0.7-2.1c-0.5,0.8,0.1-0.8,0.2,0c0.4-1.2,1.8-1.4,2.1-2.6      c0.3,0.7,0.9-0.1,0.5,0.7c0.7-0.6,0.7-0.9,1.4-1.2c-0.5-0.6-0.6-0.5-0.7-1.2c-0.2,0-0.2,0.2-0.5,0.2c0.2,0.8,0.7,0.8,0,1.4      c-0.4-0.2-0.1-0.5,0.2-0.5c-0.2-0.2-0.5-0.2-0.5-0.7c-0.4-0.1-0.4,0.2-0.7,0.2c0.7,0.1,0.7,0.5,0,1.2c-0.3,0-0.1-0.2,0-0.2      c-1.1-0.5,0.1-0.4-0.7-1.2c-0.6-0.5,0.3,0.1,0.5,0.2c0.7-0.4,0.2-0.9,0.2-1.7c0.7,0.6,0.8-0.6,0.5-0.7c1.1-0.7-0.5,1.6,0.9,0.7      c0,0.7-0.7,0.8-0.9,0.5c0.4,0.8,1.7,0,1.9,1.4c0.3-0.5,0.1-0.7,0.5-1.4c-0.2,0.2-0.4,0.4-0.5,0.7c-0.3-0.5-0.3-1.4-1.2-1.4      c0.8-0.3,0.3-0.6,0.9-0.7c-0.1-0.8-0.6,0-0.7-0.5c-0.1-0.4,0.2-0.5,0.2-0.2c0.4-0.1-0.1-0.3,0-0.7c0.2,0.1,0.4,0.2,0.7,0.2      c-0.2,1.7,0.7,1.3,0.7,2.4c0,0.5,0.9-0.4,0.9,0.5c0.6-0.2-0.7-0.5,0-0.9H36c-0.3-1.3-0.2-1.6-0.7-2.6c0.2-0.4,0.5-0.7,0.9-0.9      c-0.8-0.7-0.8,1.4-1.9,1.2c0-0.2,0.3-0.2,0.5-0.2c-0.9-0.4-0.3-0.9-0.9-1.2c0.4-0.9,0.4,0.6,0.9,0.2c0,0.2-0.3,0.2-0.5,0.2      c0.1,0.3,0.5,0.2,0.5,0.5c0.4-1.3,1.9-1.2,2.6-1.2c-0.3-0.3-0.3-0.9,0-1.2c-0.2,0.1-0.4,0.2-0.7,0.2c0.4,0.5-0.5,0.6-1.2,0.5      c1.4-0.6-0.2-2.7,0.7-2.4c0.2-0.6-0.5-0.5-0.5-0.9c-0.5,0.1-0.7,0.6-1.4,0.5c0.1-0.2,0.3-0.4,0-0.5c0.1-0.4,0.7,0.2,0.9-0.5      c0.6,0.2,0.8,0.9,1.4,1.2c0.2,0,0.2-0.2,0.5-0.2c-0.5-1.1,0-1.4-0.9-1.4c0.3-0.4,0.2-1.1,0.9-0.9c-0.2,0.8,0.8,0.3,0.9,0.7      c0-0.6-0.7-0.5-0.7-1.2c0.6,0,0.6-0.5,0.9-0.7c0.9,0.4-0.6,0.4-0.2,0.9C38.5,3.7,38.8,3.1,39.3,3.6"/></g></g></g></g><text x="0" y="115" fill="#000000" font-size="5px" font-weight="bold" font-family="'Helvetica Neue', Helvetica, Arial-Unicode, Arial, Sans-serif">Created by Richard Slade</text><text x="0" y="120" fill="#000000" font-size="5px" font-weight="bold" font-family="'Helvetica Neue', Helvetica, Arial-Unicode, Arial, Sans-serif">from the Noun Project</text></svg>